<ttFont>
<head>
    <!-- Most of this table will be recalculated by the compiler -->
    <tableVersion value="1.0"/>
    <fontRevision value="2.004"/>
    <checkSumAdjustment value="0x274ddc69"/>
    <magicNumber value="0x5f0f3cf5"/>
    <flags value="00000000 00000011"/>
    <unitsPerEm value="1000"/>
    <created value="Thu Oct  8 10:01:11 2009"/>
    <modified value="Thu Oct  8 10:01:11 2009"/>
    <xMin value="-520"/>
    <yMin value="-288"/>
    <xMax value="1766"/>
    <yMax value="1107"/>
    <macStyle value="00000000 00000000"/>
    <lowestRecPPEM value="3"/>
    <fontDirectionHint value="2"/>
    <indexToLocFormat value="0"/>
    <glyphDataFormat value="0"/>
  </head>
          <CharString index="0">
            16 callgsubr
            23 hlineto
            188 84 14 7 rlineto
            0 3 5 5 vvcurveto
            endchar
          </CharString>
          <CharString index="1">
            38 -21 0 -19 vhcurveto
            -9 hlineto
            -19 -21 0 -38 -36 16 -4 25 hvcurveto
            7 hlineto
            25 16 4 36 hvcurveto
            return
          </CharString>
          <CharString index="2">
            rmoveto
            -104 callgsubr
          </CharString>
          <CharString index="3">
            43 -23 0 -21 vhcurveto
            -10 hlineto
            -21 -23 0 -43 -40 17 -4 28 hvcurveto
            8 hlineto
            28 17 4 40 hvcurveto
            return
          </CharString>
          <CharString index="4">
            rmoveto
            37 vlineto
            24 -1 1 -24 vhcurveto
            -37 hlineto
            -23 -2 -1 -24 hvcurveto
            -37 vlineto
            -22 1 -3 23 vhcurveto
            -24 -112 rlineto
            -13 12 0 9 18 0 1 18 8 vhcurveto
            33 96 rlineto
            7 20 0 2 13 vvcurveto
            endchar
          </CharString>
          <CharString index="5">
            -83 callsubr
            hintmask 00100000
            -27 -5 -47 0 -4 hhcurveto
            -25 -23 8 11 -29 hvcurveto
            hintmask 00010000
            20 -54 -24 4 -22 hhcurveto
            -74 -46 -45 -43 hvcurveto
            hintmask 00100000
            -18 10 0 19 vhcurveto
            6 hlineto
            21 4 0 16 3 hvcurveto
            hintmask 00010000
            27 5 47 0 4 hhcurveto
            25 23 -8 -11 29 hvcurveto
            hintmask 00100000
            -20 54 24 -4 22 hhcurveto
            74 46 45 43 hvcurveto
            endchar
          </CharString>
          <CharString index="6">
            696 231 rmoveto
            409 vlineto
            21 0 23 -40 -40 0 -23 -21 vhcurveto
            -406 vlineto
            -124 -107 -65 -101 -96 -106 60 129 vhcurveto
            406 -63 callsubr
            -409 vlineto
            -145 136 -107 159 159 130 109 143 vhcurveto
            return
          </CharString>
          <CharString index="7">
            40 callgsubr
            433 vlineto
            21 0 23 -40 -40 0 -23 -21 vhcurveto
            -284 vlineto
            -89 -67 -54 -92 -94 -13 29 62 vhcurveto
            336 vlineto
            21 0 23 -40 -40 0 -23 -21 vhcurveto
            -338 vlineto
            -119 73 -30 85 103 61 58 42 26 vhcurveto
            -46 -75 callsubr
            return
          </CharString>
          <CharString index="8">
            624 188 rmoveto
            71 -40 39 -20 21 vhcurveto
            -53 52 -76 15 -60 12 -122 24 -22 4 -36 24 rrcurveto
            -25 17 -18 24 31 vvcurveto
            56 76 57 121 75 53 -17 -39 59 vhcurveto
            -8 11 2 0 4 hhcurveto
            11 2 7 23 4 hvcurveto
            1 7 6 30 4 vvcurveto
            10 -1 1 -29 12 vhcurveto
            33 -76 -64 7 -57 hhcurveto
            -172 -109 -96 -99 -57 30 -38 26 -25 hvcurveto
            55 -50 59 -11 105 -21 82 -16 26 -5 37 -24 rrcurveto
            30 -20 22 -30 -36 vvcurveto
            -63 -77 -63 -120 -62 -89 13 62 -97 vhcurveto
            7 -11 -2 0 -3 hhcurveto
            -11 -2 -7 -23 -4 hvcurveto
            -1 -7 -6 -30 -4 vvcurveto
            return
          </CharString>
          <CharString index="9">
            rmoveto
            -152 107 rlineto
            -72 hlineto
            -152 -107 rlineto
            71 hlineto
            117 77 117 -77 rlineto
            return
          </CharString>
          <CharString index="10">
            9 -6 3 -10 5 vhcurveto
            -170 84 rlineto
            -42 hlineto
            -15 -13 0 -14 -5 3 -5 0 hvcurveto
            14 -7 188 -84 rlineto
            23 hlineto
            16 12 56 callsubr
          </CharString>
          <CharString index="11">
            526 498 rmoveto
            23 -23 0 -6 -33 -12 -21 -3 -2 vhcurveto
            -2 -3 -148 -347 -15 -65 rrcurveto
            -1 hlineto
            -11 45 -23 51 -25 58 -109 248 rcurveline
            37 -16 -29 0 -11 hhcurveto
            -9 -21 0 -23 -4 1 -6 2 -3 hvcurveto
            218 -485 -12 -27 0 -2 -2 -5 rlinecurve
            -15 -7 -17 -37 -76 hhcurveto
            -28 -26 4 7 -27 hvcurveto
            -4 2 -3 0 0 vvcurveto
            -11 -4 -8 -9 -51 9 -1 11 -2 hvcurveto
            -3 26 26 -2 26 hhcurveto
            86 57 47 65 27 hvcurveto
            219 517 rlineto
            2 5 3 6 7 vvcurveto
            return
          </CharString>
          <CharString index="12">
            -20 0 -24 39 39 0 24 20 vhcurveto
            return
          </CharString>
          <CharString index="13">
            758 25 rmoveto
            -241 293 rlineto
            167 36 62 77 65 vvcurveto
            108 -156 80 -165 vhcurveto
            -268 -66 callgsubr
            -596 vlineto
            -40 15 -4 31 30 16 3 41 vhcurveto
            267 228 vlineto
            237 -292 rlineto
            -19 15 14 0 19 hhcurveto
            8 hlineto
            20 12 0 25 hvcurveto
            -101 471 rmoveto
            -69 -81 -53 -153 vhcurveto
            -218 244 218 hlineto
            162 72 -57 -65 hvcurveto
            return
          </CharString>
          <CharString index="14">
            -20 -92 callgsubr
            return
          </CharString>
          <CharString index="15">
            rmoveto
            18 -13 14 -19 -11 -6 -5 -5 -5 vhcurveto
            -70 callsubr
            5 -6 -6 4 -9 hhcurveto
            -19 -13 -14 -18 -60 callsubr
            hvcurveto
            return
          </CharString>
          <CharString index="16">
            628 535 rmoveto
            69 vlineto
            8 -6 6 -7 vhcurveto
            -70 hlineto
            -8 -6 -6 -8 hvcurveto
            -69 vlineto
            -6 3 -4 5 -3 vhcurveto
            -19 -16 rlineto
            9 -6 -10 6 -11 hhcurveto
            -17 hlineto
            -18 -14 -14 -17 hvcurveto
            -306 vlineto
            -76 -68 -59 -82 -47 -26 2 17 -21 vhcurveto
            -17 14 -5 22 35 vvcurveto
            351 vlineto
            17 -14 14 -17 vhcurveto
            -17 hlineto
            -18 -14 -14 -17 hvcurveto
            -351 vlineto
            -45 11 -41 30 -27 vhcurveto
            -28 30 42 -8 49 hhcurveto
            79 71 40 61 36 hvcurveto
            -60 vlineto
            -17 14 -14 17 vhcurveto
            16 hlineto
            17 14 14 17 hvcurveto
            419 vlineto
            99 74 rlineto
            10 callgsubr
            return
          </CharString>
          <CharString index="17">
            1124 660 rmoveto
            24 -24 0 -5 -33 -12 -20 -21 -8 vhcurveto
            -141 -390 -59 -173 -7 27 -20 55 -11 31 rlinecurve
            -164 454 rlineto
            37 -13 -25 0 -20 hhcurveto
            -19 -26 0 -38 -14 hvcurveto
            -126 -350 -43 -119 -21 -58 -9 -37 rlinecurve
            -1 hlineto
            -9 39 -32 89 -32 88 -125 346 rcurveline
            40 -14 -22 0 -24 hhcurveto
            -15 -22 0 -24 -4 2 -6 1 -3 hvcurveto
            225 -615 rlineto
            -39 14 24 0 20 hhcurveto
            20 25 0 40 14 hvcurveto
            126 350 48 132 17 49 10 38 rlinecurve
            10 -38 23 -64 38 -105 130 -361 rcurveline
            -41 15 23 0 23 hhcurveto
            22 24 0 39 14 hvcurveto
            224 611 rlineto
            2 5 2 7 5 vvcurveto
            return
          </CharString>
          <CharString index="18">
            -2 -2 -4 -5 2 -4 14 -36 rcurveline
            -5 2 5 -3 5 hhcurveto
            5 7 8 6 4 hvcurveto
            return
          </CharString>
          <CharString index="19">
            734 59 rmoveto
            -4 45 rlineto
            7 -1 -6 6 -7 hhcurveto
            -3 -2 -1 -1 -2 hvcurveto
            -34 -19 -35 -19 -38 -10 rrcurveto
            -10 -38 -40 -1 -39 hhcurveto
            -79 -76 29 55 -57 hvcurveto
            -55 53 -33 72 77 vvcurveto
            77 33 72 55 53 vhcurveto
            55 57 76 29 79 hhcurveto
            35 36 -3 -9 35 hvcurveto
            34 -8 33 -15 31 -18 rrcurveto
            -1 2 112 callsubr
            7 5 5 6 1 hvcurveto
            11 59 rlineto
            9 -4 5 -6 2 vhcurveto
            -36 11 -37 10 -38 6 rrcurveto
            5 -38 -38 2 -38 hhcurveto
            -102 -100 -34 -68 -76 hvcurveto
            -71 -64 -44 -90 -96 vvcurveto
            -96 44 -90 71 -64 vhcurveto
            -68 76 100 -34 102 hhcurveto
            41 43 1 9 40 hvcurveto
            41 10 38 17 38 19 rrcurveto
            5 2 3 5 6 vvcurveto
            return
          </CharString>
          <CharString index="20">
            rmoveto
            452 -65 callsubr
            -51 -1 vlineto
            59 -32 -47 36 -66 hhcurveto
            -131 -115 -118 -151 -143 113 -98 119 75 51 46 66 31 hvcurveto
            1 -123 hlineto
            -75 -66 -33 -74 vhcurveto
            hintmask 01000000
            -70 -58 12 17 -50 hvcurveto
            -20 7 -4 0 0 vvcurveto
            -15 0 -13 -16 hvcurveto
            -10 vlineto
            -23 0 -2 19 -6 vhcurveto
            hintmask 10110011
            -15 50 66 -14 82 hhcurveto
            140 80 95 101 hvcurveto
            -78 267 rmoveto
            -132 -52 -86 -83 -91 -86 73 105 113 87 93 104 86 35 -100 -42 vhcurveto
            return
          </CharString>
          <CharString index="21">
            8 6 7 7 hvcurveto
            22 vlineto
            34 31 18 40 22 vhcurveto
            24 13 19 18 24 vvcurveto
            endchar
          </CharString>
          <CharString index="22">
            -20 -84 callgsubr
            return
          </CharString>
          <CharString index="23">
            697 44 rmoveto
            596 -65 callsubr
            -576 vlineto
            -353 583 rlineto
            37 -22 -28 0 -20 hhcurveto
            -37 -66 callgsubr
            -596 -75 callsubr
            576 vlineto
            353 -583 rlineto
            -37 22 28 0 20 hhcurveto
            37 -57 callgsubr
            return
          </CharString>
          <CharString index="24">
            rmoveto
            18 -9 0 -19 vhcurveto
            -7 hlineto
            -21 -4 0 -16 -3 hvcurveto
            return
          </CharString>
          <CharString index="25">
            -83 callsubr
            hintmask 10000000
            -27 -5 -47 0 -4 hhcurveto
            -25 -23 8 11 -29 hvcurveto
            hintmask 01000000
            20 -54 -24 4 -22 hhcurveto
            -74 -46 -45 -43 hvcurveto
            hintmask 10000000
            -18 10 0 19 vhcurveto
            6 hlineto
            21 4 0 16 3 hvcurveto
            hintmask 01000000
            27 5 47 0 4 hhcurveto
            25 23 -8 -11 29 hvcurveto
            hintmask 10000000
            -20 54 24 -4 22 hhcurveto
            74 46 45 43 hvcurveto
            endchar
          </CharString>
          <CharString index="26">
            -20 -80 callgsubr
            return
          </CharString>
          <CharString index="27">
            779 665 rmoveto
            19 -19 0 -12 -16 -30 0 -32 -28 vhcurveto
            -261 -303 -258 301 rlineto
            34 -29 -31 0 -28 hhcurveto
            -25 -16 0 -19 -7 2 -3 8 -9 hvcurveto
            320 -372 rlineto
            -230 vlineto
            -40 15 -4 31 30 16 3 40 vhcurveto
            230 vlineto
            320 373 rlineto
            11 11 0 2 6 vvcurveto
            return
          </CharString>
          <CharString index="28">
            hlineto
            -77 callsubr
            return
          </CharString>
          <CharString index="29">
            399 489 rmoveto
            14 vlineto
            21 0 7 -21 -26 -112 -9 -134 -64 vhcurveto
            -1 89 hlineto
            18 0 26 -37 -38 0 -25 -19 -52 callsubr
            215 vlineto
            121 95 76 103 5 vhcurveto
            20 1 3 0 27 vvcurveto
            return
          </CharString>
          <CharString index="30">
            -71 callgsubr
            -596 -67 callsubr
            return
          </CharString>
          <CharString index="31">
            44 callsubr
            hintmask 11001100
            -101 callsubr
            return
          </CharString>
          <CharString index="32">
            vlineto
            -95 callsubr
            return
          </CharString>
          <CharString index="33">
            576 259 rmoveto
            73 -27 70 -51 53 vhcurveto
            -2 3 -3 3 -3 2 79 61 26 callgsubr
            -8 vhcurveto
            -69 19 callgsubr
            -32 -29 rlineto
            28 -42 -50 15 -51 hhcurveto
            -71 -67 -30 -51 -49 hvcurveto
            -50 -53 -27 -70 -73 vvcurveto
            -71 27 -69 50 -51 vhcurveto
            -50 49 68 -28 70 hhcurveto
            71 67 28 50 49 hvcurveto
            return
          </CharString>
          <CharString index="34">
            700 2 callgsubr
            -251 -400 251 -91 callgsubr
            279 400 -279 -67 callsubr
            6 -57 callgsubr
            return
          </CharString>
          <CharString index="35">
            -44 callsubr
            156 rmoveto
            -14 101 callgsubr
            -23 hlineto
            -188 84 -14 7 rlineto
            0 -3 101 callsubr
            13 0 15 vhcurveto
            42 hlineto
            170 -84 rlineto
            10 -5 6 -3 -9 vvcurveto
            endchar
          </CharString>
          <CharString index="36">
            850 648 rmoveto
            33 -30 0 -14 vhcurveto
            -717 hlineto
            -14 -30 0 -33 -33 30 0 14 hvcurveto
            312 -571 hlineto
            -62 callgsubr
            6 -57 callgsubr
            571 311 57 callsubr
            hvcurveto
            return
          </CharString>
          <CharString index="37">
            -10 -13 -79 0 -59 hhcurveto
            -71 -67 0 11 -14 hvcurveto
            return
          </CharString>
          <CharString index="38">
            rmoveto
            18 -13 14 -19 -11 -6 -5 -5 -5 vhcurveto
            hintmask 10000000
            -70 callsubr
            hintmask 01000000
            5 -6 -6 4 -9 hhcurveto
            -19 -13 -14 -18 hvcurveto
            hintmask 10000000
            -25 callgsubr
          </CharString>
          <CharString index="39">
            20 0 24 -39 -19 callsubr
            return
          </CharString>
          <CharString index="40">
            vlineto
            -62 callgsubr
            return
          </CharString>
          <CharString index="41">
            rmoveto
            -106 callsubr
            163 hmoveto
            -106 callsubr
            endchar
          </CharString>
          <CharString index="42">
            vlineto
            -68 callsubr
            return
          </CharString>
          <CharString index="43">
            8 callsubr
            hintmask 00001000
            -18 10 0 19 vhcurveto
            6 hlineto
            21 4 0 16 3 hvcurveto
            hintmask 00000100
            27 5 47 0 4 hhcurveto
            25 23 -8 -11 29 hvcurveto
            hintmask 00001000
            -20 54 24 -4 22 hhcurveto
            74 46 45 43 hvcurveto
            endchar
          </CharString>
          <CharString index="44">
            vlineto
            -60 callgsubr
            return
          </CharString>
          <CharString index="45">
            16 -26 -31 4 -36 hhcurveto
            -43 -40 -19 -33 -27 hvcurveto
            return
          </CharString>
          <CharString index="46">
            41 vlineto
            25 -1 3 -26 vhcurveto
            24 110 rlineto
            2 11 1 1 3 vvcurveto
            14 -14 0 -10 -17 -3 0 -19 -7 vhcurveto
            -46 -131 rlineto
            -58 vlineto
            -26 1 -2 27 vhcurveto
            41 -40 callgsubr
            return
          </CharString>
          <CharString index="47">
            -57 93 0 112 112 93 0 57 return
          </CharString>
          <CharString index="48">
            rmoveto
            14 -13 0 -15 vhcurveto
            return
          </CharString>
          <CharString index="49">
            vvcurveto
            -42 24 -42 72 45 41 14 20 38 vhcurveto
            6 4 6 12 -2 6 return
          </CharString>
          <CharString index="50">
            -58 callsubr
            -8 20 rcurveline
            -1 7 -13 1 -6 -2 rrcurveto
            -8 -24 -22 -5 -23 hhcurveto
            return
          </CharString>
          <CharString index="51">
            74 65 47 92 98 vvcurveto
            -94 16 rmoveto
            -84 -31 -81 -59 -58 vhcurveto
            -59 -61 -83 -30 -85 hhcurveto
            -84 -83 30 59 -61 hvcurveto
            -60 58 -30 81 84 vvcurveto
            77 32 75 58 51 vhcurveto
            56 62 83 26 83 hhcurveto
            84 83 -26 -56 62 hvcurveto
            58 -51 32 -75 -77 vvcurveto
            return
          </CharString>
          <CharString index="52">
            778 19 rmoveto
            7 -5 5 -5 6 vhcurveto
            -327 365 317 246 rlineto
            7 5 5 5 8 vvcurveto
            18 -16 0 -15 vhcurveto
            -15 hlineto
            -12 -24 0 -15 -19 hvcurveto
            -465 -362 rlineto
            333 vlineto
            34 -8 10 -36 -31 -14 -5 -39 vhcurveto
            -596 vlineto
            -37 12 -7 33 34 10 8 36 vhcurveto
            174 vlineto
            170 132 295 -328 rlineto
            -20 18 7 -2 27 hhcurveto
            24 hlineto
            14 19 0 19 hvcurveto
            return
          </CharString>
          <CharString index="53">
            -20 hstemhm
            99 80 8 89 74 89 6 80 hintmask 1100010010000000
            -100 callsubr
            hintmask 0011101100000000
            -249 -27 callgsubr
            return
          </CharString>
          <CharString index="54">
            701 33 rmoveto
            33 -30 0 -14 vhcurveto
            -462 hlineto
            485 547 rlineto
            14 16 0 7 11 vvcurveto
            37 -26 0 -18 vhcurveto
            -519 hlineto
            -13 -31 0 -32 -32 31 0 13 hvcurveto
            437 hlineto
            -485 -549 rlineto
            -13 -14 -1 -2 -17 vvcurveto
            -38 25 0 19 vhcurveto
            544 27 callgsubr
            return
          </CharString>
          <CharString index="55">
            vhcurveto
            -433 -75 callsubr
            return
          </CharString>
          <CharString index="56">
            rmoveto
            18 -13 14 -19 -11 -6 -5 -5 -5 vhcurveto
            hintmask 00100000
            -70 callsubr
            hintmask 00010000
            5 -6 -6 4 -9 hhcurveto
            -19 -13 -14 -18 hvcurveto
            hintmask 00100000
            -25 callgsubr
          </CharString>
          <CharString index="57">
            vlineto
            26 -1 2 -27 vhcurveto
            -41 hlineto
            -26 -2 -2 -26 hvcurveto
            return
          </CharString>
          <CharString index="58">
            rmoveto
            7 -4 4 -3 4 vhcurveto
            -222 277 197 171 rlineto
            10 8 4 4 8 vvcurveto
            18 -16 0 -21 -25 -13 0 -18 -21 vhcurveto
            -266 -231 rlineto
            378 vlineto
            18 0 26 -37 -37 0 -26 -18 vhcurveto
            -606 vlineto
            -18 0 -26 37 36 0 27 17 vhcurveto
            136 vlineto
            98 85 197 -244 rlineto
            -19 15 5 -2 30 hhcurveto
            19 17 0 20 hvcurveto
            return
          </CharString>
          <CharString index="59">
            -50 callsubr
            -41 vlineto
            -25 1 -3 26 vhcurveto
            return
          </CharString>
          <CharString index="60">
            rmoveto
            254 -119 91 -127 -51 -67 -9 -65 -67 vhcurveto
            -48 -47 -21 -47 -69 vvcurveto
            -131 91 -104 119 80 82 40 76 43 vhcurveto
            -247 -6 -147 -35 -66 hhcurveto
            -57 -34 16 18 -29 hvcurveto
            8 -10 -2 0 -3 hhcurveto
            -16 -17 -46 0 -15 49 -21 19 -8 hvcurveto
            -16 44 40 0 15 hhcurveto
            hintmask 00111100
            162 143 144 213 hvcurveto
            return
          </CharString>
          <CharString index="61">
            rmoveto
            606 -65 callsubr
            -606 -75 callsubr
            return
          </CharString>
          <CharString index="62">
            1010 34 rmoveto
            35 -28 0 -16 vhcurveto
            -363 252 311 45 callgsubr
            33 -30 0 -14 hvcurveto
            -311 231 346 45 callgsubr
            33 -30 0 -14 hvcurveto
            -487 hlineto
            -20 -26 0 -35 -20 hvcurveto
            -339 -608 rlineto
            -7 -12 0 -5 -3 vvcurveto
            -21 21 0 8 10 32 0 34 19 vhcurveto
            96 174 rlineto
            274 -164 hlineto
            -34 8 -10 36 95 callgsubr
            -500 240 rmoveto
            -237 hlineto
            191 344 rlineto
            46 hlineto
            return
          </CharString>
          <CharString index="63">
            -98 callsubr
            11 return
          </CharString>
          <CharString index="64">
            9 vlineto
            -44 callgsubr
            -9 -66 callgsubr
            -9 -67 callsubr
            9 -57 callgsubr
            return
          </CharString>
          <CharString index="65">
            71 callsubr
            -596 vlineto
            55 callgsubr
            552 212 hlineto
            181 129 -109 -173 hvcurveto
            return
          </CharString>
          <CharString index="66">
            502 31 rmoveto
            32 -31 0 -13 vhcurveto
            -317 hlineto
            343 389 rlineto
            12 14 2 2 16 vvcurveto
            37 -26 0 -18 vhcurveto
            -358 -3 callsubr
            296 hlineto
            -343 -389 rlineto
            -12 -14 -2 -2 -16 vvcurveto
            -37 26 0 18 vhcurveto
            379 33 callsubr
            return
          </CharString>
          <CharString index="67">
            -2 callgsubr
            243 hmoveto
            -61 callsubr
            endchar
          </CharString>
          <CharString index="68">
            46 callsubr
            hintmask 11001000
            206 44 rmoveto
            596 -91 callgsubr
            return
          </CharString>
          <CharString index="69">
            590 -10 63 219 42 163 59 return
          </CharString>
          <CharString index="70">
            59 callsubr
            186 66 442 -20 return
          </CharString>
          <CharString index="71">
            78 hintmask 11001000
            177 44 rmoveto
            -70 callgsubr
            return
          </CharString>
          <CharString index="72">
            972 -10 63 193 49 115 63 0 63 hstemhm
            47 77 356 81 308 66 hintmask 00010000
            935 287 rmoveto
            157 -85 92 -120 vhcurveto
            hintmask 00100000
            -79 -82 -42 -84 -50 hvcurveto
            hintmask 11011110
            76 -44 -83 50 -89 hhcurveto
            -140 -116 -121 -152 -153 116 -120 140 86 83 46 82 49 hvcurveto
            -81 49 87 -47 90 hhcurveto
            39 39 9 18 35 hvcurveto
            3 1 66 34 24 vvcurveto
            20 0 31 -17 -6 -2 -3 -10 -11 vhcurveto
            -56 -55 -64 -5 -26 hhcurveto
            -98 -82 84 109 -7 hvcurveto
            330 hlineto
            21 23 0 41 hvcurveto
            -66 8 rmoveto
            -307 hlineto
            109 14 76 69 78 hhcurveto
            131 7 -146 -32 1 hvcurveto
            -389 -25 rmoveto
            -146 -87 -71 -90 -95 -84 76 141 136 87 67 92 87 90 -63 -140 vhcurveto
            endchar
          </CharString>
          <CharString index="73">
            1201 -21 63 -42 69 252 66 231 66 -42 63 hstemhm
            20 92 331 92 40 92 hintmask 01110001
            1148 34 rmoveto
            35 -28 0 -16 vhcurveto
            -437 252 385 45 callgsubr
            33 -30 0 -14 hvcurveto
            -385 231 420 45 callgsubr
            33 -30 0 -14 hvcurveto
            -465 hlineto
            -19 -19 1 9 -55 hvcurveto
            hintmask 10001110
            9 -47 -20 2 -28 hhcurveto
            -229 -185 -166 -198 -201 189 -161 225 20 16 0 11 65 hvcurveto
            hintmask 01000001
            6 30 27 4 30 hhcurveto
            482 hlineto
            15 29 0 34 hvcurveto
            -572 308 rmoveto
            -1 -118 rlineto
            hintmask 10001111
            -144 -1 -12 -38 -119 hhcurveto
            -206 -125 158 154 150 132 138 198 116 15 -35 -133 2 hvcurveto
            endchar
          </CharString>
          <CharString index="74">
            -13 callgsubr
            81 388 -92 callsubr
            return
          </CharString>
          <CharString index="75">
            vlineto
            -17 0 -29 35 18 6 6 13 10 vhcurveto
            49 42 63 11 46 hhcurveto
            84 57 -57 -103 -111 -81 -52 -95 -40 -76 10 73 -66 hvcurveto
            10 -9 -2 2 -6 hhcurveto
            -12 -26 -40 -6 -14 92 -99 146 148 121 100 126 hvcurveto
            endchar
          </CharString>
          <CharString index="76">
            -8 5 -4 2 -1 vhcurveto
            -1 2 118 -69 161 hhcurveto
            168 112 101 108 hvcurveto
            return
          </CharString>
          <CharString index="77">
            rmoveto
            27 -14 24 -23 14 vhcurveto
            return
          </CharString>
          <CharString index="78">
            -20 -27 callsubr
            return
          </CharString>
          <CharString index="79">
            rmoveto
            32 -31 0 -13 vhcurveto
            -245 -3 callsubr
            245 36 callgsubr
          </CharString>
          <CharString index="80">
            hstemhm
            99 -36 callsubr
            return
          </CharString>
          <CharString index="81">
            217 rmoveto
            130 -91 105 -119 -69 -87 -31 -85 -49 vhcurveto
            2 44 3 89 62 73 rrcurveto
            34 28 56 42 87 hhcurveto
            13 42 0 -16 49 hvcurveto
            hintmask 0001000100000000
            -3 8 4 -2 4 hhcurveto
            58 callgsubr
            8 vlineto
            19 0 4 -11 5 vhcurveto
            hintmask 1100101010000000
            16 -39 -42 4 -42 hhcurveto
            -175 -148 -147 -209 -252 120 -94 133 28 76 1 65 67 hvcurveto
            35 35 41 42 95 vvcurveto
            -85 hmoveto
            hintmask 1100001100000000
            -51 -6 -39 -37 -37 vhcurveto
            -19 -18 -28 -28 -73 hhcurveto
            -116 -35 93 71 -11 hvcurveto
            -1 27 1 -23 32 vvcurveto
            73 65 72 104 33 46 -2 -48 41 vhcurveto
            hintmask 0000000010000000
            26 -32 9 -31 -58 vvcurveto
            endchar
          </CharString>
          <CharString index="82">
            -21 callgsubr
            hintmask 00110000
            return
          </CharString>
          <CharString index="83">
            -1 callgsubr
            215 200 -92 callsubr
            return
          </CharString>
          <CharString index="84">
            556 -10 9 callsubr
            return
          </CharString>
          <CharString index="85">
            518 287 rmoveto
            144 -81 105 -141 -139 -108 -124 -148 -148 111 -118 138 -8 vhcurveto
            -31 -31 -18 -34 -40 -57 callsubr
            -68 -34 66 62 102 hvcurveto
            35 8 35 15 31 22 rrcurveto
            30 21 0 4 8 vvcurveto
            20 0 31 -17 -6 -4 -4 -6 -7 vhcurveto
            -47 -52 -64 -17 -49 hhcurveto
            -104 -79 90 103 -6 hvcurveto
            349 hlineto
            21 23 0 41 hvcurveto
            -65 8 rmoveto
            -327 hlineto
            105 13 74 73 83 hhcurveto
            148 7 -145 -33 2 hvcurveto
            return
          </CharString>
          <CharString index="86">
            hintmask 11000000
            -53 callsubr
            return
          </CharString>
          <CharString index="87">
            -92 callsubr
            3 175 -72 callgsubr
          </CharString>
          <CharString index="88">
            -34 callgsubr
            vhcurveto
            return
          </CharString>
          <CharString index="89">
            10 callsubr
            hintmask 0000010010100000
            -98 callgsubr
            hintmask 0000000100100000
            -86 callsubr
          </CharString>
          <CharString index="90">
            -20 hstemhm
            172 89 104 89 hintmask 10011000
            -10 callsubr
            hintmask 01100000
            return
          </CharString>
          <CharString index="91">
            889 0 66 243 113 callsubr
            hstem
            99 callgsubr
            cntrmask 11100000
            71 callsubr
            -265 -9 21 callsubr
            9 -265 hlineto
            55 callgsubr
            243 168 hlineto
            18 13 14 17 hvcurveto
            4 vlineto
            17 -13 14 -18 vhcurveto
            -168 243 100 callsubr
          </CharString>
          <CharString index="92">
            819 0 66 258 63 231 66 hstem
            114 91 455 89 vstem
            749 188 rmoveto
            84 -105 67 -133 19 vhcurveto
            101 21 102 52 79 vvcurveto
            99 -147 75 -158 vhcurveto
            -251 -79 callsubr
            285 hlineto
            162 144 83 105 hvcurveto
            -122 321 rmoveto
            -70 -123 -52 -135 vhcurveto
            -164 231 171 hlineto
            107 144 -37 -72 hvcurveto
            33 -320 rmoveto
            -79 -138 -44 -113 vhcurveto
            -204 258 191 hlineto
            124 140 -54 -81 hvcurveto
            endchar
          </CharString>
          <CharString index="93">
            2 -1 2 2 vvcurveto
            -126 258 126 257 rlineto
            2 1 2 3 vvcurveto
            7 -6 7 -8 vhcurveto
            -35 hlineto
            -5 -5 -3 -5 -2 hvcurveto
            -146 -263 -3 -5 0 -5 3 -4 rlinecurve
            146 -264 rlineto
            -4 2 5 -3 5 hhcurveto
            35 hlineto
            8 6 6 8 hvcurveto
            return
          </CharString>
          <CharString index="94">
            -61 callgsubr
            259 vlineto
            92 58 73 88 108 12 -60 -54 vhcurveto
            -310 vlineto
            return
          </CharString>
          <CharString index="95">
            -143 -16 callgsubr
            return
          </CharString>
          <CharString index="96">
            382 21 -21 458 63 47 63 10 63 hstem
            135 78 vstem
            433 652 rmoveto
            14 vlineto
            26 -1 1 -39 6 vhcurveto
            5 -31 -29 0 -8 hhcurveto
            -95 -95 -44 -92 hvcurveto
            -47 -57 -8 callgsubr
            57 -414 hlineto
            -95 callsubr
            414 101 vlineto
            51 callgsubr
            32 -31 0 -13 hvcurveto
            -103 67 hlineto
            21 0 9 38 13 vhcurveto
            8 24 24 2 25 hhcurveto
            20 27 -1 -12 36 hvcurveto
            -3 9 2 -1 3 hhcurveto
            58 callgsubr
            endchar
          </CharString>
          <CharString index="97">
            261 612 rmoveto
            -106 callsubr
            193 hmoveto
            -106 callsubr
            return
          </CharString>
          <CharString index="98">
            596 -63 callsubr
            return
          </CharString>
          <CharString index="99">
            873 44 rmoveto
            317 vlineto
            114 -58 56 -112 -99 -57 -65 -53 -26 vhcurveto
            83 -17 -59 35 -89 hhcurveto
            -81 -61 -43 -69 -37 hvcurveto
            -1 58 hlineto
            19 0 25 -38 -19 callsubr
            -433 vlineto
            -21 0 -23 40 40 0 23 21 vhcurveto
            259 vlineto
            94 61 71 85 108 13 -58 -56 vhcurveto
            -310 42 callgsubr
            return
          </CharString>
          <CharString index="100">
            -85 -49 -60 -51 -8 -90 0 145 145 90 0 8 51 49 -60 -85 vhcurveto
            return
          </CharString>
          <CharString index="101">
            34 rmoveto
            35 -28 0 -16 vhcurveto
            -340 hlineto
            144 115 93 59 50 42 rrcurveto
            58 50 39 55 74 vvcurveto
            128 -111 89 -156 -55 -59 -11 -43 -53 vhcurveto
            -51 -43 -25 -68 -6 vvcurveto
            -11 35 -37 10 10 3 9 5 2 vhcurveto
            49 16 33 90 118 hhcurveto
            95 102 -46 -106 -71 -42 -46 -35 -34 hvcurveto
            -34 -32 -62 -44 -33 -26 -196 -156 rcurveline
            -10 -8 -2 -2 -11 vvcurveto
            -33 30 0 14 95 callgsubr
            endchar
          </CharString>
          <CharString index="102">
            625 -10 65 418 63 return
          </CharString>
          <CharString index="103">
            279 40 rmoveto
            22 -18 18 -22 vhcurveto
            -33 524 33 hlineto
            22 18 18 22 22 -18 18 -22 hvcurveto
            -160 hlineto
            -22 -18 -18 -22 -22 18 -18 22 hvcurveto
            33 -524 -33 hlineto
            -22 -18 -18 -22 -22 18 -18 22 hvcurveto
            return
          </CharString>
          <CharString index="104">
            hlineto
            -42 callgsubr
            return
          </CharString>
          <CharString index="105">
            780 -16 rmoveto
            25 25 -25 25 -8 8 -237 236 rcurveline
            237 237 8 8 25 25 -25 25 rlinecurve
            -25 24 -24 -24 -9 -9 -236 -236 rcurveline
            -236 236 -9 9 -25 24 -24 -24 rlinecurve
            -25 -25 25 -25 8 -8 236 -237 rcurveline
            -237 -237 -8 -8 -25 -25 25 -25 rlinecurve
            25 -24 24 24 9 9 237 237 rcurveline
            236 -236 9 -9 24 -25 25 25 rlinecurve
            return
          </CharString>
          <CharString index="106">
            rmoveto
            10 vlineto
            26 -1 2 -27 vhcurveto
            -186 hlineto
            -26 -2 -2 -26 hvcurveto
            -9 vlineto
            -27 2 -2 27 vhcurveto
            185 -36 callgsubr
          </CharString>
          <CharString index="107">
            115 callsubr
            hintmask 00010000
            10 18 21 2 13 hhcurveto
            22 17 -4 -9 20 hvcurveto
            -3 5 3 -1 4 hhcurveto
            hintmask 00100000
            58 callgsubr
            14 vlineto
            24 -1 1 -27 7 vhcurveto
            return
          </CharString>
          <CharString index="108">
            rmoveto
            14 vlineto
            25 -1 1 -30 6 vhcurveto
            6 -30 -24 0 -10 hhcurveto
            -89 -80 -48 -87 hvcurveto
            -48 -57 -8 callgsubr
            57 -414 hlineto
            -95 callsubr
            414 111 vlineto
            14 30 0 32 31 -32 0 -12 hvcurveto
            -113 67 hlineto
            21 0 8 28 13 vhcurveto
            8 20 22 3 21 hhcurveto
            29 20 -5 -7 19 hvcurveto
            -5 10 112 callsubr
            return
          </CharString>
          <CharString index="109">
            275 44 callgsubr
            -31 102 callgsubr
            11 21 16 19 18 15 rrcurveto
            32 1 9 8 35 vvcurveto
            85 callgsubr
            -16 2 -10 5 -7 vhcurveto
            -41 -29 -33 -53 -44 -58 callsubr
            rrcurveto
            return
          </CharString>
          <CharString index="110">
            33 rmoveto
            33 -30 0 -14 vhcurveto
            -89 432 hlineto
            -44 callgsubr
            -23 hlineto
            -20 -12 0 -19 -14 hvcurveto
            -297 -443 rlineto
            -11 -14 0 -2 -20 vvcurveto
            -62 callgsubr
            296 -95 hlineto
            -21 0 -23 40 41 0 23 21 vhcurveto
            95 89 57 callsubr
            hvcurveto
            -211 33 rmoveto
            -258 hlineto
            209 328 18 25 18 25 12 26 rlinecurve
            hintmask 01101000
            1 hlineto
            endchar
          </CharString>
          <CharString index="111">
            524 35 rmoveto
            452 -65 callsubr
            -51 -1 vlineto
            59 -32 -47 36 -66 hhcurveto
            -131 -115 -118 -151 -143 113 -98 119 75 51 46 66 31 hvcurveto
            1 -123 hlineto
            -75 -66 -33 -74 vhcurveto
            hintmask 01000000
            -70 -58 12 17 -50 hvcurveto
            -20 7 -4 0 0 vvcurveto
            -15 0 -13 -16 hvcurveto
            -10 vlineto
            -23 0 -2 19 -6 vhcurveto
            return
          </CharString>
          <CharString index="112">
            28 callsubr
            -138 590 rmoveto
            18 -15 17 -20 -18 -9 -13 -5 -4 vhcurveto
            -549 -753 rlineto
            -10 -14 -1 -7 -6 vvcurveto
            -19 16 -16 19 16 9 10 9 7 vhcurveto
            return
          </CharString>
          <CharString index="113">
            rmoveto
            486 -65 callsubr
            -491 vlineto
            return
          </CharString>
          <CharString index="114">
            41 -50 callsubr
            return
          </CharString>
          <CharString index="115">
            -83 callsubr
            hintmask 00001000
            -27 -5 -47 0 -4 hhcurveto
            -25 -23 8 11 -29 hvcurveto
            hintmask 00000100
            20 -54 -24 4 -22 hhcurveto
            -74 -46 -45 -43 hvcurveto
            return
          </CharString>
          <CharString index="116">
            63 193 67 callgsubr
            return
          </CharString>
          <CharString index="117">
            -98 callsubr
            128 287 -30 callsubr
            hintmask 0000010000000000
            -62 callsubr
            hintmask 0000100000000000
            -89 callsubr
            return
          </CharString>
          <CharString index="118">
            31 rmoveto
            32 -30 0 -14 vhcurveto
            -112 574 hlineto
            15 0 29 -34 -14 -5 -4 -13 -13 vhcurveto
            -47 -46 -73 -2 -29 -1 rrcurveto
            -19 -1 -13 -13 -17 vvcurveto
            -32 32 0 8 10 62 2 23 51 vhcurveto
            -514 -112 vlineto
            -13 -31 0 -31 -32 30 0 14 hvcurveto
            308 hlineto
            13 31 0 31 hvcurveto
            endchar
          </CharString>
          <CharString index="119">
            201 16 callgsubr
            return
          </CharString>
          <CharString index="120">
            rmoveto
            75 -252 1 -25 vhcurveto
            -1 hlineto
            -8 -8 0 -1 -8 hvcurveto
            -3 -226 -2 -73 -13 10 -4 12 hvcurveto
            5 5 1 4 6 6 -1 7 hhcurveto
            16 3 7 4 11 hvcurveto
            21 56 86 -4 63 hhcurveto
            52 52 -3 -13 49 hvcurveto
            -3 9 4 -8 12 hhcurveto
            43 hlineto
            13 7 5 11 hvcurveto
            endchar
          </CharString>
          <CharString index="121">
            809 -21 66 639 -20 return
          </CharString>
          <CharString index="122">
            21 46 callgsubr
            return
          </CharString>
          <CharString index="123">
            329 rmoveto
            74 0 278 -251 -251 0 -279 -73 -75 0 -275 251 251 0 275 75 vhcurveto
            -80 11 rmoveto
            -114 0 -184 -171 -171 0 184 114 112 0 166 171 171 0 -166 -112 vhcurveto
            endchar
          </CharString>
          <CharString index="124">
            319 15 callsubr
            return
          </CharString>
          <CharString index="125">
            33 -33 48 51 48 return
          </CharString>
          <CharString index="126">
            228 vlineto
            15 -12 12 -15 vhcurveto
            -27 hlineto
            -14 -12 -12 -15 hvcurveto
            -228 vlineto
            -15 12 -12 14 vhcurveto
            27 hlineto
            15 12 12 15 hvcurveto
            return
          </CharString>
          <CharString index="127">
            17 callsubr
            92 -21 107 31 callgsubr
            142 return
          </CharString>
          <CharString index="128">
            vlineto
            133 callsubr
            hvcurveto
            -4 vlineto
            -17 14 -14 17 vhcurveto
            return
          </CharString>
          <CharString index="129">
            hlineto
            18 0 26 -37 -38 0 -25 -19 vhcurveto
            return
          </CharString>
          <CharString index="130">
            12 -24 18 -10 9 vhcurveto
            22 -23 -28 40 -23 hhcurveto
            -43 99 callsubr
            -2 hvcurveto
            -7 -1 -4 -6 -6 vvcurveto
            -11 15 -8 8 -7 vhcurveto
            58 -47 21 -17 rlineto
            -7 9 5 -4 13 hhcurveto
            22 hlineto
            10 9 3 11 hvcurveto
            return
          </CharString>
          <CharString index="131">
            vhcurveto
            5 322 192 185 58 50 rrcurveto
            26 23 4 3 16 vvcurveto
            endchar
          </CharString>
          <CharString index="132">
            694 -21 70 -70 72 399 72 113 70 return
          </CharString>
          <CharString index="133">
            35 callgsubr
            112 94 return
          </CharString>
          <CharString index="134">
            34 callgsubr
            -516 417 rmoveto
            return
          </CharString>
          <CharString index="135">
            -4 callgsubr
            -417 hmoveto
            -4 callgsubr
            return
          </CharString>
          <CharString index="136">
            -8 -9 1 -8 hhcurveto
            -6 -6 -1 -1 -6 hvcurveto
            -16 -3 -9 -14 -14 vvcurveto
            return
          </CharString>
          <CharString index="137">
            hstemhm
            25 callgsubr
            return
          </CharString>
          <CharString index="138">
            66 58 -11 -36 67 hvcurveto
            13 -7 4 0 0 vvcurveto
            12 1 6 23 5 hvcurveto
            1 7 6 30 5 vvcurveto
            9 -5 3 -2 1 vhcurveto
            -5 3 -60 18 -55 8 rrcurveto
            1 -9 -39 6 -55 hhcurveto
            return
          </CharString>
          <CharString index="139">
            625 71 callgsubr
            return
          </CharString>
          <CharString index="140">
            hlineto
            50 callsubr
            return
          </CharString>
          <CharString index="141">
            rmoveto
            121 -81 88 -92 -94 -80 -90 -118 -121 82 -88 92 94 79 91 117 vhcurveto
            return
          </CharString>
          <CharString index="142">
            -20 -10 -20 -11 -17 -14 -54 -44 rcurveline
            hintmask 10010000
            14 -17 rlineto
            41 49 53 30 51 hhcurveto
            40 29 -17 -20 35 hvcurveto
            -17 29 31 -17 40 hhcurveto
            hintmask 01000000
            25 26 8 10 22 hvcurveto
            return
          </CharString>
          <CharString index="143">
            -12 -9 -9 -12 hvcurveto
            -24 vlineto
            -12 9 -9 12 vhcurveto
            return
          </CharString>
          <CharString index="144">
            rrcurveto
            -7 -7 -4 -10 -11 vvcurveto
            -22 17 -18 23 11 10 5 7 7 vhcurveto
            57 59 128 -30 102 -23 rrcurveto
            -10 42 43 -8 43 hhcurveto
            96 65 93 102 hvcurveto
            endchar
          </CharString>
          <CharString index="145">
            813 21 -21 323 66 295 -20 return
          </CharString>
          <CharString index="146">
            hmoveto
            -7 callsubr
            return
          </CharString>
          <CharString index="147">
            -29 callsubr
            hintmask 00110000
            return
          </CharString>
          <CharString index="148">
            -13 -10 -8 -10 -19 23 0 6 7 45 1 14 37 hvcurveto
            -309 -81 vlineto
            -9 -23 0 -18 -20 22 0 10 hvcurveto
            222 hlineto
            9 23 0 19 hvcurveto
            return
          </CharString>
          <CharString index="149">
            725 174 rmoveto
            22 -18 18 -22 -22 -18 -18 -22 -58 -29 -57 -52 -37 -37 7 9 -36 vhcurveto
            -68 16 -73 16 -66 -1 27 40 21 45 9 47 return
          </CharString>
          <CharString index="150">
            -85 -48 -61 -52 -7 -91 0 145 146 90 0 8 53 47 -63 -82 vhcurveto
            return
          </CharString>
          <CharString index="151">
            46 callsubr
            410 80 return
          </CharString>
          <CharString index="152">
            74 77 269 80 return
          </CharString>
          <CharString index="153">
            hstemhm
            112 94 return
          </CharString>
          <CharString index="154">
            118 callsubr
            -525 -75 callsubr
            414 111 vlineto
            50 callsubr
            return
          </CharString>
          <CharString index="155">
            479 -10 65 332 65 22 62 return
          </CharString>
          <CharString index="156">
            hlineto
            -18 -14 -14 -17 hvcurveto
            -425 vlineto
            return
          </CharString>
          <CharString index="157">
            51 callgsubr
            hvcurveto
            return
          </CharString>
          <CharString index="158">
            833 -10 52 callgsubr
            return
          </CharString>
          <CharString index="159">
            -21 311 63 244 66 return
          </CharString>
          <CharString index="160">
            rmoveto
            -14 17 rlineto
            -41 -49 -53 -30 -51 hhcurveto
            -40 -29 17 20 -35 hvcurveto
            17 -29 -31 17 -40 hhcurveto
            hintmask 00100000
            -25 -26 -8 -10 -22 hvcurveto
            return
          </CharString>
          <CharString index="161">
            40 0 23 21 hvcurveto
            31 vlineto
            -52 33 48 -33 63 56 callgsubr
            -147 -101 -61 -89 vhcurveto
            return
          </CharString>
          <CharString index="162">
            524 75 callgsubr
            vhcurveto
            return
          </CharString>
          <CharString index="163">
            0 14 hvcurveto
            endchar
          </CharString>
          <CharString index="164">
            vlineto
            14 30 0 33 return
          </CharString>
          <CharString index="165">
            rmoveto
            43 -23 0 -21 vhcurveto
            -10 hlineto
            hintmask 00010000
            -21 -23 0 -43 -40 17 -4 28 hvcurveto
            8 hlineto
            28 17 4 40 hvcurveto
            hintmask 00100000
            return
          </CharString>
          <CharString index="166">
            806 21 -21 return
          </CharString>
          <CharString index="167">
            556 -10 65 416 65 return
          </CharString>
          <CharString index="168">
            -80 11 rmoveto
            -164 -100 -51 -85 -87 -98 53 162 158 104 45 81 81 104 -44 -159 vhcurveto
            endchar
          </CharString>
          <CharString index="169">
            hlineto
            -64 -176 rlineto
            -6 -18 -11 -29 -6 vvcurveto
            -18 15 -17 20 25 7 20 9 3 vhcurveto
            85 235 rlineto
            return
          </CharString>
          <CharString index="170">
            hstem
            100 113 callgsubr
            vstem
            570 261 rmoveto
            151 -101 119 -123 -50 -66 -19 -68 -52 vhcurveto
            return
          </CharString>
          <CharString index="171">
            85 -68 75 336 75 -68 85 hintmask 00101100
            return
          </CharString>
          <CharString index="172">
            vlineto
            8 -6 6 -8 vhcurveto
            return
          </CharString>
          <CharString index="173">
            3 1 66 24 19 vvcurveto
            return
          </CharString>
          <CharString index="174">
            417 21 -21 462 69 return
          </CharString>
          <CharString index="175">
            764 0 66 554 64 return
          </CharString>
          <CharString index="176">
            896 21 132 callsubr
            return
          </CharString>
          <CharString index="177">
            625 -10 64 420 62 return
          </CharString>
          <CharString index="178">
            819 337 rmoveto
            189 -170 158 -210 vhcurveto
            -282 -66 callgsubr
            return
          </CharString>
          <CharString index="179">
            63 -20 63 hstemhm
            return
          </CharString>
          <CharString index="180">
            1063 0 69 139 66 47 66 231 66 return
          </CharString>
          <CharString index="181">
            125 callgsubr
            24 vlineto
            12 -9 9 return
          </CharString>
          <CharString index="182">
            92 35 callgsubr
            return
          </CharString>
          <CharString index="183">
            -27 -1 -2 -24 hvcurveto
            -15 vlineto
            -43 0 -87 -110 -81 vhcurveto
            -18 -14 -42 -32 -67 vvcurveto
            return
          </CharString>
          <CharString index="184">
            -58 callsubr
            rrcurveto
            endchar
          </CharString>
          <CharString index="185">
            531 -250 28 458 28 458 28 hstem
            228 75 cntrmask 11100000
            455 return
          </CharString>
          <CharString index="186">
            625 -79 -21 90 63 357 63 0 63 return
          </CharString>
          <CharString index="187">
            799 -10 66 572 66 return
          </CharString>
          <CharString index="188">
            538 0 63 395 63 return
          </CharString>
          <CharString index="189">
            hstem
            125 97 vstem
            222 return
          </CharString>
          <CharString index="190">
            813 15 callsubr
            return
          </CharString>
          <CharString index="191">
            36 56 36 150 -20 hstemhm
            263 78 -15 78 61 78 hintmask 11010100
            465 return
          </CharString>
          <CharString index="192">
            570 261 rmoveto
            151 -102 119 -124 -91 -55 -60 -26 -20 vhcurveto
            return
          </CharString>
          <CharString index="193">
            -20 -16 -16 -20 -20 16 -16 20 return
          </CharString>
          <CharString index="194">
            rmoveto
            606 vlineto
            20 0 24 -39 return
          </CharString>
          <CharString index="195">
            108 callgsubr
            hstem
            return
          </CharString>
          <CharString index="196">
            8 -4 30 -37 -15 -24 -4 -8 -24 vhcurveto
            -26 -7 -18 -4 -16 -2 1 return
          </CharString>
          <CharString index="197">
            123 callsubr
            107 -20 hstem
            501 return
          </CharString>
          <CharString index="198">
            54 113 callgsubr
            return
          </CharString>
          <CharString index="199">
            hlineto
            -6 -6 -5 -7 -1 hvcurveto
            -7 -38 rlineto
            -10 6 -6 8 vhcurveto
            return
          </CharString>
          <CharString index="200">
            25 callsubr
            hstemhm
            69 83 return
          </CharString>
          <CharString index="201">
            -12 -35 0 -35 -35 35 0 12 hvcurveto
            return
          </CharString>
          <CharString index="202">
            69 20 -20 hstemhm
            hintmask 01000000
            return
          </CharString>
          <CharString index="203">
            625 -10 63 415 63 return
          </CharString>
          <CharString index="204">
            43 -23 43 46 callsubr
            return
          </CharString>
          <CharString index="205">
            6 -25 -23 0 -7 hhcurveto
            return
          </CharString>
          <CharString index="206">
            hlineto
            -3 -3 0 -1 return
          </CharString>
          <CharString index="207">
            212 hlineto
            181 129 -109 -173 hvcurveto
            endchar
          </CharString>
          <CharString index="208">
            5 5 vvcurveto
            14 return
          </CharString>
          <CharString index="209">
            hvcurveto
            -14 5 -6 -17 26 hhcurveto
            46 hlineto
            10 2 2 8 return
          </CharString>
          <CharString index="210">
            -20 114 97 hstemhm
            69 80 0 80 -42 80 -28 78 return
          </CharString>
          <CharString index="211">
            vlineto
            12 -10 9 -11 vhcurveto
            -25 hlineto
            -11 -9 -9 -12 hvcurveto
            return
          </CharString>
          <CharString index="212">
            87 hstem
            125 98 vstem
            223 return
          </CharString>
          <CharString index="213">
            28 69 71 vvcurveto
            -80 return
          </CharString>
          <CharString index="214">
            1153 14 -21 return
          </CharString>
          <CharString index="215">
            21 134 callgsubr
            return
          </CharString>
          <CharString index="216">
            451 -10 63 -63 65 403 63 149 -20 return
          </CharString>
          <CharString index="217">
            119 callgsubr
            hstemhm
            return
          </CharString>
          <CharString index="218">
            115 78 426 78 return
          </CharString>
          <CharString index="219">
            2 0 3 hhcurveto
            return
          </CharString>
          <CharString index="220">
            66 243 66 return
          </CharString>
          <CharString index="221">
            806 -199 69 316 66 442 -20 return
          </CharString>
          <CharString index="222">
            vhcurveto
            -113 68 hlineto
            19 0 9 20 12 vhcurveto
            return
          </CharString>
          <CharString index="223">
            -69 63 290 63 0 63 291 63 hstemhm
            return
          </CharString>
          <CharString index="224">
            47 80 370 80 vstem
            577 259 rmoveto
            return
          </CharString>
          <CharString index="225">
            98 callsubr
            -76 -74 -46 -89 hvcurveto
            return
          </CharString>
          <CharString index="226">
            hstemhm
            99 80 85 98 83 80 return
          </CharString>
          <CharString index="227">
            -34 -28 -53 -1 -21 -1 rrcurveto
            return
          </CharString>
          <CharString index="228">
            -187 -21 972 -20 hstem
            return
          </CharString>
          <CharString index="229">
            99 callsubr
            -3 hvcurveto
            return
          </CharString>
          <CharString index="230">
            625 593 -21 return
          </CharString>
          <CharString index="231">
            66 46 callsubr
            return
          </CharString>
          <CharString index="232">
            78 hstem
            -421 89 74 89 vstem
            -332 return
          </CharString>
          <CharString index="233">
            -160 64 282 66 227 63 hstemhm
            return
          </CharString>
          <CharString index="234">
            rmoveto
            20 -22 0 -10 vhcurveto
            -64 234 hlineto
            return
          </CharString>
          <CharString index="235">
            -45 -19 -45 -153 326 rlineto
            23 -11 return
          </CharString>
          <CharString index="236">
            hlineto
            -18 -15 -11 -12 -13 15 -10 18 hvcurveto
            return
          </CharString>
          <CharString index="237">
            799 -21 66 594 66 hstem
            92 94 return
          </CharString>
          <CharString index="238">
            0 63 364 63 -30 63 19 -20 hstemhm
            return
          </CharString>
          <CharString index="239">
            -21 615 69 return
          </CharString>
          <CharString index="240">
            -17 -14 -14 -17 return
          </CharString>
          <CharString index="241">
            66 552 66 return
          </CharString>
          <CharString index="242">
            66 618 -20 return
          </CharString>
        <CharString name=".notdef">
          280 endchar
        </CharString>
        <CharString name="A">
          -37 callsubr
          hstem
          47 711 vstem
          -106 callgsubr
          endchar
        </CharString>
        <CharString name="AE">
          73 callsubr
          hstem
          510 93 vstem
          -45 callsubr
          endchar
        </CharString>
        <CharString name="AE.dup">
          73 callsubr
          hstem
          510 93 vstem
          -45 callsubr
          endchar
        </CharString>
        <CharString name="AEacute">
          73 callsubr
          82 35 callgsubr
          510 93 hintmask 11110010
          -45 callsubr
          hintmask 00001100
          192 228 -107 callsubr
        </CharString>
        <CharString name="Aacute">
          -37 callsubr
          75 callsubr
          47 711 hintmask 11100100
          -106 callgsubr
          hintmask 00011000
          180 244 -107 callsubr
        </CharString>
        <CharString name="Abreve">
          -37 callsubr
          71 69 20 -20 73 callgsubr
          hintmask 11100100
          -106 callgsubr
          hintmask 00001000
          215 200 rmoveto
          18 -13 14 -19 -11 -6 -5 -5 -5 vhcurveto
          hintmask 00010000
          -70 callsubr
          hintmask 00001000
          5 -6 -6 4 -9 hhcurveto
          -19 -13 -14 -18 hvcurveto
          hintmask 00010000
          -25 callgsubr
        </CharString>
        <CharString name="Abreveacute">
          -37 callsubr
          71 69 0 69 101 -20 -24 callsubr
          -77 168 -59 callsubr
          -42 hlineto
          -170 -84 rlineto
          hintmask 00001000
          -10 -5 -6 -3 -9 vvcurveto
          -14 12 0 16 vhcurveto
          23 hlineto
          188 84 14 7 rlineto
          0 3 5 5 vvcurveto
          endchar
        </CharString>
        <CharString name="Abrevedotbelow">
          -37 callsubr
          71 69 20 -20 73 callgsubr
          -404 98 hintmask 11101100
          -106 callgsubr
          215 200 rmoveto
          18 -13 14 -19 -11 -6 -5 -5 -5 vhcurveto
          hintmask 00010000
          -70 callsubr
          hintmask 00001000
          5 -6 -6 4 -9 hhcurveto
          -19 -13 -14 -18 hvcurveto
          hintmask 00010000
          -60 callsubr
          vhcurveto
          hintmask 00000010
          -156 -958 -105 callsubr
        </CharString>
        <CharString name="Abrevegrave">
          -37 callsubr
          71 69 0 69 73 callgsubr
          hintmask 11100100
          -106 callgsubr
          hintmask 00010000
          215 200 -45 callgsubr
          hintmask 00001000
          10 -5 6 -3 -9 vvcurveto
          endchar
        </CharString>
        <CharString name="Abrevehookabove">
          -37 callsubr
          71 69 222 43 -23 43 73 callgsubr
          -380 18 callsubr
          hintmask 1110001000000000
          -106 callgsubr
          hintmask 0001100000000000
          215 200 -92 callsubr
          -83 212 -30 callsubr
          hintmask 0000010000000000
          -62 callsubr
          hintmask 0000100000000000
          -89 callsubr
          hintmask 0000010011000000
          -98 callgsubr
          hintmask 0000000101000000
          -86 callsubr
        </CharString>
        <CharString name="Abrevetilde">
          -37 callsubr
          71 69 75 63 -20 63 -24 callsubr
          3 175 -64 callsubr
        </CharString>
        <CharString name="Acaron">
          -37 callsubr
          82 -21 107 -20 73 callgsubr
          hintmask 11100100
          -106 callgsubr
          hintmask 00011000
          198 240 -58 callgsubr
        </CharString>
        <CharString name="Acircumflex">
          -37 callsubr
          82 -21 107 -20 73 callgsubr
          hintmask 11100100
          -106 callgsubr
          hintmask 00011000
          198 133 -98 callsubr
          endchar
        </CharString>
        <CharString name="Acircumflexacute">
          -37 callsubr
          82 -21 257 -20 73 callgsubr
          hintmask 11100100
          -106 callgsubr
          hintmask 00011000
          198 133 -44 callsubr
          243 -107 callsubr
        </CharString>
        <CharString name="Acircumflexdotbelow">
          -37 callsubr
          82 -21 107 -20 73 callgsubr
          -404 98 hintmask 11111100
          -106 callgsubr
          198 133 -98 callsubr
          hintmask 00000010
          -68 -891 -105 callsubr
        </CharString>
        <CharString name="Acircumflexgrave">
          -37 callsubr
          82 -21 107 -20 73 callgsubr
          hintmask 11100100
          -106 callgsubr
          hintmask 00011000
          198 133 -72 callsubr
        </CharString>
        <CharString name="Acircumflexhookabove">
          -37 callsubr
          82 -21 309 43 -23 43 73 callgsubr
          -257 18 callsubr
          hintmask 1110001000000000
          -106 callgsubr
          hintmask 0001100000000000
          198 133 10 callsubr
          hintmask 0000010011000000
          -98 callgsubr
          hintmask 0000000101000000
          -86 callsubr
        </CharString>
        <CharString name="Acircumflextilde">
          -37 callsubr
          82 -21 162 63 -20 63 -1 callgsubr
          198 133 -98 callsubr
          91 250 -64 callsubr
        </CharString>
        <CharString name="Adblgrave">
          -37 callsubr
          75 callsubr
          47 711 hintmask 11100100
          -106 callgsubr
          hintmask 00011000
          146 157 -102 callgsubr
        </CharString>
        <CharString name="Adieresis">
          -37 callsubr
          61 78 73 callgsubr
          -496 89 104 89 hintmask 11101000
          -106 callgsubr
          hintmask 00010110
          -42 173 rmoveto
          -106 callsubr
          193 hmoveto
          -106 callsubr
          endchar
        </CharString>
        <CharString name="Adotbelow">
          -37 callsubr
          73 callgsubr
          -404 98 hintmask 11110000
          -106 callgsubr
          hintmask 00001000
          59 -758 -105 callsubr
        </CharString>
        <CharString name="Agrave">
          -37 callsubr
          75 callsubr
          47 711 hintmask 11100100
          -106 callgsubr
          hintmask 00011000
          95 157 rmoveto
          -97 callsubr
        </CharString>
        <CharString name="Ahookabove">
          -37 callsubr
          243 43 -23 43 73 callgsubr
          -381 18 callsubr
          hintmask 1110010000000000
          -106 callgsubr
          hintmask 0001000000000000
          131 293 -30 callsubr
          hintmask 0000100000000000
          -62 callsubr
          hintmask 0001000000000000
          -89 callsubr
          hintmask 0000100110000000
          -98 callgsubr
          hintmask 0000001010000000
          -86 callsubr
        </CharString>
        <CharString name="Alpha">
          -37 callsubr
          hstem
          47 711 vstem
          -106 callgsubr
          endchar
        </CharString>
        <CharString name="Amacron">
          -37 callsubr
          81 66 73 callgsubr
          hintmask 11101000
          -106 callgsubr
          hintmask 00010000
          235 181 -95 callgsubr
        </CharString>
        <CharString name="Aogonek">
          114 callsubr
          hstem
          -18 callgsubr
          endchar
        </CharString>
        <CharString name="Aogonekacute">
          114 callsubr
          75 callsubr
          hintmask 11100000
          -18 callgsubr
          hintmask 00011000
          180 244 -107 callsubr
        </CharString>
        <CharString name="Aring">
          59 callsubr
          186 66 442 36 56 36 73 callgsubr
          -495 135 callgsubr
          hintmask 11101000
          -106 callgsubr
          hintmask 00110110
          72 156 -52 callgsubr
        </CharString>
        <CharString name="Aringacute">
          59 callsubr
          186 66 442 36 56 36 150 -20 73 callgsubr
          -495 78 -15 78 61 78 hintmask 1110010000000000
          -106 callgsubr
          hintmask 0011001010000000
          72 156 rmoveto
          -28 -36 0 -26 -25 -37 0 28 28 36 0 26 25 37 0 -28 vhcurveto
          78 -1 rmoveto
          hintmask 0001000100000000
          42 -72 23 -67 vhcurveto
          hintmask 0010101010000000
          -11 callgsubr
          hintmask 0000000100000000
          23 hlineto
          188 84 14 7 rlineto
          0 3 5 5 vvcurveto
          endchar
        </CharString>
        <CharString name="Atilde">
          -37 callsubr
          61 63 -20 63 73 callgsubr
          hintmask 11100100
          -106 callgsubr
          hintmask 00001000
          218 221 -82 callgsubr
        </CharString>
        <CharString name="B">
          -15 callsubr
        </CharString>
        <CharString name="Beta">
          -15 callsubr
        </CharString>
        <CharString name="C">
          80 callsubr
          hstem
          92 93 vstem
          -88 callsubr
          endchar
        </CharString>
        <CharString name="Cacute">
          80 callsubr
          72 35 callgsubr
          92 93 hintmask 11001000
          -88 callsubr
          hintmask 00110000
          -124 787 -107 callsubr
        </CharString>
        <CharString name="Ccaron">
          80 callsubr
          62 -21 107 -20 hstemhm
          92 93 hintmask 11001000
          -88 callsubr
          hintmask 00110000
          -106 783 -58 callgsubr
        </CharString>
        <CharString name="Ccedilla">
          130 callsubr
          195 94 120 72 callgsubr
          -194 -114 151 146 157 127 140 176 31 callsubr
          -242 -158 -177 -186 -182 153 -181 249 110 callgsubr
          -245 -108 -49 callgsubr
        </CharString>
        <CharString name="Ccircumflex">
          80 callsubr
          62 -21 107 -20 hstemhm
          92 93 hintmask 11001000
          -88 callsubr
          hintmask 00110000
          -106 676 -98 callsubr
          endchar
        </CharString>
        <CharString name="Cdotaccent">
          80 callsubr
          56 87 hstemhm
          92 93 205 98 hintmask 11010000
          -88 callsubr
          hintmask 00101000
          -246 735 -105 callsubr
        </CharString>
        <CharString name="Chi">
          -14 callgsubr
        </CharString>
        <CharString name="D">
          889 88 callsubr
          99 callgsubr
          vstem
          -42 callsubr
          endchar
        </CharString>
        <CharString name="Dcaron">
          889 108 callgsubr
          72 -21 107 -20 hstemhm
          99 callgsubr
          hintmask 11001100
          -42 callsubr
          hintmask 00110000
          -227 506 -58 callgsubr
        </CharString>
        <CharString name="Dcroat">
          -16 callsubr
        </CharString>
        <CharString name="Ddotbelow">
          889 108 callgsubr
          hstemhm
          113 92 57 98 367 92 hintmask 11101000
          -42 callsubr
          hintmask 00010000
          -367 -492 -105 callsubr
        </CharString>
        <CharString name="Delta">
          1042 0 88 606 -20 hstem
          68 905 vstem
          973 21 rmoveto
          5 -3 7 -3 4 vhcurveto
          -373 620 rlineto
          37 -22 -27 0 -24 hhcurveto
          -23 -28 0 -33 -20 hvcurveto
          -373 -620 rlineto
          -8 -13 -1 -1 -6 vvcurveto
          -21 20 0 14 vhcurveto
          837 hlineto
          14 20 0 21 hvcurveto
          -147 67 rmoveto
          -634 hlineto
          317 526 rlineto
          endchar
        </CharString>
        <CharString name="Dlinebelow">
          889 -189 66 123 134 callsubr
          hstemhm
          99 callgsubr
          hintmask 01111000
          -42 callsubr
          hintmask 10000000
          -190 -497 -95 callgsubr
        </CharString>
        <CharString name="E">
          -22 callgsubr
          hstem
          112 94 vstem
          -101 callgsubr
          endchar
        </CharString>
        <CharString name="Eacute">
          -22 callgsubr
          84 -21 115 -81 callsubr
          hintmask 00011000
          -166 812 -107 callsubr
        </CharString>
        <CharString name="Ebreve">
          -22 callgsubr
          63 69 20 -81 callsubr
          hintmask 00001000
          -131 768 rmoveto
          18 -13 14 -19 -11 -6 -5 -5 -5 vhcurveto
          hintmask 00010000
          -70 callsubr
          hintmask 00001000
          5 -6 -6 4 -9 hhcurveto
          -19 -13 -14 -18 hvcurveto
          hintmask 00010000
          -25 callgsubr
        </CharString>
        <CharString name="Ecaron">
          -22 callgsubr
          74 -21 107 -81 callsubr
          hintmask 00011000
          -148 808 -58 callgsubr
        </CharString>
        <CharString name="Ecircumflex">
          -22 callgsubr
          74 -21 107 -81 callsubr
          hintmask 00011000
          -148 701 -98 callsubr
          endchar
        </CharString>
        <CharString name="Ecircumflexacute">
          -22 callgsubr
          74 -21 257 -81 callsubr
          hintmask 00011000
          -148 701 -44 callsubr
          243 -107 callsubr
        </CharString>
        <CharString name="Ecircumflexdotbelow">
          -22 callgsubr
          74 -21 107 -20 46 callsubr
          134 98 hintmask 11111100
          -101 callgsubr
          -148 701 -98 callsubr
          hintmask 00000010
          -68 -891 -105 callsubr
        </CharString>
        <CharString name="Ecircumflexgrave">
          -22 callgsubr
          74 -21 107 -81 callsubr
          hintmask 00011000
          -148 701 -72 callsubr
        </CharString>
        <CharString name="Ecircumflexhookabove">
          -22 callgsubr
          74 -21 309 97 callsubr
          281 18 callsubr
          hintmask 1110001000000000
          -101 callgsubr
          hintmask 0001100000000000
          -148 701 10 callsubr
          hintmask 0000010011000000
          -98 callgsubr
          hintmask 0000000101000000
          -86 callsubr
        </CharString>
        <CharString name="Ecircumflextilde">
          -22 callgsubr
          74 -21 162 70 callgsubr
          hintmask 11100010
          -101 callgsubr
          hintmask 00010100
          -148 701 -98 callsubr
          91 250 -64 callsubr
        </CharString>
        <CharString name="Edblgrave">
          -22 callgsubr
          84 -21 115 -81 callsubr
          hintmask 00011000
          -166 725 -102 callgsubr
        </CharString>
        <CharString name="Edieresis">
          -22 callgsubr
          53 78 46 callsubr
          42 89 104 89 hintmask 11101000
          -101 callgsubr
          hintmask 00010110
          -388 741 rmoveto
          -106 callsubr
          193 hmoveto
          -106 callsubr
          endchar
        </CharString>
        <CharString name="Edotaccent">
          -22 callgsubr
          68 87 46 callsubr
          134 98 hintmask 11101000
          -101 callgsubr
          hintmask 00010100
          -287 760 -105 callsubr
        </CharString>
        <CharString name="Edotbelow">
          -22 callgsubr
          hstemhm
          112 94 134 98 hintmask 11110000
          -101 callgsubr
          hintmask 00001000
          -287 -190 -105 callsubr
        </CharString>
        <CharString name="Egrave">
          -22 callgsubr
          84 -21 115 -81 callsubr
          hintmask 00011000
          -251 725 rmoveto
          -97 callsubr
        </CharString>
        <CharString name="Ehookabove">
          -22 callgsubr
          235 97 callsubr
          157 18 callsubr
          hintmask 1110010000000000
          -101 callgsubr
          hintmask 0001000000000000
          -215 861 -30 callsubr
          hintmask 0000100000000000
          -62 callsubr
          hintmask 0001000000000000
          -89 callsubr
          hintmask 0000100110000000
          -98 callgsubr
          hintmask 0000001010000000
          -86 callsubr
        </CharString>
        <CharString name="Emacron">
          -22 callgsubr
          73 124 callsubr
          hintmask 11101000
          -101 callgsubr
          hintmask 00010000
          -111 749 -95 callgsubr
        </CharString>
        <CharString name="Eng">
          813 625 80 hstem
          112 94 400 94 vstem
          700 342 rmoveto
          183 -89 180 -164 -93 -87 -35 -59 -61 vhcurveto
          29 -91 callgsubr
          418 vlineto
          97 27 102 66 112 hhcurveto
          119 40 -145 -138 -127 -34 -133 -99 -20 hvcurveto
          -14 -3 -12 -12 -15 vvcurveto
          -26 vlineto
          -15 12 -12 14 2 vhcurveto
          148 18 79 170 173 vvcurveto
          endchar
        </CharString>
        <CharString name="Eogonek">
          778 -199 69 130 69 251 66 230 66 hstem
          112 94 vstem
          725 34 rmoveto
          35 -28 0 -16 vhcurveto
          -475 251 423 45 callgsubr
          33 -30 0 -14 hvcurveto
          -423 230 458 45 callgsubr
          33 -30 0 -14 hvcurveto
          -508 -48 callgsubr
          382 hlineto
          -36 -29 -23 -43 -43 -57 callsubr
          -68 -35 68 62 102 hvcurveto
          70 78 callgsubr
        </CharString>
        <CharString name="Eogonekacute">
          778 -199 69 130 69 251 66 230 66 84 26 callsubr
          hintmask 11110010
          725 34 rmoveto
          35 -28 0 -16 vhcurveto
          -475 251 423 45 callgsubr
          33 -30 0 -14 hvcurveto
          -423 230 458 45 callgsubr
          33 -30 0 -14 hvcurveto
          -508 -48 callgsubr
          382 hlineto
          -36 -29 -23 -43 -43 -57 callsubr
          -68 -35 68 62 102 hvcurveto
          70 hlineto
          15 29 0 34 hvcurveto
          hintmask 00001100
          -166 812 -107 callsubr
        </CharString>
        <CharString name="Epsilon">
          -22 callgsubr
          hstem
          112 94 vstem
          -101 callgsubr
          endchar
        </CharString>
        <CharString name="Ereversed">
          -22 callgsubr
          hstem
          631 94 vstem
          725 44 rmoveto
          594 vlineto
          36 -10 8 -34 vhcurveto
          -508 hlineto
          -14 -30 0 -33 -33 30 0 14 hvcurveto
          458 -230 -423 hlineto
          -14 -30 0 -33 -33 30 0 14 hvcurveto
          423 -251 -475 hlineto
          -16 -28 0 -35 -34 29 0 15 hvcurveto
          525 hlineto
          36 8 10 34 hvcurveto
          endchar
        </CharString>
        <CharString name="Eta">
          38 callsubr
          hstem
          112 94 400 94 vstem
          -73 callsubr
          endchar
        </CharString>
        <CharString name="Eth">
          -16 callsubr
        </CharString>
        <CharString name="Etilde">
          -22 callgsubr
          53 63 -20 63 -80 callgsubr
          hintmask 00001000
          -128 789 -82 callgsubr
        </CharString>
        <CharString name="Euro">
          748 -21 66 196 66 70 66 146 66 -16 66 hstemhm
          161 94 hintmask 11101100
          685 49 rmoveto
          -4 44 rlineto
          7 -1 -6 6 -7 hhcurveto
          -3 -3 -1 -2 -3 hvcurveto
          -38 -46 -57 -20 -60 hhcurveto
          -66 -61 34 52 -42 hvcurveto
          -26 33 -19 37 -12 40 rrcurveto
          303 92 callgsubr
          -322 hlineto
          -1 12 -1 11 12 vvcurveto
          12 1 11 1 12 vhcurveto
          339 92 callgsubr
          -334 hlineto
          12 40 19 37 26 33 rrcurveto
          52 42 61 34 66 hhcurveto
          hintmask 00010000
          52 51 -18 -32 40 hvcurveto
          -2 2 4 -2 3 hhcurveto
          7 5 5 7 2 hvcurveto
          10 58 1 6 -3 6 -6 3 rlinecurve
          hintmask 11101100
          23 -53 -57 12 -58 hhcurveto
          -90 -85 -40 -67 -62 hvcurveto
          -40 -44 -29 -54 -15 -57 rrcurveto
          -88 92 callsubr
          83 hlineto
          -1 -12 -1 -11 -12 vvcurveto
          -12 1 -11 1 -12 vhcurveto
          -77 92 callsubr
          94 hlineto
          15 -57 29 -54 40 -44 rrcurveto
          -67 62 85 -40 90 hhcurveto
          66 64 20 37 54 hvcurveto
          4 3 2 5 5 vvcurveto
          endchar
        </CharString>
        <CharString name="F">
          743 21 -21 308 66 242 66 hstem
          112 94 vstem
          690 649 rmoveto
          33 -30 0 -14 vhcurveto
          -490 -48 callgsubr
          6 -57 callgsubr
          264 388 57 callsubr
          33 -30 0 -14 hvcurveto
          -388 242 440 27 callgsubr
          endchar
        </CharString>
        <CharString name="G">
          51 callsubr
          hstem
          92 93 483 80 vstem
          -99 callgsubr
          endchar
        </CharString>
        <CharString name="Gacute">
          51 callsubr
          72 35 callgsubr
          92 93 483 80 hintmask 11100110
          -99 callgsubr
          hintmask 00011000
          -161 795 -107 callsubr
        </CharString>
        <CharString name="Gamma">
          708 21 -21 616 66 hstem
          112 94 vstem
          655 649 rmoveto
          33 -30 0 -14 vhcurveto
          -455 -48 callgsubr
          6 -57 callgsubr
          572 405 57 callsubr
          hvcurveto
          endchar
        </CharString>
        <CharString name="Gbreve">
          51 callsubr
          51 69 20 -20 hstemhm
          92 93 483 80 hintmask 11100110
          -99 callgsubr
          hintmask 00001000
          -126 751 rmoveto
          18 -13 14 -19 -11 -6 -5 -5 -5 vhcurveto
          hintmask 00010000
          -70 callsubr
          hintmask 00001000
          5 -6 -6 4 -9 hhcurveto
          -19 -13 -14 -18 hvcurveto
          hintmask 00010000
          -25 callgsubr
        </CharString>
        <CharString name="Gcaron">
          51 callsubr
          62 -21 107 -20 hstemhm
          92 93 483 80 hintmask 11100110
          -99 callgsubr
          hintmask 00011000
          -143 791 -58 callgsubr
        </CharString>
        <CharString name="Gcedilla">
          833 13 callgsubr
          66 52 callgsubr
          hstem
          92 93 483 80 vstem
          -99 callgsubr
          -288 -189 -103 callsubr
        </CharString>
        <CharString name="Gcircumflex">
          51 callsubr
          62 -21 107 -20 hstemhm
          92 93 483 80 hintmask 11100110
          -99 callgsubr
          hintmask 00011000
          -143 684 -98 callsubr
          endchar
        </CharString>
        <CharString name="Gcommaaccent">
          833 13 callgsubr
          66 52 callgsubr
          hstemhm
          92 93 483 80 hintmask 00111110
          -99 callgsubr
          hintmask 11000000
          -288 -189 -103 callsubr
        </CharString>
        <CharString name="Gdotaccent">
          51 callsubr
          56 87 hstemhm
          92 93 183 98 202 80 hintmask 11101010
          -99 callgsubr
          hintmask 00010100
          -282 743 -105 callsubr
        </CharString>
        <CharString name="H">
          38 callsubr
          hstem
          112 94 400 94 vstem
          -73 callsubr
          endchar
        </CharString>
        <CharString name="H_uni0303">
          38 callsubr
          71 70 callgsubr
          400 94 hintmask 11100110
          -73 callsubr
          hintmask 00001000
          -85 779 -82 callgsubr
        </CharString>
        <CharString name="Hbar">
          813 21 -21 323 66 91 66 138 -20 hstem
          112 94 400 94 vstem
          753 511 rmoveto
          4 vlineto
          17 -14 14 -17 vhcurveto
          -22 94 hlineto
          -60 callgsubr
          -94 -400 94 -63 callsubr
          -94 -22 21 callsubr
          22 -436 hlineto
          -62 callgsubr
          6 -57 callgsubr
          279 400 -279 -67 callsubr
          6 -57 callgsubr
          436 22 vlineto
          17 14 14 17 hvcurveto
          -147 -122 rmoveto
          -400 91 400 hlineto
          endchar
        </CharString>
        <CharString name="Hbrevebelow">
          813 -200 69 20 -20 152 -21 323 66 295 -20 46 callsubr
          400 94 hintmask 00111110
          -73 callsubr
          hintmask 01000000
          -88 -187 -69 callsubr
        </CharString>
        <CharString name="Hcircumflex">
          38 callsubr
          92 -21 107 -20 46 callsubr
          400 94 hintmask 11100110
          -73 callsubr
          hintmask 00011000
          -105 691 -98 callsubr
          endchar
        </CharString>
        <CharString name="Hdieresis">
          38 callsubr
          71 78 46 callsubr
          60 89 104 89 58 94 hintmask 11101001
          -73 callsubr
          hintmask 00010110
          -345 731 rmoveto
          -106 callsubr
          193 hmoveto
          -106 callsubr
          endchar
        </CharString>
        <CharString name="Hdotbelow">
          38 callsubr
          46 callsubr
          152 98 150 94 hintmask 11110100
          -73 callsubr
          hintmask 00001000
          -244 -200 -105 callsubr
        </CharString>
        <CharString name="I">
          17 callsubr
          hstem
          112 94 vstem
          206 44 rmoveto
          596 -91 callgsubr
          endchar
        </CharString>
        <CharString name="I.alt">
          319 0 80 524 80 hstem
          112 94 vstem
          -4 callsubr
          160 hlineto
          22 18 18 22 hvcurveto
          endchar
        </CharString>
        <CharString name="I_J">
          864 -21 66 639 -20 hstem
          112 94 475 92 vstem
          206 44 rmoveto
          596 -91 callgsubr
          567 103 -50 callgsubr
          endchar
        </CharString>
        <CharString name="I_J.alt">
          864 -21 66 -45 80 -8 80 452 80 46 callsubr
          475 92 hintmask 01011100
          -4 callsubr
          160 hlineto
          22 18 18 22 hvcurveto
          494 107 rmoveto
          493 vlineto
          40 -15 4 -31 -30 -16 -3 -41 vhcurveto
          hintmask 10100100
          -488 vlineto
          -53 -23 -54 -124 -22 -65 0 47 -68 vhcurveto
          7 -11 -2 0 -3 hhcurveto
          -12 -1 -8 -19 -4 hvcurveto
          -1 -5 -5 -29 -3 vvcurveto
          -11 6 -3 21 -8 vhcurveto
          -14 37 69 -20 82 hhcurveto
          115 103 43 125 hvcurveto
          endchar
        </CharString>
        <CharString name="Iacute">
          17 callsubr
          102 -21 115 -38 callgsubr
          hintmask 00111000
          162 802 -107 callsubr
        </CharString>
        <CharString name="Ibreve">
          17 callsubr
          81 69 20 -38 callgsubr
          hintmask 00010000
          159 758 -51 callsubr
        </CharString>
        <CharString name="Icaron">
          20 callsubr
          798 -58 callgsubr
        </CharString>
        <CharString name="Icircumflex">
          20 callsubr
          691 -98 callsubr
          endchar
        </CharString>
        <CharString name="Idblgrave">
          17 callsubr
          102 -21 115 31 callgsubr
          124 715 -102 callgsubr
        </CharString>
        <CharString name="Idieresis">
          17 callsubr
          71 78 hstemhm
          19 89 4 94 6 89 hintmask 11001000
          206 44 rmoveto
          596 -91 callgsubr
          hintmask 00110100
          -98 731 rmoveto
          -106 callsubr
          193 hmoveto
          -106 callsubr
          endchar
        </CharString>
        <CharString name="Idieresisacute">
          17 callsubr
          71 78 75 callsubr
          19 89 4 94 6 89 hintmask 11000010
          206 44 rmoveto
          596 -91 callgsubr
          hintmask 00111101
          -98 731 rmoveto
          -106 callsubr
          193 hmoveto
          -106 callsubr
          29 210 -107 callsubr
        </CharString>
        <CharString name="Idotaccent">
          17 callsubr
          86 87 hstemhm
          111 98 -97 94 hintmask 11001000
          206 44 rmoveto
          596 -91 callgsubr
          hintmask 00110000
          3 750 -105 callsubr
        </CharString>
        <CharString name="Idotbelow">
          17 callsubr
          hstemhm
          111 98 -97 9 callgsubr
          3 -200 -105 callsubr
        </CharString>
        <CharString name="Igrave">
          17 callsubr
          102 -21 115 -38 callgsubr
          hintmask 00111000
          715 vmoveto
          -97 callsubr
        </CharString>
        <CharString name="Ihookabove">
          17 callsubr
          253 97 callsubr
          -72 18 callsubr
          hintmask 11001000
          12 callgsubr
          75 851 -30 callsubr
          hintmask 00010000
          -62 callsubr
          hintmask 00100000
          -89 callsubr
          hintmask 00010011
          -98 callgsubr
          hintmask 00000101
          -86 callsubr
        </CharString>
        <CharString name="Imacron">
          17 callsubr
          91 66 hstemhm
          112 9 callgsubr
          179 739 -95 callgsubr
        </CharString>
        <CharString name="Imacron.alt">
          17 callsubr
          91 66 hstemhm
          112 9 callgsubr
          75 739 -1 callsubr
        </CharString>
        <CharString name="Iogonek">
          319 -199 69 151 46 callgsubr
          hstem
          112 94 vstem
          2 callsubr
          endchar
        </CharString>
        <CharString name="Iogonek.alt">
          319 -199 69 130 80 524 80 hstem
          112 94 vstem
          -4 callsubr
          26 hlineto
          -34 -30 -26 -46 -39 -57 callsubr
          -48 -31 102 callgsubr
          11 21 16 19 18 15 rrcurveto
          74 hlineto
          22 18 18 22 hvcurveto
          endchar
        </CharString>
        <CharString name="Iogonekacute">
          319 -199 69 151 46 callgsubr
          102 26 callsubr
          hintmask 11100100
          2 callsubr
          hintmask 00011100
          93 989 -107 callsubr
        </CharString>
        <CharString name="Iota">
          17 callsubr
          hstem
          112 94 vstem
          206 44 rmoveto
          596 -91 callgsubr
          endchar
        </CharString>
        <CharString name="Itilde">
          17 callsubr
          71 63 -20 63 -39 callsubr
          hintmask 00010000
          162 779 -102 callsubr
        </CharString>
        <CharString name="J">
          120 callgsubr
          hstem
          393 92 vstem
          485 147 -50 callgsubr
          endchar
        </CharString>
        <CharString name="J_uni030C.cap">
          576.39131 -21 66 448 -21 125 87 hstem
          393 92 vstem
          485 147 -50 callgsubr
          133 475 -103 callsubr
        </CharString>
        <CharString name="Jacute">
          120 callgsubr
          102 35 callgsubr
          393 92 hintmask 11001000
          485 147 -50 callgsubr
          hintmask 00111000
          164 699 -107 callsubr
        </CharString>
        <CharString name="Jcircumflex">
          120 callgsubr
          92 -21 107 -20 hstemhm
          393 92 hintmask 11001000
          485 147 -50 callgsubr
          hintmask 00110000
          143 588 -98 callsubr
          endchar
        </CharString>
        <CharString name="K">
          840 15 callsubr
          hstem
          115 89 465 89 vstem
          -55 callsubr
          endchar
        </CharString>
        <CharString name="Kappa">
          840 15 callsubr
          hstem
          115 89 465 89 vstem
          -55 callsubr
          endchar
        </CharString>
        <CharString name="Kcedilla">
          840 118 callgsubr
          hstem
          115 89 465 89 vstem
          -55 callsubr
          -314 -157 -103 callsubr
        </CharString>
        <CharString name="Kcommaaccent">
          840 100 callgsubr
          89 465 89 hintmask 00111100
          -55 callsubr
          hintmask 11000000
          -314 -157 -103 callsubr
        </CharString>
        <CharString name="L">
          97 callgsubr
          hstem
          112 94 vstem
          -63 callgsubr
          endchar
        </CharString>
        <CharString name="L_uni0303">
          97 callgsubr
          71 70 callgsubr
          hintmask 11001000
          -63 callgsubr
          hintmask 00010000
          -287 790 -102 callsubr
        </CharString>
        <CharString name="Lacute">
          97 callgsubr
          102 26 callsubr
          hintmask 11001000
          -63 callgsubr
          hintmask 00111000
          -287 813 -107 callsubr
        </CharString>
        <CharString name="Lambda">
          736 108 callsubr
          hstem
          46 643 vstem
          689 23 rmoveto
          0 0 6 -5 12 vhcurveto
          -254 615 rlineto
          38 -16 -20 0 -27 hhcurveto
          -30 -17 -2 -38 -16 hvcurveto
          -253 -613 rlineto
          -5 -12 0 -6 0 vvcurveto
          -23 23 0 8 38 10 24 14 6 vhcurveto
          148 362 25 60 41 101 12 43 rlinecurve
          13 -44 41 -100 25 -62 146 -357 rcurveline
          -37 15 14 -4 37 hhcurveto
          20 21 0 23 hvcurveto
          endchar
        </CharString>
        <CharString name="Lcaron">
          708 0 66 427 -21 125 87 hstem
          112 94 vstem
          -63 callgsubr
          -293 589 -103 callsubr
        </CharString>
        <CharString name="Lcedilla">
          708 13 callgsubr
          76 135 callsubr
          hstem
          112 94 vstem
          -63 callgsubr
          -257 -171 -103 callsubr
        </CharString>
        <CharString name="Lcommaaccent">
          708 13 callgsubr
          76 135 callsubr
          46 callsubr
          hintmask 00111000
          -63 callgsubr
          hintmask 11000000
          -257 -171 -103 callsubr
        </CharString>
        <CharString name="Ldot">
          708 0 66 258 87 273 -20 hstem
          112 94 258 98 vstem
          -63 callgsubr
          -93 335 -105 callsubr
        </CharString>
        <CharString name="Ldotbelow">
          97 callgsubr
          46 callsubr
          100 98 hintmask 11100000
          -63 callgsubr
          hintmask 00010000
          -251 -189 -105 callsubr
        </CharString>
        <CharString name="Ldotbelowmacron">
          97 callgsubr
          91 124 callsubr
          100 98 hintmask 11011000
          -63 callgsubr
          -251 -189 rmoveto
          -104 callsubr
          hintmask 00100000
          -19 939 -95 callgsubr
        </CharString>
        <CharString name="Lslash">
          813 124 callgsubr
          hstem
          212 94 vstem
          755 33 rmoveto
          33 -30 0 -14 vhcurveto
          -405 290 hlineto
          203 155 11 8 1 14 -8 10 rlinecurve
          -12 15 -7 11 -13 2 -11 -8 rlinecurve
          -164 -125 rlineto
          202 -63 callsubr
          -274 vlineto
          -121 -93 -10 -8 -2 -13 8 -11 rlinecurve
          12 -15 7 -10 14 -2 10 8 rlinecurve
          82 63 rlineto
          -241 -67 callsubr
          455 27 callgsubr
          endchar
        </CharString>
        <CharString name="M">
          1021 15 callsubr
          hstem
          117 78 624 84 vstem
          -39 callgsubr
          endchar
        </CharString>
        <CharString name="Mdotbelow">
          1021 15 callsubr
          hstemhm
          117 78 267 98 259 84 vstemhm
          -39 callgsubr
          hintmask 00010000
          -343 -202 -105 callsubr
        </CharString>
        <CharString name="Mu">
          1021 15 callsubr
          hstem
          117 78 624 84 vstem
          -39 callgsubr
          endchar
        </CharString>
        <CharString name="N">
          83 callsubr
          hstem
          111 callsubr
          vstem
          -84 callsubr
          endchar
        </CharString>
        <CharString name="Nacute">
          83 callsubr
          102 -21 115 -20 122 callgsubr
          hintmask 11001100
          -84 callsubr
          hintmask 00110000
          -120 802 -107 callsubr
        </CharString>
        <CharString name="Ncaron">
          83 callsubr
          92 -21 107 -20 122 callgsubr
          hintmask 11001100
          -84 callsubr
          hintmask 00110000
          -102 798 -58 callgsubr
        </CharString>
        <CharString name="Ncedilla">
          813 118 callgsubr
          hstem
          111 callsubr
          vstem
          -84 callsubr
          -247 -182 -103 callsubr
        </CharString>
        <CharString name="Ncommaaccent">
          813 100 callgsubr
          78 426 78 hintmask 00111100
          -84 callsubr
          hintmask 11000000
          -247 -182 -103 callsubr
        </CharString>
        <CharString name="Ndotaccent">
          83 callsubr
          86 87 130 callgsubr
          hintmask 11010100
          -84 callsubr
          hintmask 00101000
          -241 750 -105 callsubr
        </CharString>
        <CharString name="Ndotbelow">
          83 callsubr
          130 callgsubr
          hintmask 11101000
          -84 callsubr
          hintmask 00010000
          -241 -200 -105 callsubr
        </CharString>
        <CharString name="Ntilde">
          83 callsubr
          71 63 -20 63 122 callgsubr
          hintmask 11001100
          -84 callsubr
          hintmask 00010000
          -82 779 -102 callsubr
        </CharString>
        <CharString name="Nu">
          83 callsubr
          hstem
          111 callsubr
          vstem
          -84 callsubr
          endchar
        </CharString>
        <CharString name="O">
          -5 callgsubr
          hstem
          69 94 638 94 vstem
          -103 callgsubr
          endchar
        </CharString>
        <CharString name="OE">
          -34 callsubr
        </CharString>
        <CharString name="OE.dup">
          -34 callsubr
        </CharString>
        <CharString name="Oacute">
          -5 callgsubr
          61 -21 115 -93 callsubr
          hintmask 00110000
          -148 492 -107 callsubr
        </CharString>
        <CharString name="Obreve">
          -5 callgsubr
          40 69 20 -93 callsubr
          hintmask 00010000
          -113 448 -51 callsubr
        </CharString>
        <CharString name="Ocaron">
          -5 callgsubr
          51 -21 107 -93 callsubr
          hintmask 00110000
          -130 488 -58 callgsubr
        </CharString>
        <CharString name="Ocircumflex">
          -5 callgsubr
          51 -21 107 -93 callsubr
          hintmask 00110000
          -130 381 -98 callsubr
          endchar
        </CharString>
        <CharString name="Ocircumflexacute">
          -5 callgsubr
          51 -21 257 -93 callsubr
          hintmask 00110000
          -130 381 -44 callsubr
          243 -107 callsubr
        </CharString>
        <CharString name="Ocircumflexdotbelow">
          -5 callgsubr
          51 -21 107 -20 hstemhm
          69 94 271 98 269 94 hintmask 11111010
          -103 callgsubr
          -130 381 -98 callsubr
          hintmask 00000100
          -68 -891 -105 callsubr
        </CharString>
        <CharString name="Ocircumflexgrave">
          -5 callgsubr
          51 -21 107 -93 callsubr
          hintmask 00110000
          -130 381 -72 callsubr
        </CharString>
        <CharString name="Ocircumflexhookabove">
          -5 callgsubr
          51 -21 309 62 callgsubr
          69 94 418 18 callsubr
          73 94 hintmask 1100010001000000
          -103 callgsubr
          hintmask 0011000000000000
          -130 381 -98 callsubr
          128 287 -30 callsubr
          hintmask 0000100000000000
          -62 callsubr
          hintmask 0001000000000000
          -89 callsubr
          hintmask 0000100110000000
          -98 callgsubr
          hintmask 0000001010000000
          -86 callsubr
        </CharString>
        <CharString name="Ocircumflextilde">
          -5 callgsubr
          51 -21 162 72 callsubr
          69 94 638 94 hintmask 11000110
          -103 callgsubr
          hintmask 00101000
          -130 381 -98 callsubr
          91 250 -82 callgsubr
        </CharString>
        <CharString name="Odblgrave">
          -5 callgsubr
          61 -21 115 -93 callsubr
          hintmask 00110000
          -148 405 -102 callgsubr
        </CharString>
        <CharString name="Odieresis">
          -5 callgsubr
          30 78 hstemhm
          69 94 179 89 104 89 177 94 hintmask 11010010
          -103 callgsubr
          hintmask 00101100
          -370 421 rmoveto
          -106 callsubr
          193 hmoveto
          -106 callsubr
          endchar
        </CharString>
        <CharString name="Odotbelow">
          -5 callgsubr
          hstemhm
          69 94 271 98 269 94 hintmask 11101000
          -103 callgsubr
          hintmask 00010000
          -269 -510 -105 callsubr
        </CharString>
        <CharString name="Ograve">
          -5 callgsubr
          61 -21 115 -93 callsubr
          hintmask 00110000
          -233 405 rmoveto
          -97 callsubr
        </CharString>
        <CharString name="Ohookabove">
          -5 callgsubr
          212 62 callgsubr
          69 94 294 18 callsubr
          197 94 hintmask 1100100010000000
          -103 callgsubr
          hintmask 0010000000000000
          -197 541 -30 callsubr
          hintmask 0001000000000000
          -62 callsubr
          hintmask 0010000000000000
          -89 callsubr
          hintmask 0001001100000000
          -98 callgsubr
          hintmask 0000010100000000
          -86 callsubr
        </CharString>
        <CharString name="Ohorn">
          69 callgsubr
          76 -20 hstemhm
          69 94 546 97 -6 94 hintmask 11111000
          -73 callgsubr
          hintmask 11010100
          -56 callsubr
          endchar
        </CharString>
        <CharString name="Ohornacute">
          69 callgsubr
          61 -21 36 -20 99 -20 hstemhm
          69 94 546 97 -6 94 hintmask 11010110
          -73 callgsubr
          hintmask 11000101
          -56 callsubr
          hintmask 00101000
          -182 490 -107 callsubr
        </CharString>
        <CharString name="Ohorndotbelow">
          69 callgsubr
          76 -20 hstemhm
          69 94 271 98 177 97 -6 94 hintmask 11110100
          -73 callgsubr
          hintmask 11010010
          -56 callsubr
          hintmask 00001000
          -268 -512 -105 callsubr
        </CharString>
        <CharString name="Ohorngrave">
          69 callgsubr
          61 -21 36 -20 99 -20 hstemhm
          69 94 546 97 -6 94 hintmask 11010110
          -73 callgsubr
          hintmask 11000101
          -56 callsubr
          hintmask 00101000
          -232 403 rmoveto
          -97 callsubr
        </CharString>
        <CharString name="Ohornhookabove">
          69 callgsubr
          76 -20 156 62 callgsubr
          69 94 294 18 callsubr
          105 97 -6 94 hintmask 1110010001000000
          -73 callgsubr
          hintmask 1100010000100000
          -56 callsubr
          hintmask 0001000000000000
          -196 539 -30 callsubr
          hintmask 0000100000000000
          -62 callsubr
          hintmask 0001000000000000
          -89 callsubr
          hintmask 0000100110000000
          -98 callgsubr
          hintmask 0000001010000000
          -86 callsubr
        </CharString>
        <CharString name="Ohorntilde">
          69 callgsubr
          30 72 callsubr
          69 94 546 97 -6 94 hintmask 11001100
          -73 callgsubr
          hintmask 11001010
          -56 callsubr
          hintmask 00010000
          -144 467 -102 callsubr
        </CharString>
        <CharString name="Ohungarumlaut">
          -5 callgsubr
          61 -21 115 -93 callsubr
          hintmask 00110000
          -319 492 -85 callgsubr
        </CharString>
        <CharString name="Omacron">
          -5 callgsubr
          50 66 hstemhm
          69 94 638 94 hintmask 11011000
          -103 callgsubr
          hintmask 00100000
          -93 429 -95 callgsubr
        </CharString>
        <CharString name="Omega">
          -23 callgsubr
        </CharString>
        <CharString name="Omicron">
          -5 callgsubr
          hstem
          69 94 638 94 vstem
          -103 callgsubr
          endchar
        </CharString>
        <CharString name="Oogonek">
          -5 callgsubr
          hstem
          69 94 638 94 vstem
          -17 callgsubr
          endchar
        </CharString>
        <CharString name="Oogonekacute">
          -5 callgsubr
          61 35 callgsubr
          69 94 638 94 hintmask 11001100
          -17 callgsubr
          hintmask 00110000
          -148 492 -107 callsubr
        </CharString>
        <CharString name="Orogate">
          965 69 94 638 94 vstem
          895 341 rmoveto
          186 -163 163 -219 14 vhcurveto
          88 vlineto
          17 -14 14 -17 133 callsubr
          vhcurveto
          -88 vlineto
          -219 -14 -163 -163 -186 vvcurveto
          -188 165 -159 217 -14 vhcurveto
          -88 vlineto
          -17 14 -14 17 17 14 14 17 vhcurveto
          88 vlineto
          217 14 165 159 188 vvcurveto
          -94 13 rmoveto
          -173 -132 -136 -187 -187 -132 136 173 167 136 119 183 183 136 -120 -166 vhcurveto
          endchar
        </CharString>
        <CharString name="Oslash">
          -37 callgsubr
        </CharString>
        <CharString name="Oslash.dup">
          -37 callgsubr
        </CharString>
        <CharString name="Oslashacute">
          972 -67 63 -17 63 600 63 46 -20 35 35 callgsubr
          69 89 655 89 hintmask 10110011
          902 341 rmoveto
          97 -48 107 -99 73 vhcurveto
          58 73 rlineto
          8 9 6 7 11 vvcurveto
          18 -16 15 -17 -15 -6 -8 -9 -9 vhcurveto
          -64 -80 rlineto
          45 -89 -79 6 -46 hhcurveto
          -239 -178 -171 -193 -129 77 -97 70 -50 hvcurveto
          -40 -51 -12 -13 -5 -5 rrcurveto
          -10 -13 -5 -7 -10 vvcurveto
          -17 15 -16 18 15 6 7 10 9 vhcurveto
          65 80 rlineto
          hintmask 01100011
          -38 71 77 -13 65 hhcurveto
          236 181 166 196 hvcurveto
          -244 263 rmoveto
          -400 -488 rlineto
          -79 66 -21 90 69 vvcurveto
          176 129 125 198 79 52 -19 -19 42 vhcurveto
          155 -263 rmoveto
          -179 -132 -120 -195 -93 -57 27 11 -23 vhcurveto
          399 488 rlineto
          89 -73 12 -103 -51 vvcurveto
          hintmask 00001100
          -156 505 -107 callsubr
        </CharString>
        <CharString name="Otilde">
          -5 callgsubr
          30 63 -20 63 -92 callgsubr
          hintmask 00010000
          -110 469 -102 callsubr
        </CharString>
        <CharString name="P">
          0 callgsubr
        </CharString>
        <CharString name="Phi">
          903 21 -21 104 63 350 63 104 -20 hstem
          69 92 243 91 246 92 vstem
          833 342 rmoveto
          121 -145 103 -193 14 vhcurveto
          60 vlineto
          37 -12 7 -33 -30 -16 -3 -41 vhcurveto
          -61 vlineto
          -179 -11 -156 -100 -126 vvcurveto
          -126 156 -100 179 -11 vhcurveto
          117 callgsubr
          60 vlineto
          194 14 144 104 120 vvcurveto
          -429 -175 rmoveto
          -178 12 -65 86 77 vvcurveto
          76 64 87 179 12 vhcurveto
          337 -175 rmoveto
          -75 -63 -89 -183 -11 vhcurveto
          350 vlineto
          182 -11 64 -89 -75 vvcurveto
          endchar
        </CharString>
        <CharString name="Pi">
          813 21 -21 616 66 hstem
          112 94 400 94 vstem
          700 44 rmoveto
          594 vlineto
          -44 callgsubr
          -500 -48 callgsubr
          6 -57 callgsubr
          572 400 -572 -67 callsubr
          6 -57 callgsubr
          endchar
        </CharString>
        <CharString name="Psi">
          972 21 -21 105 64 373 64 78 -20 hstem
          163 91 185 91 187 91 vstem
          902 574 rmoveto
          32 -29 0 -20 -90 -45 -64 -145 -1 vhcurveto
          -1 -131 -71 -80 -115 -17 rrcurveto
          471 vlineto
          37 -12 7 -33 -30 -16 -3 -41 vhcurveto
          -471 vlineto
          -181 29 -4 155 73 vvcurveto
          3 -1 73 -34 54 vhcurveto
          50 -33 -45 0 -23 hhcurveto
          -20 -29 0 -32 -3 1 -25 31 -3 hvcurveto
          61 -5 1 -109 -6 vvcurveto
          1 -136 44 -155 231 -27 rrcurveto
          117 callgsubr
          61 vlineto
          70 7 83 24 55 65 rrcurveto
          69 81 1 102 10 vvcurveto
          36 1 32 11 34 vhcurveto
          15 42 18 3 22 2 rrcurveto
          16 2 11 15 14 vvcurveto
          endchar
        </CharString>
        <CharString name="Q">
          965 -118 -21 118 65 596 65 hstemhm
          69 92 581 92 -31 92 hintmask 11111000
          895 341 rmoveto
          195 -179 169 -234 -235 -178 -169 -195 -197 181 -165 232 16 54 0 20 67 vhcurveto
          26 -31 35 -36 32 -32 30 -30 rcurveline
          -9 15 8 0 17 hhcurveto
          20 hlineto
          14 18 0 18 9 -14 13 -10 10 hvcurveto
          -117 118 rlineto
          hintmask 01110100
          154 84 48 130 98 vvcurveto
          -92 hmoveto
          -86 -37 -111 -124 -64 vhcurveto
          -51 49 -39 41 -10 9 rrcurveto
          12 -13 0 1 -24 hhcurveto
          -13 hlineto
          -15 -17 0 -19 -5 0 -2 16 -18 hvcurveto
          90 -94 rlineto
          -10 -41 -28 0 -15 hhcurveto
          -186 -135 126 171 168 133 131 188 189 132 -132 -167 hvcurveto
          endchar
        </CharString>
        <CharString name="R">
          30 callgsubr
          hstem
          49 callgsubr
          vstem
          -94 callsubr
          endchar
        </CharString>
        <CharString name="Racute">
          30 callgsubr
          82 35 callgsubr
          49 callgsubr
          hintmask 11100111
          -94 callsubr
          hintmask 00011000
          -78 350 -107 callsubr
        </CharString>
        <CharString name="Rcaron">
          30 callgsubr
          72 -21 107 -20 hstemhm
          49 callgsubr
          hintmask 11100111
          -94 callsubr
          hintmask 00011000
          -60 346 -58 callgsubr
        </CharString>
        <CharString name="Rcedilla">
          816 50 callgsubr
          311 63 244 66 hstem
          49 callgsubr
          vstem
          -94 callsubr
          -205 -634 -103 callsubr
        </CharString>
        <CharString name="Rcommaaccent">
          816 50 callgsubr
          311 63 244 66 hstemhm
          49 callgsubr
          hintmask 00111111
          -94 callsubr
          hintmask 11000000
          -205 -634 -103 callsubr
        </CharString>
        <CharString name="Rdblgrave">
          30 callgsubr
          82 35 callgsubr
          49 callgsubr
          hintmask 11100111
          -94 callsubr
          hintmask 00011000
          -113 263 -102 callgsubr
        </CharString>
        <CharString name="Rdotaccent">
          30 callgsubr
          66 87 111 callgsubr
          hintmask 11101011
          -94 callsubr
          hintmask 00010100
          -200 298 -105 callsubr
        </CharString>
        <CharString name="Rdotbelow">
          30 callgsubr
          111 callgsubr
          hintmask 11110110
          -94 callsubr
          hintmask 00001000
          -200 -652 -105 callsubr
        </CharString>
        <CharString name="Rdotbelowmacron">
          30 callgsubr
          71 66 111 callgsubr
          hintmask 11101011
          -94 callsubr
          -200 -652 rmoveto
          43 -23 0 -21 vhcurveto
          -10 hlineto
          hintmask 00000100
          -21 -23 0 -43 -40 17 -4 28 hvcurveto
          8 hlineto
          28 17 4 40 hvcurveto
          hintmask 00010000
          177 939 -95 callgsubr
        </CharString>
        <CharString name="Rho">
          0 callgsubr
        </CharString>
        <CharString name="S">
          93 callsubr
          389 83 hintmask 01111100
          -99 callsubr
          hintmask 10000100
          -31 callsubr
          endchar
        </CharString>
        <CharString name="S_S">
          1389 -21 70 -70 72 399 72 113 70 hstemhm
          69 83 389 83 139 83 389 83 hintmask 01111100
          -99 callsubr
          hintmask 10110111
          -31 callsubr
          694 hmoveto
          71 -40 39 -20 21 vhcurveto
          -53 52 -76 15 -60 12 -122 24 -22 4 -36 24 rrcurveto
          -25 17 -18 24 31 vvcurveto
          56 76 57 121 75 53 -17 -39 59 vhcurveto
          -8 11 2 0 4 hhcurveto
          11 2 7 23 4 hvcurveto
          1 7 6 30 4 vvcurveto
          10 -1 1 -29 12 vhcurveto
          33 -76 -64 7 -57 hhcurveto
          -172 -109 -96 -99 -57 30 -38 26 -25 hvcurveto
          55 -50 59 -11 105 -21 82 -16 26 -5 37 -24 rrcurveto
          30 -20 22 -30 -36 vvcurveto
          hintmask 01000000
          -63 -77 -63 -120 -62 -89 13 62 -97 vhcurveto
          7 -11 -2 0 -3 hhcurveto
          -11 -2 -7 -23 -4 hvcurveto
          -1 -7 -6 -30 -4 vvcurveto
          hintmask 10000001
          -31 callsubr
          endchar
        </CharString>
        <CharString name="Sacute">
          25 callsubr
          61 35 callgsubr
          69 83 389 83 hintmask 01110011
          -99 callsubr
          hintmask 10000001
          -31 callsubr
          hintmask 00001100
          -106 658 -107 callsubr
        </CharString>
        <CharString name="Scaron">
          25 callsubr
          51 -21 107 -20 hstemhm
          69 83 389 83 hintmask 01110011
          -99 callsubr
          hintmask 10000001
          -31 callsubr
          hintmask 00001100
          -88 654 -58 callgsubr
        </CharString>
        <CharString name="Scedilla">
          93 callsubr
          109 83 197 83 hintmask 01111110
          -99 callsubr
          hintmask 10000110
          -31 callsubr
          -225 -246 -49 callgsubr
        </CharString>
        <CharString name="Scircumflex">
          25 callsubr
          51 -21 107 -20 hstemhm
          69 83 389 83 hintmask 01110011
          -99 callsubr
          hintmask 10000001
          -31 callsubr
          hintmask 00001100
          -88 547 -98 callsubr
          endchar
        </CharString>
        <CharString name="Sdotbelow">
          93 callsubr
          147 98 144 83 hintmask 01111010
          -99 callsubr
          hintmask 10000010
          -31 callsubr
          hintmask 00000100
          -227 -344 -105 callsubr
        </CharString>
        <CharString name="Sigma">
          903 0 72 546 66 hstem
          833 36 rmoveto
          36 -27 0 -17 vhcurveto
          -583 hlineto
          232 244 rlineto
          9 9 4 5 12 vvcurveto
          10 -3 6 -9 10 vhcurveto
          -226 250 rlineto
          576 45 callgsubr
          33 -30 0 -14 hvcurveto
          -676 hlineto
          -14 -30 0 -33 -13 5 -7 7 -7 hvcurveto
          263 -291 -263 -276 rlineto
          -7 -7 -5 -8 -10 vvcurveto
          -32 31 0 13 vhcurveto
          676 hlineto
          17 27 0 36 hvcurveto
          endchar
        </CharString>
        <CharString name="T">
          69 callsubr
          hstem
          401 94 vstem
          -71 callsubr
          endchar
        </CharString>
        <CharString name="T_uni0303">
          69 callsubr
          51 72 callsubr
          401 94 hintmask 11001000
          -71 callsubr
          hintmask 00010000
          -194 175 -102 callsubr
        </CharString>
        <CharString name="T_uni0308">
          69 callsubr
          51 78 hstemhm
          307 89 5 94 5 89 hintmask 11001000
          -71 callsubr
          hintmask 00110100
          -454 127 rmoveto
          -106 callsubr
          193 hmoveto
          -106 callsubr
          endchar
        </CharString>
        <CharString name="Tau">
          69 callsubr
          hstem
          401 94 vstem
          -71 callsubr
          endchar
        </CharString>
        <CharString name="Tcaron">
          69 callsubr
          72 -21 107 -20 hstemhm
          401 94 hintmask 11001000
          -71 callsubr
          hintmask 00110000
          -214 194 -58 callgsubr
        </CharString>
        <CharString name="Tcedilla">
          896 -122 -21 120 -20 64 132 callsubr
          hstemhm
          326 153 -78 94 hintmask 01110100
          -71 callsubr
          -371 -685 rmoveto
          14 101 callgsubr
          -6 hlineto
          -19 -1 -1 -16 -17 hvcurveto
          -23 -22 -32 -32 -12 -14 rrcurveto
          hintmask 10001000
          -15 -14 0 -2 -5 vvcurveto
          -14 11 0 17 vhcurveto
          15 hlineto
          19 1 1 13 13 hvcurveto
          61 67 rlineto
          16 18 0 2 5 vvcurveto
          endchar
        </CharString>
        <CharString name="Tdotbelow">
          69 callsubr
          hstemhm
          399 98 -96 94 hintmask 11010000
          -71 callsubr
          hintmask 00100000
          -353 -804 -105 callsubr
        </CharString>
        <CharString name="Theta">
          972 -21 64 255 89 255 63 hstem
          69 91 651 91 vstem
          902 341 rmoveto
          195 -180 169 -236 -239 -178 -171 -193 -198 184 -164 232 236 181 166 196 vhcurveto
          -91 hmoveto
          -172 -138 -126 -187 -191 -135 129 169 169 135 132 190 194 132 -135 -166 vhcurveto
          -70 1 rmoveto
          34 -8 11 -39 vhcurveto
          -417 hlineto
          -35 -12 -7 -37 -34 8 -11 39 hvcurveto
          417 hlineto
          35 12 7 37 hvcurveto
          endchar
        </CharString>
        <CharString name="Thorn">
          715 21 -21 178 66 258 66 116 -20 hstem
          114 91 351 89 vstem
          645 373 rmoveto
          101 -108 94 -153 vhcurveto
          -179 70 hlineto
          34 -6 12 -39 -36 -10 -8 -38 vhcurveto
          -592 vlineto
          -36 8 -10 38 38 7 11 35 vhcurveto
          132 182 vlineto
          145 113 91 104 hvcurveto
          -89 -1 rmoveto
          -67 -87 -61 -117 vhcurveto
          -147 258 129 hlineto
          120 102 -56 -74 hvcurveto
          endchar
        </CharString>
        <CharString name="Tlinebelow">
          896 -189 66 144 132 callsubr
          hstemhm
          401 94 hintmask 01110000
          -71 callsubr
          hintmask 10000000
          -177 -809 -95 callgsubr
        </CharString>
        <CharString name="U">
          14 callsubr
          hstem
          112 94 410 80 vstem
          -101 callsubr
          endchar
        </CharString>
        <CharString name="U_uni032F">
          809 -180 69 -68 -21 179 66 639 -20 44 callsubr
          hintmask 00111100
          -101 callsubr
          hintmask 10000000
          -86 -399 -69 callgsubr
        </CharString>
        <CharString name="Uacute">
          14 callsubr
          102 -21 115 -76 callgsubr
          hintmask 00110000
          -121 615 -107 callsubr
        </CharString>
        <CharString name="Ubreve">
          14 callsubr
          81 69 20 -76 callgsubr
          hintmask 00010000
          -86 571 -51 callsubr
        </CharString>
        <CharString name="Ucaron">
          14 callsubr
          92 -21 107 -76 callgsubr
          hintmask 00110000
          -103 611 -58 callgsubr
        </CharString>
        <CharString name="Ucircumflex">
          14 callsubr
          92 -21 107 -76 callgsubr
          hintmask 00110000
          -103 504 -98 callsubr
          endchar
        </CharString>
        <CharString name="Udblgrave">
          14 callsubr
          102 -21 115 -76 callgsubr
          hintmask 00110000
          -121 528 -102 callgsubr
        </CharString>
        <CharString name="Udieresis">
          14 callsubr
          71 78 46 callsubr
          58 89 104 89 70 80 hintmask 11010010
          -101 callsubr
          hintmask 00101100
          -9 callgsubr
          endchar
        </CharString>
        <CharString name="Udieresisacute">
          14 callsubr
          71 78 92 -21 115 -54 callgsubr
          29 210 -107 callsubr
        </CharString>
        <CharString name="Udieresiscaron">
          14 callsubr
          71 78 82 -21 107 -54 callgsubr
          47 206 -58 callgsubr
        </CharString>
        <CharString name="Udieresisgrave">
          14 callsubr
          71 78 92 -21 115 -54 callgsubr
          -56 123 rmoveto
          -97 callsubr
        </CharString>
        <CharString name="Udotbelow">
          14 callsubr
          46 callsubr
          150 98 162 80 hintmask 11101000
          -101 callsubr
          hintmask 00010000
          -242 -387 -105 callsubr
        </CharString>
        <CharString name="Ugrave">
          14 callsubr
          102 -21 115 -76 callgsubr
          hintmask 00110000
          -206 528 rmoveto
          -97 callsubr
        </CharString>
        <CharString name="Uhookabove">
          14 callsubr
          253 97 callsubr
          173 18 callsubr
          90 80 hintmask 1100100010000000
          -101 callsubr
          hintmask 0010000000000000
          -170 664 -30 callsubr
          hintmask 0001000000000000
          -62 callsubr
          hintmask 0010000000000000
          -89 callsubr
          hintmask 0001001100000000
          -98 callgsubr
          hintmask 0000010100000000
          -86 callsubr
        </CharString>
        <CharString name="Uhorn">
          809 -21 66 736 -20 hstem
          112 94 408 80 7 97 vstem
          -90 callgsubr
          endchar
        </CharString>
        <CharString name="Uhornacute">
          809 -21 66 721 -21 36 -20 99 -20 46 callsubr
          408 80 7 97 hintmask 10101110
          -90 callgsubr
          hintmask 01010000
          -258 148 -107 callsubr
        </CharString>
        <CharString name="Uhorndotbelow">
          809 -21 66 736 -20 46 callsubr
          150 98 160 80 7 97 hintmask 11101100
          -90 callgsubr
          hintmask 00010000
          -344 -854 -105 callsubr
        </CharString>
        <CharString name="Uhorngrave">
          809 -21 66 721 -21 36 -20 99 -20 46 callsubr
          408 80 7 97 hintmask 10101110
          -90 callgsubr
          hintmask 01010000
          -308 61 rmoveto
          -97 callsubr
        </CharString>
        <CharString name="Uhornhookabove">
          809 -21 66 736 -20 156 97 callsubr
          173 18 callsubr
          88 80 7 97 hintmask 1100100011000000
          -90 callgsubr
          hintmask 0010000000000000
          -272 197 -30 callsubr
          hintmask 0001000000000000
          -62 callsubr
          hintmask 0010000000000000
          -89 callsubr
          hintmask 0001001100000000
          -98 callgsubr
          hintmask 0000010100000000
          -86 callsubr
        </CharString>
        <CharString name="Uhorntilde">
          809 -21 66 690 70 callgsubr
          408 80 7 97 hintmask 10011100
          -90 callgsubr
          hintmask 00100000
          -185 125 -72 callgsubr
        </CharString>
        <CharString name="Uhungarumlaut">
          14 callsubr
          102 -21 115 -76 callgsubr
          hintmask 00110000
          -292 615 -85 callgsubr
        </CharString>
        <CharString name="Umacron">
          14 callsubr
          91 66 44 callsubr
          hintmask 11011000
          -101 callsubr
          hintmask 00100000
          -66 552 -95 callgsubr
        </CharString>
        <CharString name="Uogonek">
          809 -199 69 109 66 639 -20 hstem
          112 94 410 80 vstem
          696 231 rmoveto
          409 vlineto
          21 0 23 -40 -40 0 -23 -21 vhcurveto
          -406 vlineto
          -124 -107 -65 -101 -96 -106 60 129 vhcurveto
          406 -63 callsubr
          -409 vlineto
          -128 106 -99 135 -21 vhcurveto
          -26 -29 -18 -37 -32 -57 callsubr
          -47 -31 102 callgsubr
          7 12 7 12 9 10 rrcurveto
          159 1 129 108 143 vvcurveto
          endchar
        </CharString>
        <CharString name="Upsilon">
          972 21 -21 634 71 hstem
          69 84 286 94 285 84 vstem
          902 551 rmoveto
          82 -84 72 -106 -152 -57 -158 -91 -17 vhcurveto
          -1 hlineto
          114 -23 -61 135 -142 hhcurveto
          -107 -83 -72 -82 -35 28 0 12 10 28 0 29 2 hvcurveto
          86 6 90 3 15 hhcurveto
          139 40 -177 -109 hvcurveto
          -304 -67 callsubr
          6 -57 callgsubr
          304 vlineto
          109 39 177 139 44 62 -21 -64 5 vhcurveto
          -33 2 24 0 14 hhcurveto
          12 28 0 35 hvcurveto
          endchar
        </CharString>
        <CharString name="Uring">
          14 callsubr
          30 36 56 36 46 callsubr
          59 135 callgsubr
          71 80 hintmask 11001001
          -101 callsubr
          hintmask 00110110
          -229 527 -52 callgsubr
        </CharString>
        <CharString name="Utilde">
          14 callsubr
          71 63 -20 63 -76 callsubr
          hintmask 00010000
          -83 592 -102 callsubr
        </CharString>
        <CharString name="V">
          806 14 -21 691 -20 hstem
          774 662 rmoveto
          22 -22 0 -9 -38 -12 -20 -18 -9 vhcurveto
          -273 -564 -272 563 rlineto
          39 -19 -22 0 -28 hhcurveto
          -19 -20 0 -22 -3 0 -2 6 -12 hvcurveto
          298 -615 rlineto
          -37 18 23 0 26 hhcurveto
          27 23 0 37 18 hvcurveto
          298 615 rlineto
          6 12 0 2 3 vvcurveto
          endchar
        </CharString>
        <CharString name="W">
          106 callgsubr
          hstem
          -90 callsubr
          endchar
        </CharString>
        <CharString name="Wacute">
          106 callgsubr
          102 35 callgsubr
          hintmask 11000000
          -90 callsubr
          hintmask 00110000
          -377 186 -107 callsubr
        </CharString>
        <CharString name="Wcircumflex">
          106 callgsubr
          92 -21 107 -20 hstemhm
          hintmask 11000000
          -90 callsubr
          hintmask 00110000
          -359 75 -98 callsubr
          endchar
        </CharString>
        <CharString name="Wdieresis">
          106 callgsubr
          71 78 hstemhm
          436 89 104 89 hintmask 11000000
          -90 callsubr
          hintmask 00111000
          -599 115 rmoveto
          -106 callsubr
          193 hmoveto
          -106 callsubr
          endchar
        </CharString>
        <CharString name="Wgrave">
          106 callgsubr
          102 35 callgsubr
          hintmask 11000000
          -90 callsubr
          hintmask 00110000
          -462 99 rmoveto
          -97 callsubr
        </CharString>
        <CharString name="X">
          -14 callgsubr
        </CharString>
        <CharString name="Xi">
          833 0 78 237 78 210 78 hstem
          52 728 vstem
          773 642 rmoveto
          39 -24 0 -20 vhcurveto
          -626 91 callgsubr
          626 hlineto
          20 24 0 39 hvcurveto
          7 -603 rmoveto
          39 -24 0 -20 vhcurveto
          -640 91 callgsubr
          640 hlineto
          20 24 0 39 hvcurveto
          -87 315 rmoveto
          39 -24 0 -20 vhcurveto
          -466 91 callgsubr
          466 hlineto
          20 24 0 39 hvcurveto
          endchar
        </CharString>
        <CharString name="Y">
          53 callgsubr
          hstem
          356 92 vstem
          -80 callsubr
          endchar
        </CharString>
        <CharString name="Yacute">
          53 callgsubr
          102 35 callgsubr
          356 92 hintmask 11001000
          -80 callsubr
          hintmask 00110000
          -206 181 -107 callsubr
        </CharString>
        <CharString name="Ycircumflex">
          53 callgsubr
          92 -21 107 -20 hstemhm
          356 92 hintmask 11001000
          -80 callsubr
          hintmask 00110000
          -188 70 -98 callsubr
          endchar
        </CharString>
        <CharString name="Ydieresis">
          53 callgsubr
          71 78 hstemhm
          262 89 5 92 7 89 hintmask 11001000
          -80 callsubr
          hintmask 00110100
          -428 110 rmoveto
          -106 callsubr
          193 hmoveto
          -106 callsubr
          endchar
        </CharString>
        <CharString name="Ydotbelow">
          53 callgsubr
          hstemhm
          354 98 -96 92 hintmask 11010000
          -80 callsubr
          hintmask 00100000
          -327 -821 -105 callsubr
        </CharString>
        <CharString name="Ygrave">
          53 callgsubr
          102 35 callgsubr
          356 92 hintmask 11001000
          -80 callsubr
          hintmask 00110000
          -291 94 rmoveto
          -97 callsubr
        </CharString>
        <CharString name="Yhookabove">
          53 callgsubr
          253 62 callgsubr
          356 92 -71 18 callsubr
          hintmask 11001000
          -80 callsubr
          hintmask 00100000
          -255 230 -30 callsubr
          hintmask 00010000
          -62 callsubr
          hintmask 00100000
          -89 callsubr
          hintmask 00010011
          -98 callgsubr
          hintmask 00000101
          -86 callsubr
        </CharString>
        <CharString name="Ytilde">
          53 callgsubr
          71 72 callsubr
          356 92 hintmask 11001000
          -80 callsubr
          hintmask 00010000
          -168 158 -102 callsubr
        </CharString>
        <CharString name="Z">
          68 callsubr
          hstem
          -53 callsubr
          endchar
        </CharString>
        <CharString name="Zacute">
          68 callsubr
          82 35 callgsubr
          -24 callgsubr
          -149 813 -107 callsubr
        </CharString>
        <CharString name="Zcaron">
          68 callsubr
          72 -21 107 -20 hstemhm
          -24 callgsubr
          -131 809 -58 callgsubr
        </CharString>
        <CharString name="Zdotaccent">
          68 callsubr
          66 87 hstemhm
          333 98 -24 callgsubr
          -270 761 -105 callsubr
        </CharString>
        <CharString name="Zdotbelow">
          68 callsubr
          hstemhm
          333 98 -21 callsubr
          hintmask 00100000
          -270 -189 -105 callsubr
        </CharString>
        <CharString name="Zeta">
          68 callsubr
          hstem
          -53 callsubr
          endchar
        </CharString>
        <CharString name="a">
          -38 callsubr
          hstem
          45 callsubr
          vstem
          -107 callgsubr
          endchar
        </CharString>
        <CharString name="aacute">
          -38 callsubr
          74 -21 115 -89 callgsubr
          46 418 -107 callsubr
        </CharString>
        <CharString name="abreve">
          -38 callsubr
          66 69 20 -93 callgsubr
          hintmask 00001000
          81 387 rmoveto
          18 -13 14 -19 -11 -6 -5 -5 -5 vhcurveto
          hintmask 00010000
          -70 callsubr
          hintmask 00001000
          5 -6 -6 4 -9 hhcurveto
          -19 -13 -14 -18 hvcurveto
          hintmask 00010000
          -25 callgsubr
        </CharString>
        <CharString name="abreveacute">
          -38 callsubr
          67 69 0 69 101 -20 -33 callsubr
          -77 168 -59 callsubr
          -42 hlineto
          -170 -84 rlineto
          hintmask 00001000
          -10 -5 -6 -3 -9 vvcurveto
          -14 12 0 16 vhcurveto
          23 hlineto
          188 84 14 7 rlineto
          0 3 5 5 vvcurveto
          endchar
        </CharString>
        <CharString name="abrevedotbelow">
          -38 callsubr
          66 69 20 -20 hstemhm
          74 77 96 98 75 80 hintmask 11101101
          -107 callgsubr
          81 387 rmoveto
          18 -13 14 -19 -11 -6 -5 -5 -5 vhcurveto
          hintmask 00010000
          -70 callsubr
          hintmask 00001000
          5 -6 -6 4 -9 hhcurveto
          -19 -13 -14 -18 hvcurveto
          hintmask 00010000
          -60 callsubr
          vhcurveto
          hintmask 00000010
          -156 -815 -105 callsubr
        </CharString>
        <CharString name="abrevegrave">
          -38 callsubr
          67 69 0 69 -96 callgsubr
          hintmask 00010000
          81 388 -45 callgsubr
          hintmask 00001000
          10 -5 6 -3 -9 vvcurveto
          endchar
        </CharString>
        <CharString name="abrevehookabove">
          -38 callsubr
          67 69 222 62 callgsubr
          74 77 120 18 callsubr
          2 80 hintmask 1110001010100000
          -107 callgsubr
          hintmask 0001100000000000
          81 388 -92 callsubr
          -83 212 -30 callsubr
          hintmask 0000010000000000
          -62 callsubr
          hintmask 0000100000000000
          -89 callsubr
          hintmask 0000010011000000
          -98 callgsubr
          hintmask 0000000101000000
          -86 callsubr
        </CharString>
        <CharString name="abrevetilde">
          -38 callsubr
          67 69 75 63 -20 63 -33 callsubr
          3 175 3 callgsubr
        </CharString>
        <CharString name="acaron">
          -38 callsubr
          63 -21 137 -89 callgsubr
          63 443 -51 callgsubr
        </CharString>
        <CharString name="acircumflex">
          -38 callsubr
          63 -21 137 -89 callgsubr
          63 306 -65 callgsubr
          endchar
        </CharString>
        <CharString name="acircumflexacute">
          -38 callsubr
          63 -21 257 -89 callgsubr
          64 306 -44 callsubr
          243 -107 callsubr
        </CharString>
        <CharString name="acircumflexdotbelow">
          -38 callsubr
          63 -21 137 -20 hstemhm
          74 77 96 98 75 80 hintmask 11111101
          -107 callgsubr
          63 306 -65 callgsubr
          hintmask 00000010
          -67 -734 -105 callsubr
        </CharString>
        <CharString name="acircumflexgrave">
          -38 callsubr
          63 -21 107 -89 callgsubr
          64 306 -72 callsubr
        </CharString>
        <CharString name="acircumflexhookabove">
          -38 callsubr
          63 -21 309 62 callgsubr
          74 77 243 33 -33 48 -22 80 -7 48 hintmask 1110001001000000
          -107 callgsubr
          hintmask 0001100000000000
          64 306 -18 callsubr
        </CharString>
        <CharString name="acircumflextilde">
          -38 callsubr
          63 -21 162 63 -20 63 -13 callgsubr
          64 306 -98 callsubr
          91 250 3 callgsubr
        </CharString>
        <CharString name="acute">
          625 610 33 callgsubr
          hstem
          483 690 -107 callsubr
        </CharString>
        <CharString name="acute.cap">
          625 603 33 callgsubr
          hstem
          483 683 -107 callsubr
        </CharString>
        <CharString name="acute.dup">
          625 610 33 callgsubr
          hstem
          483 690 -107 callsubr
        </CharString>
        <CharString name="acute.ts1">
          625 611 -21 116 -20 hstem
          520 690 rmoveto
          13 -13 2 -10 vhcurveto
          -12 hlineto
          -6 -7 1 -7 hhcurveto
          -5 -5 -1 -1 -5 hvcurveto
          -6 -1 -6 -4 -6 -3 -30 -15 rcurveline
          -88 -43 -32 -16 rlineto
          -8 -4 -10 -3 -11 vvcurveto
          -8 6 -6 10 vhcurveto
          33 hlineto
          14 2 21 12 16 8 rrcurveto
          45 20 111 41 17 vvcurveto
          endchar
        </CharString>
        <CharString name="adblgrave">
          -38 callsubr
          74 -21 115 -89 callgsubr
          46 331 -102 callgsubr
        </CharString>
        <CharString name="adieresis">
          -38 callsubr
          72 78 hstemhm
          74 77 19 89 74 89 -2 80 hintmask 10101001
          500 44 rmoveto
          311 vlineto
          98 -78 83 -120 -48 -59 -6 -29 -66 vhcurveto
          -2 -2 -18 -8 -6 -4 rrcurveto
          -7 -4 0 -10 0 vvcurveto
          -11 0 -42 18 3 2 0 9 14 vhcurveto
          38 61 52 10 54 hhcurveto
          82 38 -58 -68 hvcurveto
          -40 vlineto
          -259 -6 -87 -83 -84 vvcurveto
          -72 55 -76 94 vhcurveto
          hintmask 00000010
          66 87 22 60 46 hvcurveto
          -28 vlineto
          -20 0 -24 39 vhcurveto
          hintmask 11001001
          39 0 24 20 hvcurveto
          -80 118 rmoveto
          -109 -140 0 -9 -64 -56 34 52 55 52 33 46 17 vhcurveto
          63 23 60 3 48 2 rrcurveto
          hintmask 00010110
          -161 376 -66 callsubr
        </CharString>
        <CharString name="adotbelow">
          -38 callsubr
          hstemhm
          74 77 96 98 75 80 hintmask 11110100
          -107 callgsubr
          hintmask 00001000
          -75 -428 -105 callsubr
        </CharString>
        <CharString name="ae">
          -47 callgsubr
        </CharString>
        <CharString name="ae.dup">
          -47 callgsubr
        </CharString>
        <CharString name="aeacute">
          903 -10 63 182 49 -38 67 callgsubr
          -49 49 61 callgsubr
          66 77 72 76 125 76 -76 77 307 66 hintmask 0001000000000000
          866 287 rmoveto
          157 -85 92 -120 -67 -66 -27 -69 -58 vhcurveto
          36 -21 -51 60 -105 hhcurveto
          -43 -61 -5 -30 -70 hvcurveto
          hintmask 0000100000000000
          -2 -2 -18 -8 -6 -4 rrcurveto
          hintmask 1101000110000000
          -7 -4 0 -10 0 vvcurveto
          -11 0 -42 18 3 2 0 9 14 vhcurveto
          37 59 52 11 57 hhcurveto
          78 42 -55 -71 hvcurveto
          -67 vlineto
          -144 -201 -35 -120 -60 45 -79 104 23 177 0 101 55 hvcurveto
          -48 38 73 -53 97 hhcurveto
          39 39 9 18 35 hvcurveto
          3 1 66 34 24 vvcurveto
          20 0 31 -17 -6 -2 -3 -10 -11 vhcurveto
          -56 -55 -64 -5 -26 hhcurveto
          hintmask 0010000001010000
          -98 -82 84 109 -7 hvcurveto
          330 hlineto
          21 23 0 41 hvcurveto
          -66 8 rmoveto
          hintmask 1011000100110000
          -307 hlineto
          109 14 76 69 78 hhcurveto
          131 7 -146 -32 1 hvcurveto
          -384 -135 rmoveto
          -107 -145 0 -9 -64 -55 29 48 56 87 24 24 6 vhcurveto
          hintmask 0100000001000000
          56 16 54 1 48 2 rrcurveto
          2 -25 2 -33 -17 vvcurveto
          hintmask 0000011000000000
          206 530 -107 callsubr
        </CharString>
        <CharString name="agrave">
          -38 callsubr
          74 -21 115 -89 callgsubr
          -39 331 rmoveto
          -97 callsubr
        </CharString>
        <CharString name="ahookabove">
          -38 callsubr
          233 62 callgsubr
          74 77 119 18 callsubr
          3 80 hintmask 1110010001000000
          -107 callgsubr
          hintmask 0001000000000000
          -3 475 -30 callsubr
          hintmask 0000100000000000
          -62 callsubr
          hintmask 0001000000000000
          -89 callsubr
          hintmask 0000100110000000
          -98 callgsubr
          hintmask 0000001010000000
          -86 callsubr
        </CharString>
        <CharString name="amacron">
          -38 callsubr
          78 66 98 callgsubr
          hintmask 11101100
          -107 callgsubr
          hintmask 00010000
          101 370 -95 callgsubr
        </CharString>
        <CharString name="ampersand">
          938 -21 66 607 63 hstem
          52 80 74 74 171 73 244 74 vstem
          868 26 rmoveto
          14 vlineto
          15 0 13 -14 -4 -5 -2 -1 -3 vhcurveto
          -16 -44 -42 -4 -26 hhcurveto
          -70 -54 29 12 -19 hvcurveto
          187 138 59 228 8 vvcurveto
          11 -9 2 -11 3 vhcurveto
          6 -23 -5 2 -3 hhcurveto
          -7 -6 -5 -6 -1 hvcurveto
          -22 -66 -52 -165 -164 -117 -46 36 -92 87 -52 96 rrcurveto
          91 66 93 69 80 vvcurveto
          77 -57 79 -91 -79 -91 -58 -111 -58 13 -63 29 -67 vhcurveto
          -127 -87 rlineto
          -2 -2 -67 -45 -77 vvcurveto
          -97 96 -71 132 64 87 13 51 91 vhcurveto
          -56 90 70 -8 48 hhcurveto
          15 37 0 13 53 hvcurveto
          32 8 1 1 25 vvcurveto
          -417 533 rmoveto
          -49 -65 -55 -74 -53 vhcurveto
          -32 76 0 69 7 vvcurveto
          64 52 34 44 51 24 -54 -39 vhcurveto
          10 -473 rmoveto
          -27 -55 -68 -14 -56 hhcurveto
          -90 -60 50 58 48 38 27 17 12 hvcurveto
          90 61 32 -57 57 -78 95 -80 rlinecurve
          endchar
        </CharString>
        <CharString name="anglearc">
          972 -117 -21 832 -20 hstem
          682 70 vstem
          902 35 rmoveto
          16 -10 13 -14 4 vhcurveto
          -147 47 rlineto
          14 53 7 55 55 vvcurveto
          55 -7 55 -14 53 vhcurveto
          147 47 rlineto
          14 4 10 13 16 vvcurveto
          19 -16 16 -19 -4 -3 -1 -1 -4 vhcurveto
          -146 -46 -24 62 -33 58 -42 53 rlinecurve
          8 -6 -10 5 -11 hhcurveto
          -20 -15 -16 -19 -8 3 -8 4 -6 hvcurveto
          37 -46 29 -51 21 -54 -550 -175 rcurveline
          -14 -4 -10 -13 -16 vvcurveto
          -16 10 -13 14 -4 vhcurveto
          550 -175 -21 -54 -29 -51 -37 -46 rlinecurve
          -4 -6 -3 -8 -8 vvcurveto
          -19 15 -16 20 11 10 5 8 6 vhcurveto
          42 53 33 58 24 62 146 -46 rcurveline
          -1 4 3 -1 4 hhcurveto
          19 16 16 19 hvcurveto
          -220 243 rmoveto
          -48 -6 -48 -12 -46 vhcurveto
          -445 142 445 142 rlineto
          12 -46 6 -48 -48 vvcurveto
          endchar
        </CharString>
        <CharString name="angleleft">
          486 -186 -21 971 -20 21 -20 hstemhm
          hintmask 00100000
          416 726 rmoveto
          3 vlineto
          20 -16 16 -19 vhcurveto
          hintmask 11000000
          -6 -1 -23 -4 -7 -23 -8 -19 rlinecurve
          -187 -404 rlineto
          -5 -11 -7 -12 -13 vvcurveto
          -20 21 -34 12 -24 vhcurveto
          166 -360 8 -20 9 -25 25 -2 rlinecurve
          23 13 16 19 22 -20 32 -11 23 hvcurveto
          -137 299 -8 17 -9 18 -7 17 rlinecurve
          -3 7 -7 8 8 vvcurveto
          9 9 13 4 9 vhcurveto
          11 22 10 23 10 22 47 105 52 103 46 106 5 11 7 12 2 12 rrcurveto
          endchar
        </CharString>
        <CharString name="angleright">
          486 -186 -21 972 -20 hstem
          347 280 rmoveto
          12 -7 11 -5 11 vhcurveto
          -187 405 -9 19 -7 24 -24 3 rlinecurve
          -3 -4 0 -1 -3 hvcurveto
          -18 -3 -11 -15 -17 vvcurveto
          -19 17 -24 9 -20 vhcurveto
          167 -362 rlineto
          3 -7 7 -10 -8 vvcurveto
          -8 -8 -13 -5 -9 vhcurveto
          -30 -65 -108 -234 -33 -73 rlineto
          -8 -14 -11 -19 -16 vvcurveto
          -19 16 -16 20 vhcurveto
          25 1 8 23 9 19 188 408 rcurveline
          5 11 7 12 13 vvcurveto
          endchar
        </CharString>
        <CharString name="aogonek">
          116 callgsubr
          98 callgsubr
          -77 77 hintmask 11111000
          549 -12 callsubr
          -68 -33 68 62 102 hvcurveto
          8 hlineto
          39 0 24 20 hvcurveto
          311 vlineto
          98 -78 83 -120 -48 -59 -6 -29 -66 vhcurveto
          -2 -2 -18 -8 -6 -4 rrcurveto
          -7 -4 0 -10 0 vvcurveto
          -11 0 -42 18 3 2 0 9 14 vhcurveto
          38 61 52 10 54 hhcurveto
          82 38 -58 -68 hvcurveto
          -40 vlineto
          -259 -6 -87 -83 -84 vvcurveto
          -72 55 -76 94 66 87 22 60 46 vhcurveto
          -28 vlineto
          hintmask 11010100
          -5 1 -4 -5 vvcurveto
          -54 -28 -50 -59 -58 -58 callsubr
          rrcurveto
          -129 305 rmoveto
          -109 -140 0 -9 -64 -56 34 52 55 52 33 46 17 vhcurveto
          hintmask 00001000
          63 23 60 3 48 2 rrcurveto
          endchar
        </CharString>
        <CharString name="aogonekacute">
          116 callgsubr
          74 -21 115 -20 98 callgsubr
          -77 77 hintmask 11100110
          549 -12 callsubr
          -68 -33 68 62 102 hvcurveto
          8 hlineto
          39 0 24 20 hvcurveto
          311 vlineto
          98 -78 83 -120 -48 -59 -6 -29 -66 vhcurveto
          -2 -2 -18 -8 -6 -4 rrcurveto
          -7 -4 0 -10 0 vvcurveto
          -11 0 -42 18 3 2 0 9 14 vhcurveto
          38 61 52 10 54 hhcurveto
          82 38 -58 -68 hvcurveto
          -40 vlineto
          -259 -6 -87 -83 -84 vvcurveto
          -72 55 -76 94 66 87 22 60 46 vhcurveto
          -28 vlineto
          hintmask 11000101
          -5 1 -4 -5 vvcurveto
          -54 -28 -50 -59 -58 -58 callsubr
          rrcurveto
          -129 305 rmoveto
          -109 -140 0 -9 -64 -56 34 52 55 52 33 46 17 vhcurveto
          hintmask 00000010
          63 23 60 3 48 2 rrcurveto
          hintmask 00011000
          46 418 -107 callsubr
        </CharString>
        <CharString name="aring">
          -38 callsubr
          42 36 56 36 hstemhm
          74 77 4 135 callgsubr
          -15 80 hintmask 1110010010000000
          -107 callgsubr
          hintmask 0001101100000000
          -63 370 -52 callgsubr
        </CharString>
        <CharString name="aringacute">
          -38 callsubr
          42 36 56 36 150 -20 hstemhm
          74 77 4 78 -15 78 61 78 -15 80 hintmask 1110001000100000
          -107 callgsubr
          hintmask 0001100101000000
          -63 370 rmoveto
          -28 -36 0 -26 -25 -37 0 28 28 36 0 26 25 37 0 -28 vhcurveto
          78 -1 rmoveto
          hintmask 0000100010000000
          42 -72 23 -67 vhcurveto
          hintmask 0001010101000000
          -11 callgsubr
          hintmask 0000000010100000
          23 hlineto
          188 84 14 7 rlineto
          0 3 5 5 vvcurveto
          endchar
        </CharString>
        <CharString name="asciicircum">
          556 583 -21 123 59 hstem
          -5 566 vstem
          561 584 rmoveto
          -283 160 -283 -160 11 -22 271 123 272 -123 rlineto
          endchar
        </CharString>
        <CharString name="asciitilde">
          556 221 43 -25 43 -8 43 -25 43 hstemhm
          hintmask 10010000
          555 318 53 callsubr
          hintmask 01000000
          35 callsubr
          hintmask 00100000
          20 10 20 11 17 14 rrcurveto
          endchar
        </CharString>
        <CharString name="asciitilde.low">
          556 0 43 -25 43 -8 43 -25 43 hstemhm
          0 555 hintmask 10010000
          555 97 53 callsubr
          hintmask 01001000
          35 callsubr
          hintmask 00101000
          20 10 20 11 17 14 rrcurveto
          endchar
        </CharString>
        <CharString name="asterisk">
          625 264 89 callgsubr
          hstem
          280 64 vstem
          542 390 rmoveto
          19 -12 6 -11 5 vhcurveto
          -175 83 175 84 rlineto
          11 5 12 6 19 vvcurveto
          16 -13 17 -19 -9 -1 -1 -8 -12 vhcurveto
          -160 -109 15 190 rlineto
          16 1 -2 26 -30 hhcurveto
          -26 -7 -19 -22 2 hvcurveto
          15 -191 -159 109 rlineto
          8 -11 -4 1 -8 hhcurveto
          -19 -13 -17 -16 -19 12 -6 11 -5 hvcurveto
          175 -83 -175 -84 rlineto
          -11 -5 -12 -6 -19 vvcurveto
          -13 7 -20 32 vhcurveto
          175 118 -15 -195 rlineto
          -5 vlineto
          -15 -4 16 -17 19 hhcurveto
          29 3 24 17 -1 hvcurveto
          -15 191 159 -109 rlineto
          -8 11 4 -1 8 hhcurveto
          19 13 17 16 hvcurveto
          endchar
        </CharString>
        <CharString name="asterisk.math">
          625 39 89 callgsubr
          hstemhm
          280 64 -53 42 hintmask 00100000
          542 166 rmoveto
          23 -24 6 -20 10 vhcurveto
          -49 25 -55 31 -50 17 rrcurveto
          1 vlineto
          29 10 31 18 29 14 65 31 rcurveline
          20 10 24 6 23 vvcurveto
          17 -13 17 -19 -18 -16 -16 -9 -13 vhcurveto
          -135 -93 rlineto
          hintmask 00010000
          3 21 1 21 1 21 rrcurveto
          hintmask 01100000
          3 45 8 47 45 vvcurveto
          19 -14 13 -18 -18 -14 -13 -19 vhcurveto
          hintmask 00010000
          -45 8 -47 3 -45 vhcurveto
          1 -21 1 -21 3 -21 -135 93 rcurveline
          9 -13 -16 16 -18 hhcurveto
          -19 -12 -17 -17 -24 24 -5 19 -10 hvcurveto
          hintmask 00100000
          49 -25 55 -31 50 -17 rrcurveto
          -1 vlineto
          -29 -10 -31 -18 -29 -14 -65 -31 rcurveline
          -19 -10 -24 -5 -24 vvcurveto
          -17 12 -17 19 18 16 16 9 13 vhcurveto
          135 93 rlineto
          hintmask 00010000
          -3 -21 -1 -21 -1 -21 rrcurveto
          hintmask 10100000
          -3 -45 -8 -47 -45 vvcurveto
          -19 14 -13 18 18 14 13 19 vhcurveto
          hintmask 00010000
          45 -8 47 -3 45 vhcurveto
          -1 21 -1 21 -3 21 135 -93 rcurveline
          -9 13 16 -16 18 hhcurveto
          19 13 17 17 hvcurveto
          endchar
        </CharString>
        <CharString name="at">
          833 -10 63 67 63 328 63 67 63 hstem
          69 76 164 76 302 76 vstem
          763 86 -59 callsubr
          -12 hlineto
          -16 -2 0 -5 -12 hvcurveto
          -37 -86 -80 -5 -39 hhcurveto
          -202 -141 141 153 162 153 132 185 49 84 -12 -88 39 hvcurveto
          2 -3 -49 31 -67 hhcurveto
          -126 -101 -102 -125 -126 102 -101 125 100 127 73 165 153 -35 193 -244 -232 -183 -163 -194 -192 181 -165 235 82 97 20 66 96 hvcurveto
          0 3 5 5 vvcurveto
          -76 261 rmoveto
          -92 -69 -72 -82 -82 -69 73 91 92 69 72 82 82 69 -73 -91 vhcurveto
          endchar
        </CharString>
        <CharString name="atilde">
          -38 callsubr
          58 63 -20 63 -96 callgsubr
          hintmask 00001000
          84 410 -55 callgsubr
          hintmask 00010100
          -18 10 0 19 vhcurveto
          6 hlineto
          21 4 0 16 3 hvcurveto
          hintmask 00001000
          27 5 47 0 4 hhcurveto
          25 23 -8 -11 29 hvcurveto
          hintmask 00010000
          -20 54 24 -4 22 hhcurveto
          74 46 45 43 hvcurveto
          endchar
        </CharString>
        <CharString name="b">
          115 callgsubr
          100 78 -78 80 -40 78 272 80 hintmask 01110000
          85 callsubr
          205 -65 callsubr
          -606 vlineto
          hintmask 00000100
          -21 0 -23 40 vhcurveto
          hintmask 10001010
          54 callsubr
          hintmask 00000100
          -47 -23 24 11 -12 hvcurveto
          hintmask 01001010
          57 callgsubr
        </CharString>
        <CharString name="backslash">
          531 750 -20 hstem
          471 -227 rmoveto
          0 0 6 -5 12 vhcurveto
          -359 935 rlineto
          12 -5 -4 12 -16 hhcurveto
          -13 -10 -10 -13 0 0 -6 5 -12 hvcurveto
          359 -935 rlineto
          -12 5 4 -12 16 hhcurveto
          13 10 10 13 hvcurveto
          endchar
        </CharString>
        <CharString name="baht">
          819 -66 66 0 66 258 63 231 66 0 66 hstemhm
          114 91 164 66 225 89 hintmask 10101111
          749 188 rmoveto
          84 -105 67 -133 19 vhcurveto
          101 21 102 52 79 vvcurveto
          94 -131 72 -148 7 vhcurveto
          46 104 callsubr
          -45 -211 vlineto
          -77 callsubr
          211 -45 hlineto
          109 callgsubr
          45 8 vlineto
          162 144 83 105 hvcurveto
          -122 321 rmoveto
          -58 -86 -46 -106 -14 vhcurveto
          224 vlineto
          94 -11 98 -36 -59 vvcurveto
          -258 -122 rmoveto
          -164 hlineto
          hintmask 01110111
          231 164 vlineto
          291 -429 rmoveto
          -73 -118 -43 -107 -6 vhcurveto
          255 vlineto
          112 -9 113 -51 -73 vvcurveto
          -291 -123 rmoveto
          -164 258 164 hlineto
          endchar
        </CharString>
        <CharString name="bar">
          295 750 -20 hstem
          124 46 vstem
          170 -214 rmoveto
          29 callgsubr
          endchar
        </CharString>
        <CharString name="bigcircle">
          684 88 callsubr
          0 66 552 -59 callgsubr
          endchar
        </CharString>
        <CharString name="blanksymbol">
          625 -10 63 313 63 39 63 163 -20 hstemhm
          22 78 0 78 -78 80 -40 78 272 80 hintmask 0111010000000000
          85 callsubr
          79 vlineto
          94 85 8 7 1 13 -8 9 rlinecurve
          -16 18 -8 9 -13 0 -8 -7 rlinecurve
          -50 -45 rlineto
          37 -65 callsubr
          -108 vlineto
          -93 -84 -9 -8 0 -13 7 -8 rlinecurve
          hintmask 0000100100000000
          17 -19 8 -8 13 -1 8 8 rlinecurve
          49 44 rlineto
          -409 vlineto
          -21 0 -23 40 vhcurveto
          hintmask 1000001010000000
          54 callsubr
          hintmask 0000000100000000
          -47 -23 24 11 -12 hvcurveto
          hintmask 0110001010000000
          57 callgsubr
        </CharString>
        <CharString name="braceleft">
          78 callsubr
          -236 rmoveto
          13 -10 1 -5 vhcurveto
          -83 5 -39 37 -12 41 rrcurveto
          -3 9 0 2 36 vvcurveto
          150 vlineto
          95 0 14 -25 30 vhcurveto
          -10 11 -20 23 -60 19 rrcurveto
          115 36 0 62 48 vvcurveto
          150 vlineto
          93 0 16 27 26 vhcurveto
          29 27 36 12 40 2 rrcurveto
          12 1 8 0 13 vvcurveto
          14 -10 0 -13 -108 -95 -49 -77 -1 vhcurveto
          -234 vlineto
          -29 0 -32 -37 -30 vhcurveto
          -21 -18 -32 -14 -43 -3 rrcurveto
          -12 -1 -8 0 -13 vvcurveto
          -13 10 -1 5 vhcurveto
          99 -6 29 -54 7 -25 rrcurveto
          3 -12 0 -6 -31 vvcurveto
          -204 vlineto
          -30 0 -44 55 -36 vhcurveto
          -34 53 74 -4 22 hhcurveto
          13 10 56 callsubr
        </CharString>
        <CharString name="braceright">
          78 callsubr
          250 rmoveto
          13 -10 1 -5 vhcurveto
          -112 6 -24 71 -1 27 rrcurveto
          234 vlineto
          31 0 43 -56 36 vhcurveto
          31 -47 -69 7 -32 hhcurveto
          -13 -11 0 -14 -13 10 -1 5 hvcurveto
          69 -4 51 -27 15 -52 rrcurveto
          3 -9 0 -2 -36 vvcurveto
          -150 vlineto
          -32 0 -51 3 -14 vhcurveto
          13 -49 46 -30 53 -16 rrcurveto
          -115 -34 0 -67 -45 vvcurveto
          -150 vlineto
          -32 0 -51 -3 -11 vhcurveto
          -17 -55 -59 -24 -54 -3 rrcurveto
          -12 -1 -8 0 -13 vvcurveto
          -14 11 0 13 106 97 48 78 1 vhcurveto
          234 vlineto
          29 0 32 37 30 vhcurveto
          36 30 43 4 16 1 rrcurveto
          12 1 8 0 13 vvcurveto
          endchar
        </CharString>
        <CharString name="bracketleft">
          352 -208 63 846 63 hstem
          134 77 vstem
          324 -177 rmoveto
          32 -31 0 -13 vhcurveto
          -69 846 69 hlineto
          51 callgsubr
          32 -31 0 -13 hvcurveto
          -102 -66 callgsubr
          -884 -67 callsubr
          102 36 callgsubr
        </CharString>
        <CharString name="bracketright">
          352 -208 63 846 63 hstem
          140 77 vstem
          217 -164 rmoveto
          884 vlineto
          -44 callgsubr
          -102 -3 callsubr
          69 -846 -69 -3 callsubr
          102 -57 callgsubr
          endchar
        </CharString>
        <CharString name="breve">
          625 602 95 callsubr
          518 659 -69 callsubr
        </CharString>
        <CharString name="breve.cap">
          625 582 95 callsubr
          518 639 -69 callsubr
        </CharString>
        <CharString name="breve.ts1">
          764 617 68 20 -20 hstemhm
          hintmask 01000000
          656 674 rmoveto
          12 -9 19 -23 -14 -10 -11 -3 -16 vhcurveto
          hintmask 10000000
          -39 -5 -40 0 -39 -1 rrcurveto
          -109 hlineto
          -42 -44 0 2 -42 hvcurveto
          -27 3 -24 -3 -24 14 rrcurveto
          hintmask 01000000
          2 -4 -6 2 -5 hhcurveto
          0 -4 0 -2 -1 vhcurveto
          -16 -2 -9 -14 -15 vvcurveto
          hintmask 10000000
          -63 126 9 51 -2 vhcurveto
          125 -1 rlineto
          75 hlineto
          71 100 3 55 hvcurveto
          endchar
        </CharString>
        <CharString name="brokenbar">
          295 750 -20 hstem
          124 46 vstem
          170 343 rmoveto
          371 vlineto
          14 0 22 -23 -23 0 -22 -14 vhcurveto
          -371 vlineto
          -17 8 -16 15 15 8 16 17 vhcurveto
          -557 vmoveto
          371 vlineto
          17 -8 16 -15 -15 -8 -16 -17 vhcurveto
          -371 38 callgsubr
          endchar
        </CharString>
        <CharString name="bullet">
          972 149 326 hstem
          323 326 37 callgsubr
          endchar
        </CharString>
        <CharString name="c">
          60 callsubr
          hstem
          54 80 vstem
          -77 callgsubr
          endchar
        </CharString>
        <CharString name="cacute">
          60 callsubr
          61 callgsubr
          54 80 hintmask 11001000
          -77 callgsubr
          hintmask 00110000
          -43 616 -107 callsubr
        </CharString>
        <CharString name="caron">
          625 82 callgsubr
          500 715 -51 callgsubr
        </CharString>
        <CharString name="caron.cap">
          90 callsubr
          679 -58 callgsubr
        </CharString>
        <CharString name="caron.ts1">
          764 587 -21 160 -20 hstem
          598 712 rmoveto
          7 -5 5 -8 2 vhcurveto
          -33 hlineto
          -11 -5 -6 -5 -8 hvcurveto
          -27 -18 -34 -24 -35 -26 -36 -21 rlinecurve
          -3 -4 -6 -5 -5 hhcurveto
          -8 -20 17 9 -13 hvcurveto
          27 -40 -67 55 -28 hhcurveto
          -21 122 callsubr
          -6 -2 -3 -5 -5 vvcurveto
          -16 30 -14 15 -12 vhcurveto
          96 -69 rlineto
          -13 18 21 -22 20 hhcurveto
          8 hlineto
          6 6 -1 6 hhcurveto
          24 21 24 12 19 hvcurveto
          46 34 96 59 17 vvcurveto
          endchar
        </CharString>
        <CharString name="ccaron">
          60 callsubr
          63 -21 137 -20 hstemhm
          54 80 hintmask 11001000
          -77 callgsubr
          hintmask 00110000
          -26 641 -51 callgsubr
        </CharString>
        <CharString name="ccedilla">
          60 callsubr
          hstemhm
          54 80 0 80 hintmask 11100000
          -77 callgsubr
          -153 -132 rmoveto
          14 101 callgsubr
          -6 hlineto
          -19 -1 -1 -16 -17 hvcurveto
          -23 -22 -32 -32 -12 -14 rrcurveto
          hintmask 00010000
          -15 -14 0 -2 -5 vvcurveto
          -14 11 0 17 vhcurveto
          15 hlineto
          19 1 1 13 13 hvcurveto
          61 67 rlineto
          16 18 0 2 5 vvcurveto
          endchar
        </CharString>
        <CharString name="ccircumflex">
          60 callsubr
          63 -21 137 -20 hstemhm
          54 80 hintmask 11001000
          -77 callgsubr
          hintmask 00110000
          -26 504 -65 callgsubr
          endchar
        </CharString>
        <CharString name="cdotaccent">
          60 callsubr
          67 87 hstemhm
          54 80 123 98 hintmask 11010000
          -77 callgsubr
          hintmask 00101000
          -165 573 -105 callsubr
        </CharString>
        <CharString name="cedilla">
          556 -122 -21 120 -20 hstem
          190 153 vstem
          343 -37 -49 callgsubr
        </CharString>
        <CharString name="cedilla.dup">
          556 -122 -21 120 -20 hstem
          190 153 vstem
          343 -37 -49 callgsubr
        </CharString>
        <CharString name="cent">
          556 -9 65 415 65 hstem
          54 80 139 66 102 66 vstem
          520 74 rmoveto
          13 0 41 -18 -6 -2 -3 -7 -9 vhcurveto
          -47 -41 -51 -17 -48 -4 rrcurveto
          415 vlineto
          57 -2 32 -13 43 -25 rrcurveto
          -10 15 2 0 4 hhcurveto
          11 2 10 11 2 hvcurveto
          1 6 5 22 5 vvcurveto
          9 -1 1 -24 13 vhcurveto
          -52 25 -38 11 -59 2 rrcurveto
          30 104 callsubr
          -34 vlineto
          -139 -23 -80 -125 -123 vvcurveto
          -133 91 -114 128 -21 vhcurveto
          -38 vlineto
          109 callgsubr
          36 vlineto
          24 1 37 6 41 17 rrcurveto
          24 11 55 29 19 vvcurveto
          -247 -14 rmoveto
          -83 20 -56 79 102 vvcurveto
          91 44 91 95 23 vhcurveto
          endchar
        </CharString>
        <CharString name="cent.oldstyle">
          60 callsubr
          hstemhm
          54 80 46 80 145 66 -66 80 -44 66 hintmask 10010100
          520 74 rmoveto
          13 0 41 -18 -6 -2 -3 -7 -9 vhcurveto
          -48 -55 -60 -15 -55 hhcurveto
          -19 -19 3 6 -17 hvcurveto
          125 402 rlineto
          hintmask 00001000
          31 -6 25 -11 30 -18 rrcurveto
          -10 15 2 0 4 hhcurveto
          hintmask 00000010
          11 2 10 11 2 hvcurveto
          1 6 5 22 5 vvcurveto
          9 -1 1 -24 13 vhcurveto
          hintmask 11110100
          -30 15 -26 10 -27 5 12 39 rcurveline
          10 3 -7 10 -11 hhcurveto
          -28 hlineto
          -12 -11 -8 -12 -3 hvcurveto
          -10 -31 rlineto
          -18 hlineto
          -168 -98 -139 -136 -98 49 -87 77 -48 hvcurveto
          -23 -74 rlineto
          -10 -3 7 -10 10 hhcurveto
          28 hlineto
          12 11 8 12 4 hvcurveto
          15 47 rlineto
          -7 23 25 -4 26 hhcurveto
          hintmask 01100010
          15 52 0 25 59 hvcurveto
          24 11 55 29 19 vvcurveto
          -202 397 rmoveto
          -117 -374 rlineto
          -42 37 -25 58 69 vvcurveto
          104 57 105 127 1 vhcurveto
          endchar
        </CharString>
        <CharString name="centigrade">
          1077 408 70 0 67 0 70 hstem
          1 70 1 70 66 70 92 94 457 70 cntrmask 11100000
          1013 53 rmoveto
          5 vlineto
          18 -1 29 -16 3 vhcurveto
          -17 -33 -26 -10 -25 hvcurveto
          -42 -18 -45 -7 -46 -1 rrcurveto
          -15 hlineto
          -82 -79 27 61 -61 hvcurveto
          -55 55 -32 76 78 vvcurveto
          10 vlineto
          162 5 136 125 163 hhcurveto
          70 60 -18 -32 64 hvcurveto
          -2 4 5 -2 4 hhcurveto
          12 2 13 9 2 hvcurveto
          6 39 rlineto
          1 3 0 3 3 vvcurveto
          33 -155 18 -82 -7 -6 0 -1 -7 vhcurveto
          -137 -16 -126 -52 -73 -145 rrcurveto
          -23 -47 -12 -52 -52 vvcurveto
          -212 191 -150 209 82 78 13 43 74 vhcurveto
          7 4 2 6 7 vvcurveto
          -735 494 rmoveto
          75 -62 63 -80 vhcurveto
          -9 hlineto
          -71 -10 -55 -56 -73 vvcurveto
          -75 62 -63 80 vhcurveto
          9 hlineto
          71 10 55 56 73 vvcurveto
          -70 -2 rmoveto
          -36 -33 -31 -35 vhcurveto
          -3 hlineto
          -33 1 -28 28 -4 32 rrcurveto
          3 -1 3 3 vvcurveto
          36 33 31 35 vhcurveto
          3 hlineto
          36 -1 30 -34 -35 vvcurveto
          endchar
        </CharString>
        <CharString name="circumflex">
          625 82 callgsubr
          500 578 -65 callgsubr
          endchar
        </CharString>
        <CharString name="circumflex.cap">
          90 callsubr
          572 -98 callsubr
          endchar
        </CharString>
        <CharString name="circumflex.dup">
          625 82 callgsubr
          500 578 -65 callgsubr
          endchar
        </CharString>
        <CharString name="colon">
          347 0 17 callgsubr
          -40 vlineto
          -27 2 -2 27 vhcurveto
          40 -40 callgsubr
          endchar
        </CharString>
        <CharString name="colonmonetary">
          130 callsubr
          220 66 123 72 callgsubr
          -7 -8 0 1 -7 hvcurveto
          593 17 vlineto
          31 callsubr
          -20 57 hlineto
          12 -9 9 -11 vhcurveto
          -25 hlineto
          -12 -9 -9 -12 hvcurveto
          -65 vlineto
          -193 -36 -121 -156 -163 vvcurveto
          -160 118 -158 196 -37 vhcurveto
          -65 vlineto
          -12 9 -9 12 vhcurveto
          25 hlineto
          11 125 callgsubr
          57 22 vlineto
          110 callgsubr
          -330 6 rmoveto
          -140 38 -80 126 122 vvcurveto
          131 89 119 131 36 vhcurveto
          endchar
        </CharString>
        <CharString name="comma">
          347 -118 -21 139 87 callgsubr
          28 rmoveto
          41 -48 callsubr
          -27 -125 rlineto
          -14 14 0 10 20 0 1 20 8 vhcurveto
          37 107 rlineto
          8 22 0 2 15 vvcurveto
          endchar
        </CharString>
        <CharString name="copyleft">
          684 88 callsubr
          0 66 552 -59 callgsubr
          -75 hmoveto
          105 -89 99 -136 vhcurveto
          -31 -22 -3 -5 hhcurveto
          -31 -5 -34 -10 -3 -2 rrcurveto
          0 -3 -2 -5 -3 3 -17 -4 vvcurveto
          -13 3 1 -3 7 hhcurveto
          0 2 0 7 4 vhcurveto
          20 38 33 6 37 hhcurveto
          99 71 -79 -88 -82 -64 -85 -109 -50 -25 8 19 -35 hvcurveto
          -13 8 -3 0 0 vvcurveto
          -10 0 -23 -9 -3 0 -3 1 -1 hvcurveto
          -29 56 31 -4 48 hhcurveto
          140 86 101 103 hvcurveto
          endchar
        </CharString>
        <CharString name="copyright">
          684 88 callsubr
          0 66 552 -59 callgsubr
          -115 -164 rmoveto
          9 0 23 -10 -2 -1 0 -8 -13 vhcurveto
          -19 -35 -25 -8 -50 hhcurveto
          -109 -64 85 82 88 71 79 99 37 33 -6 -20 38 hvcurveto
          7 -4 2 0 0 vvcurveto
          7 1 3 13 2 hvcurveto
          1 4 3 17 3 vvcurveto
          5 -2 1 -2 1 vhcurveto
          -2 2 -34 10 -31 4 rrcurveto
          1 -5 -22 3 -31 hhcurveto
          -136 -89 -99 -105 -102 86 -102 140 48 31 4 29 56 hvcurveto
          1 2 0 2 3 vvcurveto
          endchar
        </CharString>
        <CharString name="copyright.alt">
          833 -156 66 701 66 hstem
          0 66 701 66 vstem
          833 260 rmoveto
          256 -161 161 -255 -256 -161 -161 -256 -255 161 -161 256 255 161 161 255 vhcurveto
          -66 hmoveto
          -215 -135 -135 -215 -216 -135 135 215 216 135 135 216 215 135 -135 -216 vhcurveto
          -122 -222 rmoveto
          12 0 31 -14 -2 -1 0 -10 -19 vhcurveto
          -26 -47 -33 -11 -68 hhcurveto
          -148 -87 115 111 120 97 107 134 50 45 -9 -27 51 hvcurveto
          9 -6 3 0 0 vvcurveto
          10 0 5 18 4 hvcurveto
          1 5 5 23 4 vvcurveto
          6 -4 3 -2 vhcurveto
          -4 3 -45 13 -42 6 rrcurveto
          1 -7 -30 5 -42 hhcurveto
          -184 -120 -135 -142 -138 116 -138 190 65 42 6 39 75 hvcurveto
          1 2 1 4 3 vvcurveto
          endchar
        </CharString>
        <CharString name="currency">
          972 -7 -20 41 70 388 70 hstem
          222 70 389 70 vstem
          780 -16 rmoveto
          25 25 -25 25 -8 8 -76 75 rcurveline
          34 45 21 56 60 vvcurveto
          61 -21 55 -34 45 vhcurveto
          76 76 8 8 25 25 -25 25 rlinecurve
          -25 24 -24 -24 -9 -9 -76 -76 rcurveline
          34 -44 -56 20 -60 hhcurveto
          -60 -56 -20 -34 -44 hvcurveto
          -76 76 -9 9 -25 24 -24 -24 rlinecurve
          -25 -25 25 -25 8 -8 76 -76 rcurveline
          -34 -45 -20 -56 -60 vvcurveto
          -60 20 -56 34 -44 vhcurveto
          -77 -77 -8 -8 -25 -25 25 -25 rlinecurve
          25 -24 24 24 9 9 76 76 rcurveline
          -34 45 56 -20 60 hhcurveto
          61 55 20 34 45 hvcurveto
          75 -75 9 -9 24 -25 25 25 rlinecurve
          -99 294 rmoveto
          -107 -88 -87 -107 -107 -87 87 107 107 87 87 107 107 88 -87 -107 vhcurveto
          endchar
        </CharString>
        <CharString name="cwm">
          0 endchar
        </CharString>
        <CharString name="cwmascender">
          0 endchar
        </CharString>
        <CharString name="cwmcapital">
          0 endchar
        </CharString>
        <CharString name="d">
          115 callgsubr
          54 80 310 80 -78 78 hintmask 00101000
          55 callsubr
          hintmask 11010100
          4 callgsubr
          hintmask 11011000
          -30 callgsubr
          endchar
        </CharString>
        <CharString name="dagger">
          472 393 75 0 75 161 -20 hstemhm
          198 75 hintmask 01110000
          412 430 rmoveto
          89 callsubr
          17 0 23 11 60 rrcurveto
          4 24 9 58 34 vvcurveto
          8 0 37 -37 -38 0 -36 -9 -33 8 -50 5 -31 vhcurveto
          11 -66 0 -14 1 -22 90 callgsubr
          hvcurveto
          hintmask 10010000
          -8 4 -30 37 15 24 4 8 24 vhcurveto
          26 7 18 4 16 2 -1 -16 -1 -17 -8 -36 rrcurveto
          -15 -70 0 -7 -53 vvcurveto
          -120 8 -163 13 -129 vhcurveto
          -15 1 1 -7 14 hhcurveto
          7 7 1 12 2 hvcurveto
          2 14 20 209 198 vvcurveto
          49 0 11 -13 62 vhcurveto
          -10 45 0 10 -2 22 77 callgsubr
        </CharString>
        <CharString name="daggerdbl">
          472 -15 75 380 74 190 -20 hstem
          173 75 -50 75 -50 75 cntrmask 00011100
          412 477 rmoveto
          20 -15 17 -23 -24 -25 -6 -8 -26 vhcurveto
          -28 -7 -6 -1 -17 -2 1 20 1 11 9 41 rrcurveto
          5 29 9 42 28 126 callgsubr
          8 -40 7 -35 vhcurveto
          8 -36 1 -12 1 -19 -16 2 -7 1 -27 7 rrcurveto
          9 -31 -22 5 -23 hhcurveto
          -23 -15 -17 -20 -16 7 -21 35 11 13 0 14 47 hvcurveto
          27 7 8 1 16 2 -1 -20 -1 -11 -9 -41 rrcurveto
          -5 -29 -9 -42 -28 127 callgsubr
          -8 40 -7 35 vhcurveto
          -8 36 -1 12 -1 19 17 -2 6 -1 27 -7 rrcurveto
          -13 44 13 -1 15 hhcurveto
          32 10 18 19 hvcurveto
          -455 vmoveto
          89 callsubr
          21 1 10 9 41 rrcurveto
          6 31 8 41 27 126 callgsubr
          9 -42 6 -33 vhcurveto
          8 -36 1 -12 1 -19 90 callgsubr
          -8 4 -30 37 15 24 4 8 24 hvcurveto
          26 7 18 4 16 2 -1 -21 -1 -10 -9 -41 rrcurveto
          -6 -31 -8 -41 -27 127 callgsubr
          -9 42 -6 33 vhcurveto
          -8 36 -1 12 -1 19 77 callgsubr
        </CharString>
        <CharString name="dblbracketleft">
          503 -207 70 832 70 hstem
          137 70 86 70 vstem
          475 -172 rmoveto
          20 -12 15 -25 vhcurveto
          -75 832 75 hlineto
          25 12 15 20 20 -12 15 -23 hvcurveto
          -261 hlineto
          -30 -13 -14 -27 hvcurveto
          -8 1 -8 -7 vvcurveto
          -867 vlineto
          -29 14 -12 28 vhcurveto
          261 hlineto
          23 12 15 20 hvcurveto
          -182 35 rmoveto
          -86 832 86 hlineto
          endchar
        </CharString>
        <CharString name="dblbracketright">
          503 -207 70 832 70 hstem
          139 70 86 70 vstem
          366 -166 rmoveto
          8 -1 8 7 vvcurveto
          867 vlineto
          29 -14 12 -28 vhcurveto
          -260 hlineto
          -23 -12 -15 -20 -20 12 -15 25 hvcurveto
          74 -832 -74 hlineto
          -25 -12 -15 -20 -20 12 -15 23 hvcurveto
          260 hlineto
          30 13 14 27 hvcurveto
          -71 29 rmoveto
          -86 832 86 hlineto
          endchar
        </CharString>
        <CharString name="dblgrave.ts1">
          625 611 33 callgsubr
          hstem
          274 604 rmoveto
          23 callsubr
          208 hmoveto
          23 callsubr
          endchar
        </CharString>
        <CharString name="dblverticalbar">
          505 750 -20 hstem
          124 46 164 46 vstem
          170 -214 rmoveto
          29 callgsubr
          210 hmoveto
          29 callgsubr
          endchar
        </CharString>
        <CharString name="dcaron">
          96 callsubr
          76 87 76 callgsubr
          -78 78 hintmask 00101000
          55 callsubr
          hintmask 11010100
          4 callgsubr
          hintmask 11111000
          -30 callgsubr
          213 262 -103 callsubr
        </CharString>
        <CharString name="dcroat">
          96 callsubr
          44 66 53 68 callgsubr
          -78 78 hintmask 00110100
          577 606 rmoveto
          4 vlineto
          17 -14 14 -17 vhcurveto
          -22 9 hlineto
          20 0 24 -39 vhcurveto
          hintmask 11101010
          -34 callgsubr
          hvcurveto
          -9 -165 21 callsubr
          165 -125 hlineto
          55 -40 -53 26 -58 hhcurveto
          -127 -114 -115 -156 -152 106 -118 125 hvcurveto
          hintmask 11101100
          81 51 52 41 27 hvcurveto
          -39 vlineto
          -61 callgsubr
          531 22 vlineto
          17 14 14 17 hvcurveto
          -133 -432 rmoveto
          -31 -18 -28 -23 -22 vhcurveto
          -21 -21 -28 -19 -43 hhcurveto
          -82 -95 59 148 149 103 59 87 52 35 -29 -30 20 hvcurveto
          13 -18 0 -3 -18 vvcurveto
          endchar
        </CharString>
        <CharString name="ddotbelow">
          115 callgsubr
          54 80 130 98 82 80 -78 78 hintmask 00100100
          55 callsubr
          hintmask 11010010
          4 callgsubr
          hintmask 11010100
          -30 callgsubr
          hintmask 00001000
          -82 -526 -105 callsubr
        </CharString>
        <CharString name="degree">
          469 337 70 207 70 hstem
          61 70 207 70 vstem
          408 510 rmoveto
          96 -78 78 -96 -96 -77 -78 -96 -95 77 -78 96 96 78 78 95 vhcurveto
          -70 hmoveto
          -57 -46 -46 -58 -57 -46 46 57 58 46 46 57 58 46 -46 -58 vhcurveto
          endchar
        </CharString>
        <CharString name="diameter">
          972 -117 70 650 70 hstem
          91 70 650 70 vstem
          902 659 rmoveto
          19 -16 16 -19 -10 -8 -4 -6 -7 vhcurveto
          -103 -103 rlineto
          57 -68 -89 35 -96 hhcurveto
          -218 -177 -177 -218 -96 34 -88 58 -69 hvcurveto
          -104 -103 rlineto
          -6 -7 -4 -8 -10 vvcurveto
          -19 16 -16 19 10 8 4 6 7 vhcurveto
          103 103 rlineto
          -57 69 88 -35 97 hhcurveto
          218 177 177 218 97 -35 88 -57 69 hvcurveto
          103 102 rlineto
          6 7 4 8 10 vvcurveto
          -91 -381 rmoveto
          -179 -146 -146 -179 -77 -71 27 45 -56 vhcurveto
          457 457 rlineto
          45 -56 27 -71 -77 vvcurveto
          -121 253 rmoveto
          -458 -456 rlineto
          -44 55 -27 71 77 vvcurveto
          179 146 146 179 77 71 -27 -45 56 vhcurveto
          endchar
        </CharString>
        <CharString name="died">
          625 5 -21 360 69 -68 69 221 -20 hstemhm
          103 80 89 80 89 80 cntrmask 00001110
          hintmask 00101110
          586 380 rmoveto
          29 -22 7 -20 -8 -8 -1 -1 -7 vhcurveto
          -62 hlineto
          hintmask 01011110
          -6 -6 -1 -6 hhcurveto
          -89 185 hlineto
          26 -12 11 -30 -31 -8 -20 -23 vhcurveto
          -8 1 -7 -7 vvcurveto
          -157 vlineto
          -189 2 rlineto
          -29 -16 -11 -26 -29 22 -7 20 8 8 1 1 7 hvcurveto
          62 hlineto
          hintmask 10101110
          6 6 1 6 hhcurveto
          89 -315 hlineto
          -21 0 -25 40 27 14 10 32 vhcurveto
          7 -1 8 7 vvcurveto
          297 vlineto
          189 -2 rlineto
          29 16 11 26 hvcurveto
          endchar
        </CharString>
        <CharString name="dieresis">
          625 608 78 hstem
          187 89 74 89 vstem
          -43 callgsubr
          endchar
        </CharString>
        <CharString name="dieresis.cap">
          625 572 78 hstem
          172 89 104 89 vstem
          -10 callsubr
          endchar
        </CharString>
        <CharString name="dieresis.dup">
          625 608 78 hstem
          187 89 74 89 vstem
          -43 callgsubr
          endchar
        </CharString>
        <CharString name="dieresis.ts1">
          625 619 86 1 -20 hstemhm
          hintmask 01000000
          480 654 rmoveto
          18 vlineto
          30 -23 4 -19 114 callgsubr
          -24 -2 -30 -15 -32 18 -9 24 hvcurveto
          16 hlineto
          21 15 10 25 hvcurveto
          -242 11 rmoveto
          hintmask 01000000
          29 -15 12 -27 114 callgsubr
          -17 -3 -9 -13 -18 vvcurveto
          -18 vlineto
          -30 23 -4 19 vhcurveto
          16 hlineto
          33 3 26 20 hvcurveto
          endchar
        </CharString>
        <CharString name="discount">
          625 22 -21 32 103 628 -20 21 -20 hstemhm
          135 104 146 104 hintmask 00010000
          555 730 rmoveto
          19 -15 16 -19 vhcurveto
          hintmask 11101100
          -7 -1 -20 -3 -8 -20 -10 -16 rlinecurve
          -65 -109 -271 -452 -47 -77 rlineto
          -8 -15 -16 -18 -18 vvcurveto
          -19 16 -16 19 vhcurveto
          1 hlineto
          23 1 9 21 10 17 388 646 rcurveline
          8 13 12 16 15 vvcurveto
          -66 -651 rmoveto
          -21 -3 -25 -37 vhcurveto
          -17 hlineto
          -22 -25 5 36 hvcurveto
          17 vlineto
          15 2 30 27 vhcurveto
          1 3 4 0 4 hhcurveto
          17 hlineto
          22 25 -5 -36 hvcurveto
          -250 577 rmoveto
          -38 -24 -6 -29 -25 -26 4 38 vhcurveto
          18 vlineto
          13 1 14 11 9 vhcurveto
          9 6 12 3 rlineto
          21 hlineto
          23 27 -3 -39 hvcurveto
          endchar
        </CharString>
        <CharString name="divide">
          972 69 97 77 70 76 97 hstem
          437 97 vstem
          902 278 24 callgsubr
          -368 139 rmoveto
          7 callsubr
          -40 vlineto
          -27 2 -2 27 vhcurveto
          40 -40 callgsubr
          -320 vmoveto
          5 callgsubr
        </CharString>
        <CharString name="divorced">
          625 -123 -21 22 -21 161 72 377 72 160 -20 21 -20 hstemhm
          -244 72 444 80 444 72 cntrmask 0000001110000000
          hintmask 0011011110000000
          196 279 rmoveto
          128 -85 132 -140 vhcurveto
          -11 hlineto
          -132 -14 -72 -128 -118 vvcurveto
          -126 81 -135 140 vhcurveto
          11 hlineto
          135 14 73 127 120 vvcurveto
          672 -1 rmoveto
          125 -81 136 -140 vhcurveto
          -12 hlineto
          -136 -18 -71 -122 -120 vvcurveto
          -125 84 -136 140 vhcurveto
          11 hlineto
          133 14 72 127 119 vvcurveto
          -515 384 rmoveto
          28 -18 10 -22 vhcurveto
          hintmask 1000101110000000
          -5 -5 0 -1 -5 hvcurveto
          -25 -1 -30 -16 hvcurveto
          -739 vlineto
          -6 -1 -6 -6 vvcurveto
          -28 19 -12 23 vhcurveto
          hintmask 0111001110000000
          4 4 1 4 hhcurveto
          9 3 rlineto
          18 8 0 18 17 vvcurveto
          739 vlineto
          6 1 7 7 vvcurveto
          -234 -384 rmoveto
          -82 -47 -106 -98 -92 -44 91 83 -10 vhcurveto
          10 vlineto
          83 45 110 106 90 50 -105 -84 vhcurveto
          677 5 rmoveto
          -7 0 -7 -1 -6 vhcurveto
          -81 -7 -48 -92 -91 hhcurveto
          -93 -51 103 85 72 30 80 73 29 hvcurveto
          5 12 13 3 13 hhcurveto
          3 hlineto
          91 56 -98 -86 hvcurveto
          endchar
        </CharString>
        <CharString name="dlinebelow">
          625 -189 66 113 63 415 63 163 68 callgsubr
          -78 78 hintmask 00010100
          55 callsubr
          hintmask 01101010
          4 callgsubr
          hintmask 01101100
          -30 callgsubr
          hintmask 10000000
          94 -531 -95 callgsubr
        </CharString>
        <CharString name="dollar">
          625 -48 -21 62 65 579 65 62 -20 hstemhm
          62 63 -56 76 136 63 135 76 hintmask 00110110
          555 197 rmoveto
          73 -50 106 -161 26 vhcurveto
          235 vlineto
          64 -4 45 -20 45 -28 rrcurveto
          -6 9 112 callsubr
          12 2 9 13 2 hvcurveto
          1 6 5 22 4 vvcurveto
          9 -1 1 -25 14 vhcurveto
          -77 41 -61 4 -26 1 rrcurveto
          17 vlineto
          12 0 32 -31 -32 0 -31 -13 vhcurveto
          -17 vlineto
          -127 -14 -85 -84 -94 vvcurveto
          hintmask 10001011
          -54 27 -43 29 -27 vhcurveto
          53 -48 59 -11 44 -9 rrcurveto
          -262 vlineto
          -81 7 -63 30 -44 30 rrcurveto
          7 -9 -2 0 -4 hhcurveto
          -12 -1 -8 -15 -3 hvcurveto
          -1 -6 -5 -24 -4 vvcurveto
          -6 4 -4 0 vhcurveto
          1 -2 38 -27 62 -20 57 -19 42 -3 21 -2 rrcurveto
          -34 0 -26 32 31 0 32 12 vhcurveto
          17 vlineto
          133 16 78 94 95 vvcurveto
          -274 218 rmoveto
          hintmask 01000111
          -96 16 -40 49 45 vvcurveto
          54 58 48 78 9 vhcurveto
          198 -453 rmoveto
          -65 -64 -50 -71 -10 vhcurveto
          248 vlineto
          78 -11 57 -51 -61 vvcurveto
          endchar
        </CharString>
        <CharString name="dollar.oldstyle">
          763 -47 -21 61 64 -58 68 59 68 129 64 247 64 -61 68 60 -20 hstemhm
          55 90 -76 76 126 64 93 64 126 76 hintmask 0001110100011000
          694 185 rmoveto
          9 vlineto
          110 -111 66 -91 17 vhcurveto
          244 vlineto
          14 -2 13 -3 14 -4 37 -9 34 -14 35 -15 rrcurveto
          -2 4 5 -2 4 hhcurveto
          17 1 31 13 1 hvcurveto
          1 3 0 4 3 vvcurveto
          18 -41 11 -16 4 vhcurveto
          -39 14 -42 12 -42 5 rrcurveto
          25 vlineto
          22 1 -12 20 -21 hhcurveto
          -21 -12 -20 -21 1 hvcurveto
          -20 vlineto
          hintmask 0011001101100000
          -19 -18 1 -19 hhcurveto
          -12 -13 0 -2 -12 hvcurveto
          20 vlineto
          25 -11 17 -21 -22 -10 -18 -24 vhcurveto
          -30 vlineto
          -18 -2 -19 -7 -17 -7 -67 -25 -72 -49 -9 -77 rrcurveto
          -9 vlineto
          -101 98 -56 88 -20 vhcurveto
          12 -3 4 -2 0 vvcurveto
          -268 vlineto
          -61 8 -65 25 -52 26 rrcurveto
          2 -5 -5 4 -6 hhcurveto
          -19 1 -35 -13 -3 hvcurveto
          hintmask 1010000010100000
          -3 -1 -3 -3 vvcurveto
          -18 46 -13 23 -8 vhcurveto
          47 -17 50 -13 50 -7 rrcurveto
          -25 vlineto
          -29 12 -13 20 20 12 17 24 vhcurveto
          19 vlineto
          hintmask 1100101010111000
          93 1 rlineto
          -19 vlineto
          -24 11 -18 21 22 10 18 24 vhcurveto
          30 vlineto
          97 15 99 82 6 84 rrcurveto
          -266 216 rmoveto
          -93 18 rlineto
          218 93 vlineto
          -157 -205 rmoveto
          -47 17 -79 14 65 vvcurveto
          53 75 33 51 12 vhcurveto
          347 -445 rmoveto
          -63 -79 -28 -47 -19 vhcurveto
          220 vlineto
          52 -17 74 -25 -68 vvcurveto
          -190 -122 rmoveto
          0 -31 -2 -20 -16 -26 2 0 vhcurveto
          264 vlineto
          93 -18 rlineto
          endchar
        </CharString>
        <CharString name="dong">
          625 -66 66 hstem
          548 610 rmoveto
          4 vlineto
          16 -13 14 -16 vhcurveto
          -21 8 hlineto
          19 0 23 -37 -37 0 -23 -19 vhcurveto
          -8 -157 vlineto
          -16 -14 -14 -16 hvcurveto
          -4 vlineto
          -16 14 -13 16 vhcurveto
          157 -119 hlineto
          52 -38 -51 25 -55 hhcurveto
          -120 -109 -109 -148 -145 101 -112 119 77 48 50 39 26 hvcurveto
          -37 vlineto
          -20 0 -22 38 38 0 22 20 vhcurveto
          504 21 vlineto
          16 13 13 16 hvcurveto
          -655 vmoveto
          121 callgsubr
          -455 hlineto
          -11 -10 -9 -12 hvcurveto
          -24 vlineto
          -12 10 -9 11 vhcurveto
          455 hlineto
          12 125 callgsubr
          -126 245 rmoveto
          -29 -17 -27 -22 -21 vhcurveto
          -20 -20 -27 -18 -41 hhcurveto
          -77 -91 56 141 141 98 56 83 49 33 -27 -29 19 hvcurveto
          13 -17 0 -3 -17 vvcurveto
          endchar
        </CharString>
        <CharString name="dotaccent">
          347 603 105 callsubr
          647 -105 callsubr
        </CharString>
        <CharString name="dotaccent.alt">
          347 559 105 callsubr
          603 -105 callsubr
        </CharString>
        <CharString name="dotaccent.cap">
          347 587 105 callsubr
          631 -105 callsubr
        </CharString>
        <CharString name="dotlessi">
          18 callgsubr
          hstem
          99 78 vstem
          177 44 rmoveto
          -70 callgsubr
          endchar
        </CharString>
        <CharString name="dotlessj">
          59 callgsubr
          hstem
          134 78 vstem
          -68 callgsubr
          endchar
        </CharString>
        <CharString name="e">
          -23 callsubr
          hstem
          64 callgsubr
          vstem
          -105 callgsubr
          endchar
        </CharString>
        <CharString name="eacute">
          -23 callsubr
          74 -21 115 -81 callgsubr
          -5 395 -107 callsubr
        </CharString>
        <CharString name="ebreve">
          -23 callsubr
          66 69 20 -87 callgsubr
          hintmask 00001000
          30 364 rmoveto
          18 -13 14 -19 -11 -6 -5 -5 -5 vhcurveto
          hintmask 00010000
          -70 callsubr
          hintmask 00001000
          5 -6 -6 4 -9 hhcurveto
          -19 -13 -14 -18 hvcurveto
          hintmask 00010000
          -25 callgsubr
        </CharString>
        <CharString name="ecaron">
          -23 callsubr
          63 -21 137 -81 callgsubr
          12 420 -51 callgsubr
        </CharString>
        <CharString name="ecircumflex">
          -23 callsubr
          63 -21 137 -81 callgsubr
          12 283 -65 callgsubr
          endchar
        </CharString>
        <CharString name="ecircumflexacute">
          -23 callsubr
          63 -21 257 -81 callgsubr
          13 283 -44 callsubr
          243 -107 callsubr
        </CharString>
        <CharString name="ecircumflexdotbelow">
          -23 callsubr
          63 -21 137 -20 105 callgsubr
          hintmask 11111101
          -105 callgsubr
          12 283 -65 callgsubr
          hintmask 00000010
          -67 -734 -105 callsubr
        </CharString>
        <CharString name="ecircumflexgrave">
          -23 callsubr
          63 -21 107 -81 callgsubr
          13 283 -72 callsubr
        </CharString>
        <CharString name="ecircumflexhookabove">
          -23 callsubr
          63 -21 309 62 callgsubr
          49 76 251 33 -33 48 29 65 -43 48 hintmask 1110001001000000
          -105 callgsubr
          hintmask 0001100000000000
          13 283 -18 callsubr
        </CharString>
        <CharString name="ecircumflextilde">
          -23 callsubr
          63 -21 162 63 -20 63 66 callgsubr
          hintmask 11100011
          -105 callgsubr
          hintmask 00010100
          13 283 -98 callsubr
          91 250 -64 callsubr
        </CharString>
        <CharString name="edblgrave">
          -23 callsubr
          74 -21 115 -81 callgsubr
          -5 308 -102 callgsubr
        </CharString>
        <CharString name="edieresis">
          -23 callsubr
          72 78 hstemhm
          49 76 27 89 74 89 49 65 hintmask 11101001
          -105 callgsubr
          hintmask 00010110
          -212 353 -66 callsubr
        </CharString>
        <CharString name="edotaccent">
          -23 callsubr
          67 87 105 callgsubr
          hintmask 11101010
          -105 callgsubr
          hintmask 00010100
          -126 352 -105 callsubr
        </CharString>
        <CharString name="edotbelow">
          -23 callsubr
          105 callgsubr
          hintmask 11110100
          -105 callgsubr
          hintmask 00001000
          -126 -451 -105 callsubr
        </CharString>
        <CharString name="egrave">
          -23 callsubr
          74 -21 115 -81 callgsubr
          -90 308 rmoveto
          -97 callsubr
        </CharString>
        <CharString name="ehookabove">
          -23 callsubr
          233 62 callgsubr
          49 76 127 18 callsubr
          54 65 hintmask 1110010001000000
          -105 callgsubr
          hintmask 0001000000000000
          -54 452 -30 callsubr
          hintmask 0000100000000000
          -62 callsubr
          hintmask 0001000000000000
          -89 callsubr
          hintmask 0000100110000000
          -98 callgsubr
          hintmask 0000001010000000
          -86 callsubr
        </CharString>
        <CharString name="eight">
          625 -21 64 282 63 230 63 hstemhm
          52 64 callsubr
          572 -67 callgsubr
        </CharString>
        <CharString name="eight.oldstyle">
          706 -21 64 282 63 230 63 hstemhm
          93 64 callsubr
          613 -67 callgsubr
        </CharString>
        <CharString name="eight.prop">
          706 -21 64 282 63 230 63 hstemhm
          93 64 callsubr
          613 -67 callgsubr
        </CharString>
        <CharString name="eight.taboldstyle">
          625 -21 64 282 63 230 63 hstemhm
          52 64 callsubr
          572 -67 callgsubr
        </CharString>
        <CharString name="ellipsis">
          768 0 97 hstem
          126 97 113 97 113 97 cntrmask 01110000
          223 28 rmoveto
          7 callsubr
          -40 vlineto
          -27 2 -2 27 vhcurveto
          40 -40 callgsubr
          210 hmoveto
          7 callsubr
          -40 vlineto
          -27 2 -2 27 vhcurveto
          40 -40 callgsubr
          210 hmoveto
          5 callgsubr
        </CharString>
        <CharString name="emacron">
          -23 callsubr
          78 66 66 callgsubr
          hintmask 11101100
          -105 callgsubr
          hintmask 00010000
          50 347 -95 callgsubr
        </CharString>
        <CharString name="emdash">
          1250 290 63 hstem
          0 1249 vstem
          1249 321 rmoveto
          32 -31 0 -13 vhcurveto
          -1161 hlineto
          -14 -30 0 -32 -31 32 0 12 hvcurveto
          1161 36 callgsubr
        </CharString>
        <CharString name="emdash.alt">
          833 290 63 -62 63 hstemhm
          hintmask 01000000
          832 322 rmoveto
          23 -17 9 -27 vhcurveto
          -750 hlineto
          hintmask 10000000
          -4 -4 0 -1 -4 hvcurveto
          -17 -3 -8 -14 -14 vvcurveto
          hintmask 01000000
          -15 10 -16 23 vhcurveto
          734 hlineto
          hintmask 10000000
          7 7 -1 8 hhcurveto
          20 22 8 24 hvcurveto
          endchar
        </CharString>
        <CharString name="endash">
          625 290 63 hstem
          0 624 vstem
          624 321 rmoveto
          32 -31 0 -13 vhcurveto
          -536 hlineto
          -14 -30 0 -32 -31 32 0 12 hvcurveto
          536 36 callgsubr
        </CharString>
        <CharString name="eng">
          625 468 63 83 callgsubr
          40 callgsubr
          317 vlineto
          111 -54 59 -116 -93 -57 -58 -54 -28 vhcurveto
          -1 58 hlineto
          19 0 25 -38 -19 callsubr
          -433 vlineto
          -13 callsubr
          -57 -28 -55 -47 -15 vhcurveto
          -14 -4 -12 -12 -15 vvcurveto
          -12 vlineto
          -15 12 -12 14 2 vhcurveto
          90 14 65 84 97 vvcurveto
          endchar
        </CharString>
        <CharString name="eogonek">
          556 -199 69 120 9 callsubr
          hstem
          49 76 124 65 139 65 vstem
          -22 callsubr
          endchar
        </CharString>
        <CharString name="eogonekacute">
          556 -199 69 120 9 callsubr
          61 callgsubr
          49 76 124 65 139 65 hintmask 1111001110000000
          -22 callsubr
          hintmask 0000110000000000
          -5 395 -107 callsubr
        </CharString>
        <CharString name="equal">
          972 125 70 166 70 hstem
          69 833 vstem
          902 396 24 callgsubr
          -236 vmoveto
          35 -33 0 -12 vhcurveto
          -743 hlineto
          -12 -33 0 -35 -35 37 0 14 hvcurveto
          731 hlineto
          14 37 0 35 hvcurveto
          endchar
        </CharString>
        <CharString name="ereversed">
          -23 callsubr
          hstem
          49 65 328 76 vstem
          518 264 rmoveto
          148 -108 124 -139 -141 -81 -105 -144 -41 23 0 21 vhcurveto
          349 hlineto
          -103 -6 -79 -90 -104 hhcurveto
          -49 -64 17 47 -52 hvcurveto
          6 -7 -4 4 -6 hhcurveto
          -17 0 -31 -20 -8 0 -4 30 -21 hvcurveto
          -36 52 61 -17 57 hhcurveto
          145 119 121 153 hvcurveto
          -77 31 rmoveto
          -327 hlineto
          33 2 7 145 148 hhcurveto
          83 74 -73 -105 13 hvcurveto
          endchar
        </CharString>
        <CharString name="estimated">
          833 -10 64 0 49 222 49 262 63 hstemhm
          40 94 576 87 hintmask 10011000
          797 365 rmoveto
          105 -43 112 -95 60 vhcurveto
          -57 37 -69 17 -68 3 rrcurveto
          -25 hlineto
          -199 -201 -135 -218 -216 212 -140 204 106 114 24 42 95 hvcurveto
          10 4 9 4 12 vvcurveto
          6 vlineto
          20 -1 26 -16 vhcurveto
          hintmask 01111100
          -11 -30 -18 -7 -21 hvcurveto
          -30 -81 -86 -19 -87 hhcurveto
          -145 -142 86 153 -32 hvcurveto
          -2 11 -1 10 -2 11 rrcurveto
          624 hlineto
          30 10 15 25 hvcurveto
          -87 9 rmoveto
          -576 hlineto
          9 113 86 97 105 37 rrcurveto
          11 34 34 4 35 hhcurveto
          20 hlineto
          125 -6 128 -75 -181 vvcurveto
          endchar
        </CharString>
        <CharString name="eth">
          -5 callsubr
          hstem
          117 callsubr
          93 -4 96 -47 80 vhcurveto
          -26 44 -34 34 -40 27 54 19 rcurveline
          14 5 6 10 11 vvcurveto
          15 -11 15 -17 -3 -4 0 -2 -4 vhcurveto
          -106 -36 rlineto
          26 -65 -74 12 -73 hhcurveto
          -16 2 -14 -14 -17 vvcurveto
          -4 vlineto
          -17 13 -14 17 -3 vhcurveto
          34 35 -3 -6 33 hvcurveto
          -63 -22 rlineto
          -14 -5 -6 -10 -11 vvcurveto
          -15 11 -15 17 3 4 0 2 4 vhcurveto
          139 48 63 -28 53 -44 30 -64 rlinecurve
          42 -47 -61 26 -66 hhcurveto
          -146 -119 -124 -153 -149 119 -120 146 73 66 30 49 48 hvcurveto
          50 50 28 69 71 60 callgsubr
        </CharString>
        <CharString name="etilde">
          -23 callsubr
          58 63 -20 63 -86 callgsubr
          hintmask 00001000
          33 387 -82 callgsubr
        </CharString>
        <CharString name="eturned">
          -7 callgsubr
        </CharString>
        <CharString name="exclam">
          354 0 97 115 -21 503 -20 hstem
          128 97 vstem
          225 668 rmoveto
          25 -3 1 -25 vhcurveto
          -40 hlineto
          -26 -3 -1 -26 hvcurveto
          6 -311 3 -149 rlineto
          -16 1 9 0 19 hhcurveto
          21 hlineto
          17 11 0 14 1 hvcurveto
          4 242 rlineto
          1 73 4 75 73 vvcurveto
          -624 vmoveto
          -43 callsubr
          endchar
        </CharString>
        <CharString name="exclamdown">
          354 -118 -21 504 -20 114 97 hstem
          128 97 vstem
          225 503 rmoveto
          -43 callsubr
          -616 vmoveto
          92 -5 92 -1 92 vhcurveto
          21 -2 167 -3 5 vhcurveto
          9 -4 -6 0 -17 hhcurveto
          -21 hlineto
          -17 -11 0 -14 -1 hvcurveto
          -4 -243 rlineto
          -1 -73 -4 -74 -73 vvcurveto
          -26 3 -1 26 vhcurveto
          40 hlineto
          25 3 1 25 hvcurveto
          endchar
        </CharString>
        <CharString name="f">
          -11 callsubr
        </CharString>
        <CharString name="f_f">
          729 21 -21 458 63 47 63 10 63 hstem
          135 78 268 78 vstem
          434 652 rmoveto
          14 vlineto
          26 -1 1 -39 6 vhcurveto
          4 -27 -25 1 -16 hhcurveto
          -97 -94 -45 -91 hvcurveto
          -47 -57 -8 callgsubr
          57 -414 hlineto
          -95 callsubr
          414 102 vlineto
          51 callgsubr
          32 -31 0 -13 hvcurveto
          -104 67 hlineto
          21 0 8 38 14 vhcurveto
          8 23 27 2 23 hhcurveto
          30 24 -3 -10 29 hvcurveto
          11 -4 4 0 0 vvcurveto
          58 callgsubr
          346 hmoveto
          14 vlineto
          26 -1 1 -39 6 vhcurveto
          4 -27 -25 1 -16 hhcurveto
          -97 -94 -45 -91 hvcurveto
          -524 -75 callsubr
          414 102 vlineto
          51 callgsubr
          32 -31 0 -13 hvcurveto
          -104 67 hlineto
          21 0 8 38 14 vhcurveto
          8 23 27 2 23 hhcurveto
          30 24 -3 -10 29 hvcurveto
          11 -4 4 0 0 vvcurveto
          58 callgsubr
          endchar
        </CharString>
        <CharString name="f_f_i">
          1007 589 63 -54 97 -54 63 hstem
          135 78 269 78 268 78 cntrmask 11100000
          915 642 rmoveto
          -43 callsubr
          -9 -598 rmoveto
          -70 callgsubr
          -191 445 rmoveto
          32 -31 0 -13 115 callsubr
          10 18 21 2 13 hhcurveto
          18 19 -3 -10 22 hvcurveto
          -3 6 2 -2 4 hhcurveto
          14 0 14 15 hvcurveto
          14 vlineto
          25 -1 1 -27 6 vhcurveto
          47 callsubr
          -316 163 1 callsubr
          58 callgsubr
          endchar
        </CharString>
        <CharString name="f_f_l">
          1007 74 callgsubr
          78 269 78 268 78 hintmask 11011000
          399 652 1 callsubr
          hintmask 11100010
          58 callgsubr
          507 -608 -46 callsubr
          -191 445 rmoveto
          32 -31 0 -13 0 callsubr
          hintmask 11010100
          47 callsubr
          endchar
        </CharString>
        <CharString name="f_i">
          660 21 -21 458 63 48 97 -68 97 -54 63 hstemhm
          135 78 268 78 hintmask 11010010
          568 642 rmoveto
          -43 callsubr
          -9 -598 rmoveto
          -70 callgsubr
          -191 446 rmoveto
          31 -32 0 -12 115 callsubr
          hintmask 00001000
          10 18 21 2 13 hhcurveto
          28 17 -7 -9 17 hvcurveto
          -1 3 3 -1 3 hhcurveto
          58 callgsubr
          hintmask 00100000
          15 vlineto
          24 -1 1 -27 7 vhcurveto
          hintmask 00001000
          98 callsubr
          hintmask 11100100
          -76 -74 -46 -89 hvcurveto
          -48 -57 -8 callgsubr
          57 -414 hlineto
          -95 callsubr
          414 111 vlineto
          14 30 0 32 hvcurveto
          endchar
        </CharString>
        <CharString name="f_k">
          978 74 callgsubr
          76 0 74 197 74 hintmask 01100100
          368 490 rmoveto
          31 -32 0 -12 0 callsubr
          hintmask 00010100
          98 callsubr
          hintmask 11001010
          -76 -74 -46 -89 hvcurveto
          -48 -57 -8 callgsubr
          57 -414 hlineto
          -95 callsubr
          414 111 vlineto
          14 30 0 32 hvcurveto
          568 -470 -49 callsubr
          endchar
        </CharString>
        <CharString name="f_l">
          660 74 callgsubr
          78 268 78 hintmask 01100000
          368 490 rmoveto
          31 -32 0 -12 0 callsubr
          hintmask 11011100
          118 callsubr
          -48 -57 -8 callgsubr
          57 -414 hlineto
          -95 callsubr
          414 111 vlineto
          14 30 0 32 hvcurveto
          191 -446 -46 callsubr
          endchar
        </CharString>
        <CharString name="five">
          625 -21 64 323 63 165 66 hstem
          107 77 284 94 vstem
          562 205 41 callgsubr
          200 21 callgsubr
          -281 -32 callsubr
        </CharString>
        <CharString name="five.oldstyle">
          693 104 callgsubr
          145 77 284 94 vstem
          600 66 41 callgsubr
          210 21 callgsubr
          -291 -32 callsubr
        </CharString>
        <CharString name="five.prop">
          693 -21 64 323 63 165 66 hstem
          145 77 284 94 vstem
          600 205 41 callgsubr
          200 21 callgsubr
          -281 -32 callsubr
        </CharString>
        <CharString name="five.taboldstyle">
          625 104 callgsubr
          107 77 284 94 vstem
          562 66 41 callgsubr
          210 21 callgsubr
          -291 -32 callsubr
        </CharString>
        <CharString name="florin">
          -11 callsubr
        </CharString>
        <CharString name="four">
          625 21 -21 170 66 434 -20 hstem
          378 78 vstem
          589 1 callgsubr
        </CharString>
        <CharString name="four.oldstyle">
          647 -118 -21 139 66 404 72 hstemhm
          387 81 -78 78 hintmask 11110000
          601 3 callsubr
        </CharString>
        <CharString name="four.prop">
          647 21 -21 170 66 434 -20 hstem
          390 78 vstem
          601 1 callgsubr
        </CharString>
        <CharString name="four.taboldstyle">
          107 callgsubr
          139 66 404 72 hstemhm
          375 81 -78 78 hintmask 11110000
          589 3 callsubr
        </CharString>
        <CharString name="fraction">
          709 639 664 -32 callgsubr
          endchar
        </CharString>
        <CharString name="fraction.alt">
          0 285 664 -32 callgsubr
          endchar
        </CharString>
        <CharString name="g">
          15 callgsubr
          76 callgsubr
          hintmask 10111100
          4 callsubr
          hintmask 10111100
          -15 50 66 -14 82 hhcurveto
          140 80 95 101 hvcurveto
          -78 267 rmoveto
          -132 -52 -86 -83 -91 -86 73 105 113 87 93 104 86 35 -100 -42 vhcurveto
          endchar
        </CharString>
        <CharString name="gacute">
          15 callgsubr
          79 -21 115 68 callgsubr
          hintmask 10110011
          524 35 -87 callsubr
          hintmask 00001100
          19 364 -107 callsubr
        </CharString>
        <CharString name="gbreve">
          15 callgsubr
          71 69 20 68 callgsubr
          hintmask 10110011
          524 35 -87 callsubr
          hintmask 00000100
          54 333 rmoveto
          18 -13 14 -19 -11 -6 -5 -5 -5 vhcurveto
          hintmask 00001000
          -70 callsubr
          hintmask 00000100
          5 -6 -6 4 -9 hhcurveto
          -19 -13 -14 -18 hvcurveto
          hintmask 00001000
          -25 callgsubr
        </CharString>
        <CharString name="gcaron">
          15 callgsubr
          68 -21 137 68 callgsubr
          hintmask 10110011
          524 35 -87 callsubr
          hintmask 00001100
          36 389 -51 callgsubr
        </CharString>
        <CharString name="gcedilla">
          15 callgsubr
          46 87 125 68 callgsubr
          hintmask 10111111
          338 602 rmoveto
          37 vlineto
          22 -1 3 -23 vhcurveto
          24 112 rlineto
          13 -12 0 -9 -18 0 -1 -18 -8 vhcurveto
          -33 -96 rlineto
          -7 -20 0 -2 -13 vvcurveto
          -37 vlineto
          -24 1 -1 24 vhcurveto
          37 hlineto
          23 2 1 24 hvcurveto
          186 -567 -87 callsubr
          endchar
        </CharString>
        <CharString name="gcircumflex">
          15 callgsubr
          68 -21 137 68 callgsubr
          hintmask 10110011
          524 35 -87 callsubr
          hintmask 00001100
          36 252 -65 callgsubr
          endchar
        </CharString>
</ttFont>
